<svg width="325" height="100" viewBox="0 0 325 100" fill="none" xmlns="http://www.w3.org/2000/svg">
<path d="M134.415 33.4949H131.119V23.3131H134.519C135.517 23.3131 136.374 23.5169 137.089 23.9246C137.805 24.3289 138.354 24.9106 138.735 25.6696C139.12 26.4253 139.312 27.3318 139.312 28.389C139.312 29.4497 139.118 30.3611 138.73 31.1234C138.346 31.8857 137.789 32.4724 137.06 32.8834C136.33 33.291 135.449 33.4949 134.415 33.4949ZM132.655 32.1525H134.33C135.106 32.1525 135.75 32.0067 136.264 31.715C136.778 31.4201 137.162 30.9942 137.418 30.4373C137.673 29.8772 137.8 29.1944 137.8 28.389C137.8 27.5903 137.673 26.9125 137.418 26.3557C137.166 25.7988 136.79 25.3763 136.289 25.0879C135.789 24.7996 135.167 24.6554 134.425 24.6554H132.655V32.1525ZM144.319 33.649C143.604 33.649 142.979 33.4849 142.445 33.1568C141.912 32.8287 141.497 32.3696 141.202 31.7797C140.907 31.1897 140.76 30.5003 140.76 29.7115C140.76 28.9194 140.907 28.2266 141.202 27.6334C141.497 27.0401 141.912 26.5794 142.445 26.2513C142.979 25.9231 143.604 25.7591 144.319 25.7591C145.035 25.7591 145.66 25.9231 146.194 26.2513C146.727 26.5794 147.142 27.0401 147.437 27.6334C147.732 28.2266 147.879 28.9194 147.879 29.7115C147.879 30.5003 147.732 31.1897 147.437 31.7797C147.142 32.3696 146.727 32.8287 146.194 33.1568C145.66 33.4849 145.035 33.649 144.319 33.649ZM144.324 32.4011C144.788 32.4011 145.173 32.2785 145.478 32.0332C145.783 31.788 146.008 31.4615 146.154 31.0538C146.303 30.6462 146.378 30.1971 146.378 29.7065C146.378 29.2193 146.303 28.7719 146.154 28.3642C146.008 27.9532 145.783 27.6234 145.478 27.3748C145.173 27.1263 144.788 27.002 144.324 27.002C143.857 27.002 143.469 27.1263 143.161 27.3748C142.856 27.6234 142.629 27.9532 142.48 28.3642C142.334 28.7719 142.261 29.2193 142.261 29.7065C142.261 30.1971 142.334 30.6462 142.48 31.0538C142.629 31.4615 142.856 31.788 143.161 32.0332C143.469 32.2785 143.857 32.4011 144.324 32.4011ZM150.961 33.4949L148.714 25.8585H150.251L151.747 31.4665H151.822L153.323 25.8585H154.859L156.351 31.4416H156.425L157.912 25.8585H159.448L157.206 33.4949H155.689L154.138 27.9814H154.024L152.473 33.4949H150.961ZM162.345 28.9608V33.4949H160.859V25.8585H162.286V27.1014H162.38C162.556 26.6971 162.831 26.3722 163.205 26.127C163.583 25.8817 164.059 25.7591 164.632 25.7591C165.152 25.7591 165.608 25.8685 165.999 26.0872C166.39 26.3026 166.694 26.6241 166.909 27.0517C167.125 27.4792 167.232 28.0079 167.232 28.6376V33.4949H165.746V28.8166C165.746 28.2631 165.602 27.8306 165.313 27.519C165.025 27.2042 164.629 27.0467 164.125 27.0467C163.78 27.0467 163.474 27.1213 163.205 27.2704C162.94 27.4196 162.73 27.6383 162.574 27.9267C162.421 28.2117 162.345 28.5564 162.345 28.9608ZM170.712 23.3131V33.4949H169.226V23.3131H170.712ZM175.929 33.649C175.213 33.649 174.588 33.4849 174.055 33.1568C173.521 32.8287 173.107 32.3696 172.812 31.7797C172.517 31.1897 172.369 30.5003 172.369 29.7115C172.369 28.9194 172.517 28.2266 172.812 27.6334C173.107 27.0401 173.521 26.5794 174.055 26.2513C174.588 25.9231 175.213 25.7591 175.929 25.7591C176.645 25.7591 177.269 25.9231 177.803 26.2513C178.337 26.5794 178.751 27.0401 179.046 27.6334C179.341 28.2266 179.488 28.9194 179.488 29.7115C179.488 30.5003 179.341 31.1897 179.046 31.7797C178.751 32.3696 178.337 32.8287 177.803 33.1568C177.269 33.4849 176.645 33.649 175.929 33.649ZM175.934 32.4011C176.398 32.4011 176.782 32.2785 177.087 32.0332C177.392 31.788 177.617 31.4615 177.763 31.0538C177.912 30.6462 177.987 30.1971 177.987 29.7065C177.987 29.2193 177.912 28.7719 177.763 28.3642C177.617 27.9532 177.392 27.6234 177.087 27.3748C176.782 27.1263 176.398 27.002 175.934 27.002C175.466 27.002 175.079 27.1263 174.77 27.3748C174.465 27.6234 174.238 27.9532 174.089 28.3642C173.943 28.7719 173.871 29.2193 173.871 29.7065C173.871 30.1971 173.943 30.6462 174.089 31.0538C174.238 31.4615 174.465 31.788 174.77 32.0332C175.079 32.2785 175.466 32.4011 175.934 32.4011ZM183.37 33.6639C182.886 33.6639 182.449 33.5744 182.058 33.3954C181.666 33.2131 181.357 32.9497 181.128 32.605C180.902 32.2603 180.79 31.8377 180.79 31.3372C180.79 30.9063 180.873 30.5517 181.038 30.2733C181.204 29.9949 181.428 29.7745 181.71 29.6121C181.991 29.4497 182.306 29.327 182.654 29.2442C183.002 29.1613 183.357 29.0983 183.718 29.0552C184.175 29.0022 184.547 28.9591 184.832 28.926C185.117 28.8895 185.324 28.8315 185.453 28.752C185.582 28.6724 185.647 28.5432 185.647 28.3642V28.3294C185.647 27.8952 185.524 27.5588 185.279 27.3202C185.037 27.0815 184.676 26.9622 184.195 26.9622C183.695 26.9622 183.3 27.0732 183.012 27.2953C182.727 27.514 182.53 27.7577 182.42 28.0261L181.023 27.7079C181.189 27.2439 181.431 26.8694 181.749 26.5844C182.071 26.296 182.44 26.0872 182.858 25.9579C183.276 25.8254 183.715 25.7591 184.175 25.7591C184.48 25.7591 184.804 25.7955 185.145 25.8685C185.49 25.9381 185.811 26.0673 186.109 26.2562C186.411 26.4452 186.658 26.7153 186.85 27.0666C187.042 27.4146 187.138 27.867 187.138 28.4239V33.4949H185.687V32.4508H185.627C185.531 32.6431 185.387 32.832 185.195 33.0176C185.002 33.2032 184.755 33.3573 184.454 33.48C184.152 33.6026 183.791 33.6639 183.37 33.6639ZM183.693 32.4707C184.104 32.4707 184.455 32.3895 184.747 32.2271C185.042 32.0647 185.266 31.8526 185.418 31.5908C185.574 31.3256 185.652 31.0422 185.652 30.7406V29.7562C185.599 29.8093 185.496 29.859 185.344 29.9054C185.195 29.9485 185.024 29.9866 184.832 30.0197C184.639 30.0496 184.452 30.0777 184.27 30.1042C184.088 30.1274 183.935 30.1473 183.812 30.1639C183.524 30.2004 183.261 30.2617 183.022 30.3479C182.787 30.434 182.598 30.5583 182.455 30.7207C182.316 30.8798 182.246 31.0919 182.246 31.3571C182.246 31.725 182.382 32.0034 182.654 32.1923C182.926 32.3779 183.272 32.4707 183.693 32.4707ZM191.977 33.644C191.361 33.644 190.81 33.4866 190.327 33.1717C189.846 32.8535 189.468 32.4011 189.193 31.8145C188.921 31.2245 188.785 30.5169 188.785 29.6916C188.785 28.8663 188.923 28.1604 189.198 27.5737C189.476 26.9871 189.858 26.538 190.341 26.2264C190.825 25.9149 191.374 25.7591 191.987 25.7591C192.461 25.7591 192.842 25.8386 193.131 25.9977C193.422 26.1535 193.648 26.3358 193.807 26.5446C193.969 26.7534 194.095 26.9373 194.184 27.0964H194.274V23.3131H195.76V33.4949H194.309V32.3067H194.184C194.095 32.4691 193.966 32.6547 193.797 32.8635C193.631 33.0723 193.402 33.2546 193.111 33.4104C192.819 33.5661 192.441 33.644 191.977 33.644ZM192.305 32.3763C192.733 32.3763 193.094 32.2636 193.389 32.0382C193.687 31.8095 193.913 31.493 194.065 31.0886C194.221 30.6843 194.299 30.2136 194.299 29.6767C194.299 29.1464 194.223 28.6824 194.07 28.2846C193.918 27.8869 193.694 27.577 193.399 27.355C193.104 27.1329 192.739 27.0219 192.305 27.0219C191.858 27.0219 191.485 27.1379 191.187 27.3699C190.888 27.6019 190.663 27.9184 190.51 28.3194C190.361 28.7205 190.287 29.1729 190.287 29.6767C190.287 30.1871 190.363 30.6462 190.515 31.0538C190.668 31.4615 190.893 31.7846 191.192 32.0233C191.493 32.2586 191.864 32.3763 192.305 32.3763ZM205.152 25.8585V27.0517H200.981V25.8585H205.152ZM202.099 24.029H203.586V31.2527C203.586 31.541 203.629 31.7581 203.715 31.904C203.801 32.0465 203.912 32.1443 204.048 32.1973C204.187 32.247 204.338 32.2719 204.501 32.2719C204.62 32.2719 204.724 32.2636 204.814 32.247C204.903 32.2304 204.973 32.2172 205.023 32.2072L205.291 33.4352C205.205 33.4684 205.082 33.5015 204.923 33.5346C204.764 33.5711 204.565 33.591 204.327 33.5943C203.935 33.6009 203.571 33.5313 203.233 33.3855C202.895 33.2397 202.621 33.0143 202.412 32.7094C202.204 32.4044 202.099 32.0216 202.099 31.5609V24.029ZM208.447 28.9608V33.4949H206.96V23.3131H208.427V27.1014H208.521C208.7 26.6904 208.974 26.364 209.342 26.122C209.71 25.8801 210.19 25.7591 210.783 25.7591C211.307 25.7591 211.764 25.8668 212.156 26.0822C212.55 26.2977 212.855 26.6192 213.07 27.0467C213.289 27.471 213.398 28.0013 213.398 28.6376V33.4949H211.912V28.8166C211.912 28.2565 211.768 27.8223 211.479 27.514C211.191 27.2025 210.79 27.0467 210.276 27.0467C209.925 27.0467 209.61 27.1213 209.332 27.2704C209.057 27.4196 208.839 27.6383 208.68 27.9267C208.525 28.2117 208.447 28.5564 208.447 28.9608ZM218.673 33.649C217.921 33.649 217.273 33.4882 216.729 33.1667C216.189 32.8419 215.772 32.3862 215.477 31.7996C215.185 31.2096 215.039 30.5185 215.039 29.7264C215.039 28.9442 215.185 28.2548 215.477 27.6582C215.772 27.0616 216.183 26.596 216.71 26.2612C217.24 25.9265 217.86 25.7591 218.569 25.7591C219 25.7591 219.417 25.8303 219.822 25.9729C220.226 26.1154 220.589 26.3391 220.911 26.644C221.232 26.9489 221.486 27.345 221.671 27.8322C221.857 28.3161 221.95 28.9044 221.95 29.5971V30.1241H215.879V29.0105H220.493C220.493 28.6194 220.413 28.273 220.254 27.9714C220.095 27.6665 219.871 27.4262 219.583 27.2506C219.298 27.0749 218.963 26.9871 218.579 26.9871C218.161 26.9871 217.797 27.0898 217.485 27.2953C217.177 27.4975 216.938 27.7626 216.769 28.0908C216.603 28.4156 216.521 28.7685 216.521 29.1497V30.0197C216.521 30.5301 216.61 30.9643 216.789 31.3223C216.971 31.6802 217.225 31.9537 217.55 32.1426C217.875 32.3282 218.254 32.421 218.688 32.421C218.97 32.421 219.227 32.3812 219.459 32.3017C219.691 32.2188 219.891 32.0962 220.06 31.9338C220.229 31.7714 220.359 31.5709 220.448 31.3322L221.855 31.5858C221.742 32.0001 221.54 32.363 221.249 32.6746C220.96 32.9828 220.597 33.2231 220.16 33.3954C219.726 33.5645 219.23 33.649 218.673 33.649ZM133.222 54.6639C132.738 54.6639 132.3 54.5744 131.909 54.3954C131.518 54.2131 131.208 53.9497 130.979 53.605C130.754 53.2603 130.641 52.8377 130.641 52.3372C130.641 51.9063 130.724 51.5517 130.89 51.2733C131.056 50.9949 131.279 50.7745 131.561 50.6121C131.843 50.4497 132.158 50.327 132.506 50.2442C132.854 50.1613 133.208 50.0983 133.57 50.0552C134.027 50.0022 134.398 49.9591 134.683 49.926C134.968 49.8895 135.175 49.8315 135.305 49.752C135.434 49.6724 135.499 49.5432 135.499 49.3642V49.3294C135.499 48.8952 135.376 48.5588 135.131 48.3202C134.889 48.0815 134.527 47.9622 134.047 47.9622C133.546 47.9622 133.152 48.0732 132.864 48.2953C132.579 48.514 132.381 48.7577 132.272 49.0261L130.875 48.7079C131.041 48.2439 131.283 47.8694 131.601 47.5844C131.922 47.296 132.292 47.0872 132.71 46.9579C133.127 46.8254 133.566 46.7591 134.027 46.7591C134.332 46.7591 134.655 46.7955 134.996 46.8685C135.341 46.9381 135.663 47.0673 135.961 47.2562C136.263 47.4452 136.509 47.7153 136.702 48.0666C136.894 48.4146 136.99 48.867 136.99 49.4239V54.4949H135.538V53.4508H135.479C135.383 53.6431 135.238 53.832 135.046 54.0176C134.854 54.2032 134.607 54.3573 134.305 54.48C134.004 54.6026 133.643 54.6639 133.222 54.6639ZM133.545 53.4707C133.956 53.4707 134.307 53.3895 134.599 53.2271C134.894 53.0647 135.117 52.8526 135.27 52.5908C135.426 52.3256 135.504 52.0422 135.504 51.7406V50.7562C135.451 50.8093 135.348 50.859 135.195 50.9054C135.046 50.9485 134.875 50.9866 134.683 51.0197C134.491 51.0496 134.304 51.0777 134.121 51.1042C133.939 51.1274 133.787 51.1473 133.664 51.1639C133.376 51.2004 133.112 51.2617 132.874 51.3479C132.638 51.434 132.449 51.5583 132.307 51.7207C132.168 51.8798 132.098 52.0919 132.098 52.3571C132.098 52.725 132.234 53.0034 132.506 53.1923C132.777 53.3779 133.124 53.4707 133.545 53.4707ZM140.626 54.4949L138.378 46.8585H139.915L141.411 52.4665H141.486L142.987 46.8585H144.523L146.015 52.4416H146.089L147.576 46.8585H149.112L146.87 54.4949H145.354L143.802 48.9814H143.688L142.137 54.4949H140.626ZM152.745 54.6639C152.261 54.6639 151.824 54.5744 151.433 54.3954C151.041 54.2131 150.732 53.9497 150.503 53.605C150.277 53.2603 150.165 52.8377 150.165 52.3372C150.165 51.9063 150.248 51.5517 150.413 51.2733C150.579 50.9949 150.803 50.7745 151.085 50.6121C151.366 50.4497 151.681 50.327 152.029 50.2442C152.377 50.1613 152.732 50.0983 153.093 50.0552C153.55 50.0022 153.922 49.9591 154.207 49.926C154.492 49.8895 154.699 49.8315 154.828 49.752C154.957 49.6724 155.022 49.5432 155.022 49.3642V49.3294C155.022 48.8952 154.899 48.5588 154.654 48.3202C154.412 48.0815 154.051 47.9622 153.57 47.9622C153.07 47.9622 152.675 48.0732 152.387 48.2953C152.102 48.514 151.905 48.7577 151.795 49.0261L150.398 48.7079C150.564 48.2439 150.806 47.8694 151.124 47.5844C151.446 47.296 151.815 47.0872 152.233 46.9579C152.651 46.8254 153.09 46.7591 153.55 46.7591C153.855 46.7591 154.179 46.7955 154.52 46.8685C154.865 46.9381 155.186 47.0673 155.484 47.2562C155.786 47.4452 156.033 47.7153 156.225 48.0666C156.417 48.4146 156.513 48.867 156.513 49.4239V54.4949H155.062V53.4508H155.002C154.906 53.6431 154.762 53.832 154.57 54.0176C154.377 54.2032 154.13 54.3573 153.829 54.48C153.527 54.6026 153.166 54.6639 152.745 54.6639ZM153.068 53.4707C153.479 53.4707 153.83 53.3895 154.122 53.2271C154.417 53.0647 154.641 52.8526 154.793 52.5908C154.949 52.3256 155.027 52.0422 155.027 51.7406V50.7562C154.974 50.8093 154.871 50.859 154.719 50.9054C154.57 50.9485 154.399 50.9866 154.207 51.0197C154.014 51.0496 153.827 51.0777 153.645 51.1042C153.463 51.1274 153.31 51.1473 153.188 51.1639C152.899 51.2004 152.636 51.2617 152.397 51.3479C152.162 51.434 151.973 51.5583 151.83 51.7207C151.691 51.8798 151.621 52.0919 151.621 52.3571C151.621 52.725 151.757 53.0034 152.029 53.1923C152.301 53.3779 152.647 53.4707 153.068 53.4707ZM158.493 54.4949V46.8585H159.93V48.0716H160.01C160.149 47.6606 160.394 47.3374 160.746 47.1021C161.1 46.8635 161.501 46.7442 161.949 46.7442C162.041 46.7442 162.151 46.7475 162.277 46.7541C162.406 46.7607 162.507 46.769 162.58 46.779V48.2008C162.52 48.1843 162.414 48.166 162.262 48.1462C162.109 48.123 161.957 48.1113 161.805 48.1113C161.453 48.1113 161.14 48.1859 160.865 48.3351C160.593 48.4809 160.378 48.6847 160.219 48.9466C160.059 49.2051 159.98 49.5001 159.98 49.8315V54.4949H158.493ZM166.452 54.644C165.835 54.644 165.285 54.4866 164.801 54.1717C164.321 53.8535 163.943 53.4011 163.668 52.8145C163.396 52.2245 163.26 51.5169 163.26 50.6916C163.26 49.8663 163.397 49.1604 163.673 48.5737C163.951 47.9871 164.332 47.538 164.816 47.2264C165.3 46.9149 165.848 46.7591 166.462 46.7591C166.936 46.7591 167.317 46.8386 167.605 46.9977C167.897 47.1535 168.122 47.3358 168.281 47.5446C168.444 47.7534 168.57 47.9373 168.659 48.0964H168.749V44.3131H170.235V54.4949H168.783V53.3067H168.659C168.57 53.4691 168.44 53.6547 168.271 53.8635C168.106 54.0723 167.877 54.2546 167.585 54.4104C167.294 54.5661 166.916 54.644 166.452 54.644ZM166.78 53.3763C167.207 53.3763 167.569 53.2636 167.864 53.0382C168.162 52.8095 168.387 52.493 168.54 52.0886C168.696 51.6843 168.773 51.2136 168.773 50.6767C168.773 50.1464 168.697 49.6824 168.545 49.2846C168.392 48.8869 168.169 48.577 167.874 48.355C167.579 48.1329 167.214 48.0219 166.78 48.0219C166.332 48.0219 165.96 48.1379 165.661 48.3699C165.363 48.6019 165.138 48.9184 164.985 49.3194C164.836 49.7205 164.761 50.1729 164.761 50.6767C164.761 51.1871 164.838 51.6462 164.99 52.0538C165.143 52.4615 165.368 52.7846 165.666 53.0233C165.968 53.2586 166.339 53.3763 166.78 53.3763ZM176.856 49.5481V50.8358H172.342V49.5481H176.856ZM180.493 54.4949L178.246 46.8585H179.782L181.278 52.4665H181.353L182.854 46.8585H184.39L185.882 52.4416H185.956L187.443 46.8585H188.979L186.737 54.4949H185.221L183.67 48.9814H183.555L182.004 54.4949H180.493ZM190.39 54.4949V46.8585H191.876V54.4949H190.39ZM191.141 45.6802C190.882 45.6802 190.66 45.5941 190.474 45.4217C190.292 45.2461 190.201 45.0372 190.201 44.7953C190.201 44.55 190.292 44.3412 190.474 44.1689C190.66 43.9932 190.882 43.9054 191.141 43.9054C191.399 43.9054 191.62 43.9932 191.802 44.1689C191.987 44.3412 192.08 44.55 192.08 44.7953C192.08 45.0372 191.987 45.2461 191.802 45.4217C191.62 45.5941 191.399 45.6802 191.141 45.6802ZM195.363 49.9608V54.4949H193.876V46.8585H195.303V48.1014H195.398C195.573 47.6971 195.848 47.3722 196.223 47.127C196.601 46.8817 197.076 46.7591 197.65 46.7591C198.17 46.7591 198.626 46.8685 199.017 47.0872C199.408 47.3026 199.711 47.6241 199.927 48.0517C200.142 48.4792 200.25 49.0079 200.25 49.6376V54.4949H198.763V49.8166C198.763 49.2631 198.619 48.8306 198.331 48.519C198.042 48.2042 197.646 48.0467 197.143 48.0467C196.798 48.0467 196.491 48.1213 196.223 48.2704C195.958 48.4196 195.747 48.6383 195.591 48.9267C195.439 49.2117 195.363 49.5564 195.363 49.9608ZM203.73 49.9608V54.4949H202.243V46.8585H203.67V48.1014H203.765C203.94 47.6971 204.215 47.3722 204.59 47.127C204.968 46.8817 205.443 46.7591 206.017 46.7591C206.537 46.7591 206.993 46.8685 207.384 47.0872C207.775 47.3026 208.078 47.6241 208.294 48.0517C208.509 48.4792 208.617 49.0079 208.617 49.6376V54.4949H207.131V49.8166C207.131 49.2631 206.986 48.8306 206.698 48.519C206.41 48.2042 206.014 48.0467 205.51 48.0467C205.165 48.0467 204.858 48.1213 204.59 48.2704C204.325 48.4196 204.114 48.6383 203.959 48.9267C203.806 49.2117 203.73 49.5564 203.73 49.9608ZM210.611 54.4949V46.8585H212.097V54.4949H210.611ZM211.361 45.6802C211.103 45.6802 210.881 45.5941 210.695 45.4217C210.513 45.2461 210.422 45.0372 210.422 44.7953C210.422 44.55 210.513 44.3412 210.695 44.1689C210.881 43.9932 211.103 43.9054 211.361 43.9054C211.62 43.9054 211.84 43.9932 212.023 44.1689C212.208 44.3412 212.301 44.55 212.301 44.7953C212.301 45.0372 212.208 45.2461 212.023 45.4217C211.84 45.5941 211.62 45.6802 211.361 45.6802ZM215.583 49.9608V54.4949H214.097V46.8585H215.524V48.1014H215.618C215.794 47.6971 216.069 47.3722 216.444 47.127C216.821 46.8817 217.297 46.7591 217.87 46.7591C218.391 46.7591 218.846 46.8685 219.238 47.0872C219.629 47.3026 219.932 47.6241 220.147 48.0517C220.363 48.4792 220.471 49.0079 220.471 49.6376V54.4949H218.984V49.8166C218.984 49.2631 218.84 48.8306 218.551 48.519C218.263 48.2042 217.867 48.0467 217.363 48.0467C217.019 48.0467 216.712 48.1213 216.444 48.2704C216.178 48.4196 215.968 48.6383 215.812 48.9267C215.66 49.2117 215.583 49.5564 215.583 49.9608ZM225.666 57.5176C225.059 57.5176 224.537 57.4381 224.1 57.279C223.666 57.1199 223.311 56.9094 223.036 56.6476C222.761 56.3857 222.555 56.099 222.419 55.7875L223.697 55.2605C223.787 55.4063 223.906 55.5605 224.055 55.7229C224.208 55.8886 224.413 56.0294 224.672 56.1454C224.933 56.2614 225.27 56.3194 225.681 56.3194C226.244 56.3194 226.71 56.1819 227.078 55.9068C227.446 55.635 227.63 55.2008 227.63 54.6042V53.1028H227.535C227.446 53.2652 227.316 53.4459 227.147 53.6447C226.982 53.8436 226.753 54.0159 226.461 54.1618C226.17 54.3076 225.79 54.3805 225.323 54.3805C224.72 54.3805 224.176 54.2397 223.692 53.9579C223.212 53.6729 222.83 53.2536 222.549 52.7001C222.27 52.1433 222.131 51.4589 222.131 50.6469C222.131 49.8348 222.269 49.1388 222.544 48.5588C222.822 47.9788 223.203 47.5346 223.687 47.2264C224.171 46.9149 224.72 46.7591 225.333 46.7591C225.807 46.7591 226.19 46.8386 226.481 46.9977C226.773 47.1535 227 47.3358 227.162 47.5446C227.328 47.7534 227.456 47.9373 227.545 48.0964H227.654V46.8585H229.111V54.6639C229.111 55.3202 228.959 55.8587 228.654 56.2797C228.349 56.7006 227.936 57.0122 227.416 57.2143C226.899 57.4165 226.315 57.5176 225.666 57.5176ZM225.651 53.1476C226.078 53.1476 226.44 53.0481 226.735 52.8493C227.033 52.6471 227.258 52.3587 227.411 51.9842C227.567 51.6064 227.645 51.154 227.645 50.627C227.645 50.1132 227.568 49.6608 227.416 49.2697C227.263 48.8786 227.04 48.5737 226.745 48.355C226.45 48.1329 226.085 48.0219 225.651 48.0219C225.203 48.0219 224.831 48.1379 224.532 48.3699C224.234 48.5986 224.009 48.9101 223.856 49.3045C223.707 49.6989 223.632 50.1398 223.632 50.627C223.632 51.1274 223.709 51.5666 223.861 51.9444C224.014 52.3223 224.239 52.6173 224.537 52.8294C224.839 53.0415 225.21 53.1476 225.651 53.1476ZM235.789 54.4949H234.159L237.823 44.3131H239.597L243.262 54.4949H241.631L238.752 46.1625H238.673L235.789 54.4949ZM236.063 50.5077H241.352V51.8003H236.063V50.5077ZM244.613 57.3585V46.8585H246.064V48.0964H246.189C246.275 47.9373 246.399 47.7534 246.561 47.5446C246.724 47.3358 246.949 47.1535 247.238 46.9977C247.526 46.8386 247.907 46.7591 248.381 46.7591C248.998 46.7591 249.548 46.9149 250.032 47.2264C250.516 47.538 250.895 47.9871 251.17 48.5737C251.449 49.1604 251.588 49.8663 251.588 50.6916C251.588 51.5169 251.45 52.2245 251.175 52.8145C250.9 53.4011 250.522 53.8535 250.042 54.1717C249.561 54.4866 249.012 54.644 248.396 54.644C247.932 54.644 247.552 54.5661 247.257 54.4104C246.966 54.2546 246.737 54.0723 246.571 53.8635C246.406 53.6547 246.278 53.4691 246.189 53.3067H246.099V57.3585H244.613ZM246.069 50.6767C246.069 51.2136 246.147 51.6843 246.303 52.0886C246.459 52.493 246.684 52.8095 246.979 53.0382C247.274 53.2636 247.635 53.3763 248.063 53.3763C248.507 53.3763 248.878 53.2586 249.176 53.0233C249.475 52.7846 249.7 52.4615 249.853 52.0538C250.008 51.6462 250.086 51.1871 250.086 50.6767C250.086 50.1729 250.01 49.7205 249.858 49.3194C249.708 48.9184 249.483 48.6019 249.181 48.3699C248.883 48.1379 248.51 48.0219 248.063 48.0219C247.632 48.0219 247.267 48.1329 246.969 48.355C246.674 48.577 246.45 48.8869 246.298 49.2846C246.145 49.6824 246.069 50.1464 246.069 50.6767ZM253.253 57.3585V46.8585H254.705V48.0964H254.829C254.915 47.9373 255.04 47.7534 255.202 47.5446C255.364 47.3358 255.59 47.1535 255.878 46.9977C256.167 46.8386 256.548 46.7591 257.022 46.7591C257.638 46.7591 258.188 46.9149 258.672 47.2264C259.156 47.538 259.536 47.9871 259.811 48.5737C260.089 49.1604 260.228 49.8663 260.228 50.6916C260.228 51.5169 260.091 52.2245 259.816 52.8145C259.541 53.4011 259.163 53.8535 258.682 54.1717C258.202 54.4866 257.653 54.644 257.037 54.644C256.573 54.644 256.193 54.5661 255.898 54.4104C255.606 54.2546 255.378 54.0723 255.212 53.8635C255.046 53.6547 254.919 53.4691 254.829 53.3067H254.74V57.3585H253.253ZM254.71 50.6767C254.71 51.2136 254.788 51.6843 254.944 52.0886C255.099 52.493 255.325 52.8095 255.62 53.0382C255.915 53.2636 256.276 53.3763 256.703 53.3763C257.148 53.3763 257.519 53.2586 257.817 53.0233C258.115 52.7846 258.341 52.4615 258.493 52.0538C258.649 51.6462 258.727 51.1871 258.727 50.6767C258.727 50.1729 258.651 49.7205 258.498 49.3194C258.349 48.9184 258.124 48.6019 257.822 48.3699C257.524 48.1379 257.151 48.0219 256.703 48.0219C256.273 48.0219 255.908 48.1329 255.61 48.355C255.315 48.577 255.091 48.8869 254.939 49.2846C254.786 49.6824 254.71 50.1464 254.71 50.6767ZM267.254 54.4949L265.007 46.8585H266.544L268.04 52.4665H268.115L269.616 46.8585H271.152L272.644 52.4416H272.718L274.205 46.8585H275.741L273.499 54.4949H271.982L270.431 48.9814H270.317L268.766 54.4949H267.254ZM277.152 54.4949V46.8585H278.638V54.4949H277.152ZM277.902 45.6802C277.644 45.6802 277.422 45.5941 277.236 45.4217C277.054 45.2461 276.963 45.0372 276.963 44.7953C276.963 44.55 277.054 44.3412 277.236 44.1689C277.422 43.9932 277.644 43.9054 277.902 43.9054C278.161 43.9054 278.381 43.9932 278.564 44.1689C278.749 44.3412 278.842 44.55 278.842 44.7953C278.842 45.0372 278.749 45.2461 278.564 45.4217C278.381 45.5941 278.161 45.6802 277.902 45.6802ZM284.203 46.8585V48.0517H280.031V46.8585H284.203ZM281.15 45.029H282.637V52.2527C282.637 52.541 282.68 52.7581 282.766 52.904C282.852 53.0465 282.963 53.1443 283.099 53.1973C283.238 53.247 283.389 53.2719 283.551 53.2719C283.671 53.2719 283.775 53.2636 283.865 53.247C283.954 53.2304 284.024 53.2172 284.073 53.2072L284.342 54.4352C284.256 54.4684 284.133 54.5015 283.974 54.5346C283.815 54.5711 283.616 54.591 283.377 54.5943C282.986 54.6009 282.622 54.5313 282.284 54.3855C281.945 54.2397 281.672 54.0143 281.463 53.7094C281.254 53.4044 281.15 53.0216 281.15 52.5609V45.029ZM287.498 49.9608V54.4949H286.011V44.3131H287.478V48.1014H287.572C287.751 47.6904 288.025 47.364 288.392 47.122C288.76 46.8801 289.241 46.7591 289.834 46.7591C290.358 46.7591 290.815 46.8668 291.206 47.0822C291.601 47.2977 291.906 47.6192 292.121 48.0467C292.34 48.471 292.449 49.0013 292.449 49.6376V54.4949H290.963V49.8166C290.963 49.2565 290.819 48.8223 290.53 48.514C290.242 48.2025 289.841 48.0467 289.327 48.0467C288.976 48.0467 288.661 48.1213 288.382 48.2704C288.107 48.4196 287.89 48.6383 287.731 48.9267C287.575 49.2117 287.498 49.5564 287.498 49.9608ZM131.119 65.3131H132.983L136.224 73.2278H136.344L139.585 65.3131H141.45V75.4949H139.988V68.127H139.893L136.891 75.48H135.678L132.675 68.122H132.58V75.4949H131.119V65.3131ZM143.181 66.6355V65.3131H151.061V66.6355H147.884V75.4949H146.353V66.6355H143.181ZM151.492 73.5062V72.2633L155.892 65.3131H156.871V67.1426H156.25L153.103 72.1241V72.2037H159.134V73.5062H151.492ZM156.32 75.4949V73.1284L156.33 72.5616V65.3131H157.786V75.4949H156.32ZM164.764 64.8358L161.483 77.0261H160.155L163.436 64.8358H164.764ZM166.146 65.3131H168.01L171.252 73.2278H171.371L174.613 65.3131H176.477V75.4949H175.015V68.127H174.921L171.918 75.48H170.705L167.702 68.122H167.608V75.4949H166.146V65.3131ZM178.208 66.6355V65.3131H186.088V66.6355H182.911V75.4949H181.38V66.6355H178.208ZM191.051 75.6341C190.428 75.6341 189.868 75.5148 189.371 75.2761C188.877 75.0342 188.482 74.7027 188.188 74.2818C187.893 73.8609 187.735 73.3803 187.715 72.84H189.207C189.243 73.2775 189.437 73.6372 189.788 73.9189C190.14 74.2006 190.561 74.3415 191.051 74.3415C191.442 74.3415 191.789 74.252 192.09 74.073C192.395 73.8907 192.634 73.6405 192.806 73.3223C192.982 73.0041 193.07 72.6412 193.07 72.2335C193.07 71.8192 192.98 71.4497 192.801 71.1248C192.622 70.8 192.375 70.5448 192.06 70.3592C191.749 70.1736 191.391 70.0792 190.987 70.0758C190.678 70.0758 190.368 70.1289 190.057 70.2349C189.745 70.341 189.493 70.4802 189.301 70.6525L187.894 70.4437L188.466 65.3131H194.064V66.6305H189.744L189.42 69.4792H189.48C189.679 69.287 189.942 69.1263 190.271 68.997C190.602 68.8677 190.957 68.8031 191.335 68.8031C191.954 68.8031 192.506 68.9506 192.99 69.2456C193.477 69.5406 193.86 69.9433 194.138 70.4537C194.42 70.9608 194.559 71.5441 194.556 72.2037C194.559 72.8632 194.41 73.4515 194.109 73.9686C193.81 74.4856 193.396 74.8933 192.866 75.1916C192.339 75.4866 191.734 75.6341 191.051 75.6341ZM200.097 75.4949V67.8585H201.583V75.4949H200.097ZM200.848 66.6802C200.589 66.6802 200.367 66.5941 200.181 66.4217C199.999 66.2461 199.908 66.0372 199.908 65.7953C199.908 65.55 199.999 65.3412 200.181 65.1689C200.367 64.9932 200.589 64.9054 200.848 64.9054C201.106 64.9054 201.327 64.9932 201.509 65.1689C201.694 65.3412 201.787 65.55 201.787 65.7953C201.787 66.0372 201.694 66.2461 201.509 66.4217C201.327 66.5941 201.106 66.6802 200.848 66.6802ZM205.07 70.9608V75.4949H203.583V67.8585H205.01V69.1014H205.105C205.28 68.6971 205.555 68.3722 205.93 68.127C206.308 67.8817 206.783 67.7591 207.357 67.7591C207.877 67.7591 208.333 67.8685 208.724 68.0872C209.115 68.3026 209.418 68.6241 209.634 69.0517C209.849 69.4792 209.957 70.0079 209.957 70.6376V75.4949H208.47V70.8166C208.47 70.2631 208.326 69.8306 208.038 69.519C207.749 69.2042 207.353 69.0467 206.85 69.0467C206.505 69.0467 206.198 69.1213 205.93 69.2704C205.665 69.4196 205.454 69.6383 205.298 69.9267C205.146 70.2117 205.07 70.5564 205.07 70.9608ZM215.167 75.649C214.428 75.649 213.792 75.4816 213.258 75.1469C212.728 74.8088 212.32 74.3431 212.035 73.7498C211.75 73.1566 211.607 72.4771 211.607 71.7115C211.607 70.9359 211.753 70.2515 212.045 69.6582C212.337 69.0616 212.748 68.596 213.278 68.2612C213.808 67.9265 214.433 67.7591 215.152 67.7591C215.732 67.7591 216.249 67.8668 216.703 68.0822C217.157 68.2944 217.524 68.5926 217.802 68.9771C218.084 69.3616 218.251 69.8107 218.304 70.3244H216.857C216.778 69.9665 216.596 69.6582 216.311 69.3997C216.029 69.1412 215.651 69.0119 215.177 69.0119C214.763 69.0119 214.4 69.1213 214.088 69.34C213.78 69.5555 213.54 69.8637 213.367 70.2648C213.195 70.6625 213.109 71.1331 213.109 71.6767C213.109 72.2335 213.193 72.7141 213.362 73.1185C213.531 73.5228 213.77 73.836 214.078 74.0581C214.39 74.2801 214.756 74.3912 215.177 74.3912C215.459 74.3912 215.714 74.3398 215.943 74.2371C216.175 74.131 216.369 73.9802 216.524 73.7846C216.683 73.5891 216.794 73.3538 216.857 73.0787H218.304C218.251 73.5725 218.09 74.0133 217.822 74.4011C217.553 74.7889 217.194 75.0938 216.743 75.3159C216.296 75.538 215.77 75.649 215.167 75.649ZM221.38 65.3131V75.4949H219.894V65.3131H221.38ZM228.218 72.328V67.8585H229.709V75.4949H228.247V74.1724H228.168C227.992 74.5801 227.71 74.9198 227.323 75.1916C226.938 75.4601 226.459 75.5943 225.886 75.5943C225.395 75.5943 224.961 75.4866 224.583 75.2712C224.209 75.0524 223.914 74.7292 223.698 74.3017C223.486 73.8741 223.38 73.3455 223.38 72.7158V67.8585H224.867V72.5368C224.867 73.0571 225.011 73.4714 225.299 73.7797C225.588 74.0879 225.962 74.242 226.423 74.242C226.701 74.242 226.978 74.1724 227.253 74.0332C227.531 73.894 227.762 73.6836 227.944 73.4018C228.13 73.1201 228.221 72.7622 228.218 72.328ZM234.565 75.644C233.949 75.644 233.398 75.4866 232.914 75.1717C232.434 74.8535 232.056 74.4011 231.781 73.8145C231.509 73.2245 231.373 72.5169 231.373 71.6916C231.373 70.8663 231.511 70.1604 231.786 69.5737C232.064 68.9871 232.445 68.538 232.929 68.2264C233.413 67.9149 233.962 67.7591 234.575 67.7591C235.049 67.7591 235.43 67.8386 235.718 67.9977C236.01 68.1535 236.235 68.3358 236.395 68.5446C236.557 68.7534 236.683 68.9373 236.772 69.0964H236.862V65.3131H238.348V75.4949H236.897V74.3067H236.772C236.683 74.4691 236.554 74.6547 236.385 74.8635C236.219 75.0723 235.99 75.2546 235.699 75.4104C235.407 75.5661 235.029 75.644 234.565 75.644ZM234.893 74.3763C235.321 74.3763 235.682 74.2636 235.977 74.0382C236.275 73.8095 236.501 73.493 236.653 73.0886C236.809 72.6843 236.887 72.2136 236.887 71.6767C236.887 71.1464 236.81 70.6824 236.658 70.2846C236.506 69.8869 236.282 69.577 235.987 69.355C235.692 69.1329 235.327 69.0219 234.893 69.0219C234.446 69.0219 234.073 69.1379 233.775 69.3699C233.476 69.6019 233.251 69.9184 233.098 70.3194C232.949 70.7205 232.875 71.1729 232.875 71.6767C232.875 72.1871 232.951 72.6462 233.103 73.0538C233.256 73.4615 233.481 73.7846 233.779 74.0233C234.081 74.2586 234.452 74.3763 234.893 74.3763ZM243.761 75.649C243.009 75.649 242.361 75.4882 241.817 75.1667C241.277 74.8419 240.859 74.3862 240.564 73.7996C240.273 73.2096 240.127 72.5185 240.127 71.7264C240.127 70.9442 240.273 70.2548 240.564 69.6582C240.859 69.0616 241.27 68.596 241.797 68.2612C242.328 67.9265 242.948 67.7591 243.657 67.7591C244.088 67.7591 244.505 67.8303 244.91 67.9729C245.314 68.1154 245.677 68.3391 245.998 68.644C246.32 68.9489 246.573 69.345 246.759 69.8322C246.945 70.3161 247.037 70.9044 247.037 71.5971V72.1241H240.967V71.0105H245.581C245.581 70.6194 245.501 70.273 245.342 69.9714C245.183 69.6665 244.959 69.4262 244.671 69.2506C244.386 69.0749 244.051 68.9871 243.667 68.9871C243.249 68.9871 242.885 69.0898 242.573 69.2953C242.265 69.4975 242.026 69.7626 241.857 70.0908C241.691 70.4156 241.608 70.7685 241.608 71.1497V72.0197C241.608 72.5301 241.698 72.9643 241.877 73.3223C242.059 73.6802 242.313 73.9537 242.638 74.1426C242.962 74.3282 243.342 74.421 243.776 74.421C244.058 74.421 244.315 74.3812 244.547 74.3017C244.779 74.2188 244.979 74.0962 245.148 73.9338C245.317 73.7714 245.447 73.5709 245.536 73.3322L246.943 73.5858C246.83 74.0001 246.628 74.363 246.336 74.6746C246.048 74.9828 245.685 75.2231 245.248 75.3954C244.814 75.5645 244.318 75.649 243.761 75.649ZM251.545 75.644C250.929 75.644 250.379 75.4866 249.895 75.1717C249.414 74.8535 249.036 74.4011 248.761 73.8145C248.49 73.2245 248.354 72.5169 248.354 71.6916C248.354 70.8663 248.491 70.1604 248.766 69.5737C249.045 68.9871 249.426 68.538 249.91 68.2264C250.394 67.9149 250.942 67.7591 251.555 67.7591C252.029 67.7591 252.411 67.8386 252.699 67.9977C252.991 68.1535 253.216 68.3358 253.375 68.5446C253.537 68.7534 253.663 68.9373 253.753 69.0964H253.842V65.3131H255.329V75.4949H253.877V74.3067H253.753C253.663 74.4691 253.534 74.6547 253.365 74.8635C253.199 75.0723 252.971 75.2546 252.679 75.4104C252.387 75.5661 252.009 75.644 251.545 75.644ZM251.874 74.3763C252.301 74.3763 252.662 74.2636 252.957 74.0382C253.256 73.8095 253.481 73.493 253.634 73.0886C253.789 72.6843 253.867 72.2136 253.867 71.6767C253.867 71.1464 253.791 70.6824 253.638 70.2846C253.486 69.8869 253.262 69.577 252.967 69.355C252.672 69.1329 252.308 69.0219 251.874 69.0219C251.426 69.0219 251.053 69.1379 250.755 69.3699C250.457 69.6019 250.231 69.9184 250.079 70.3194C249.93 70.7205 249.855 71.1729 249.855 71.6767C249.855 72.1871 249.931 72.6462 250.084 73.0538C250.236 73.4615 250.462 73.7846 250.76 74.0233C251.062 74.2586 251.433 74.3763 251.874 74.3763ZM258.43 75.5893C258.158 75.5893 257.924 75.4932 257.729 75.301C257.533 75.1054 257.436 74.8701 257.436 74.595C257.436 74.3232 257.533 74.0912 257.729 73.899C257.924 73.7034 258.158 73.6057 258.43 73.6057C258.702 73.6057 258.935 73.7034 259.131 73.899C259.326 74.0912 259.424 74.3232 259.424 74.595C259.424 74.7773 259.378 74.9447 259.285 75.0971C259.195 75.2463 259.076 75.3656 258.927 75.4551C258.778 75.5446 258.612 75.5893 258.43 75.5893Z" fill="#1D2B3F"/>
<path d="M3.44828 0H0V3.44828H3.44828V0Z" fill="#1D2B3F"/>
<path d="M6.89655 0H3.44828V3.44828H6.89655V0Z" fill="#1D2B3F"/>
<path d="M10.3448 0H6.89655V3.44828H10.3448V0Z" fill="#1D2B3F"/>
<path d="M13.7931 0H10.3448V3.44828H13.7931V0Z" fill="#1D2B3F"/>
<path d="M17.2414 0H13.7931V3.44828H17.2414V0Z" fill="#1D2B3F"/>
<path d="M20.6897 0H17.2414V3.44828H20.6897V0Z" fill="#1D2B3F"/>
<path d="M24.1379 0H20.6897V3.44828H24.1379V0Z" fill="#1D2B3F"/>
<path d="M31.0345 0H27.5862V3.44828H31.0345V0Z" fill="#1D2B3F"/>
<path d="M34.4828 0H31.0345V3.44828H34.4828V0Z" fill="#1D2B3F"/>
<path d="M62.069 0H58.6207V3.44828H62.069V0Z" fill="#1D2B3F"/>
<path d="M65.5172 0H62.069V3.44828H65.5172V0Z" fill="#1D2B3F"/>
<path d="M68.9655 0H65.5172V3.44828H68.9655V0Z" fill="#1D2B3F"/>
<path d="M72.4138 0H68.9655V3.44828H72.4138V0Z" fill="#1D2B3F"/>
<path d="M79.3103 0H75.8621V3.44828H79.3103V0Z" fill="#1D2B3F"/>
<path d="M82.7586 0H79.3103V3.44828H82.7586V0Z" fill="#1D2B3F"/>
<path d="M86.2069 0H82.7586V3.44828H86.2069V0Z" fill="#1D2B3F"/>
<path d="M89.6552 0H86.2069V3.44828H89.6552V0Z" fill="#1D2B3F"/>
<path d="M93.1034 0H89.6552V3.44828H93.1034V0Z" fill="#1D2B3F"/>
<path d="M96.5517 0H93.1034V3.44828H96.5517V0Z" fill="#1D2B3F"/>
<path d="M100 0H96.5517V3.44828H100V0Z" fill="#1D2B3F"/>
<path d="M3.44828 3.44828H0V6.89655H3.44828V3.44828Z" fill="#1D2B3F"/>
<path d="M24.1379 3.44828H20.6897V6.89655H24.1379V3.44828Z" fill="#1D2B3F"/>
<path d="M34.4828 3.44828H31.0345V6.89655H34.4828V3.44828Z" fill="#1D2B3F"/>
<path d="M41.3793 3.44828H37.931V6.89655H41.3793V3.44828Z" fill="#1D2B3F"/>
<path d="M44.8276 3.44828H41.3793V6.89655H44.8276V3.44828Z" fill="#1D2B3F"/>
<path d="M51.7241 3.44828H48.2759V6.89655H51.7241V3.44828Z" fill="#1D2B3F"/>
<path d="M58.6207 3.44828H55.1724V6.89655H58.6207V3.44828Z" fill="#1D2B3F"/>
<path d="M79.3103 3.44828H75.8621V6.89655H79.3103V3.44828Z" fill="#1D2B3F"/>
<path d="M100 3.44828H96.5517V6.89655H100V3.44828Z" fill="#1D2B3F"/>
<path d="M3.44828 6.89655H0V10.3448H3.44828V6.89655Z" fill="#1D2B3F"/>
<path d="M10.3448 6.89655H6.89655V10.3448H10.3448V6.89655Z" fill="#1D2B3F"/>
<path d="M13.7931 6.89655H10.3448V10.3448H13.7931V6.89655Z" fill="#1D2B3F"/>
<path d="M17.2414 6.89655H13.7931V10.3448H17.2414V6.89655Z" fill="#1D2B3F"/>
<path d="M24.1379 6.89655H20.6897V10.3448H24.1379V6.89655Z" fill="#1D2B3F"/>
<path d="M31.0345 6.89655H27.5862V10.3448H31.0345V6.89655Z" fill="#1D2B3F"/>
<path d="M44.8276 6.89655H41.3793V10.3448H44.8276V6.89655Z" fill="#1D2B3F"/>
<path d="M48.2759 6.89655H44.8276V10.3448H48.2759V6.89655Z" fill="#1D2B3F"/>
<path d="M58.6207 6.89655H55.1724V10.3448H58.6207V6.89655Z" fill="#1D2B3F"/>
<path d="M72.4138 6.89655H68.9655V10.3448H72.4138V6.89655Z" fill="#1D2B3F"/>
<path d="M79.3103 6.89655H75.8621V10.3448H79.3103V6.89655Z" fill="#1D2B3F"/>
<path d="M86.2069 6.89655H82.7586V10.3448H86.2069V6.89655Z" fill="#1D2B3F"/>
<path d="M89.6552 6.89655H86.2069V10.3448H89.6552V6.89655Z" fill="#1D2B3F"/>
<path d="M93.1034 6.89655H89.6552V10.3448H93.1034V6.89655Z" fill="#1D2B3F"/>
<path d="M100 6.89655H96.5517V10.3448H100V6.89655Z" fill="#1D2B3F"/>
<path d="M3.44828 10.3448H0V13.7931H3.44828V10.3448Z" fill="#1D2B3F"/>
<path d="M10.3448 10.3448H6.89655V13.7931H10.3448V10.3448Z" fill="#1D2B3F"/>
<path d="M13.7931 10.3448H10.3448V13.7931H13.7931V10.3448Z" fill="#1D2B3F"/>
<path d="M17.2414 10.3448H13.7931V13.7931H17.2414V10.3448Z" fill="#1D2B3F"/>
<path d="M24.1379 10.3448H20.6897V13.7931H24.1379V10.3448Z" fill="#1D2B3F"/>
<path d="M31.0345 10.3448H27.5862V13.7931H31.0345V10.3448Z" fill="#1D2B3F"/>
<path d="M37.931 10.3448H34.4828V13.7931H37.931V10.3448Z" fill="#1D2B3F"/>
<path d="M41.3793 10.3448H37.931V13.7931H41.3793V10.3448Z" fill="#1D2B3F"/>
<path d="M48.2759 10.3448H44.8276V13.7931H48.2759V10.3448Z" fill="#1D2B3F"/>
<path d="M55.1724 10.3448H51.7241V13.7931H55.1724V10.3448Z" fill="#1D2B3F"/>
<path d="M62.069 10.3448H58.6207V13.7931H62.069V10.3448Z" fill="#1D2B3F"/>
<path d="M72.4138 10.3448H68.9655V13.7931H72.4138V10.3448Z" fill="#1D2B3F"/>
<path d="M79.3103 10.3448H75.8621V13.7931H79.3103V10.3448Z" fill="#1D2B3F"/>
<path d="M86.2069 10.3448H82.7586V13.7931H86.2069V10.3448Z" fill="#1D2B3F"/>
<path d="M89.6552 10.3448H86.2069V13.7931H89.6552V10.3448Z" fill="#1D2B3F"/>
<path d="M93.1034 10.3448H89.6552V13.7931H93.1034V10.3448Z" fill="#1D2B3F"/>
<path d="M100 10.3448H96.5517V13.7931H100V10.3448Z" fill="#1D2B3F"/>
<path d="M3.44828 13.7931H0V17.2414H3.44828V13.7931Z" fill="#1D2B3F"/>
<path d="M10.3448 13.7931H6.89655V17.2414H10.3448V13.7931Z" fill="#1D2B3F"/>
<path d="M13.7931 13.7931H10.3448V17.2414H13.7931V13.7931Z" fill="#1D2B3F"/>
<path d="M17.2414 13.7931H13.7931V17.2414H17.2414V13.7931Z" fill="#1D2B3F"/>
<path d="M24.1379 13.7931H20.6897V17.2414H24.1379V13.7931Z" fill="#1D2B3F"/>
<path d="M31.0345 13.7931H27.5862V17.2414H31.0345V13.7931Z" fill="#1D2B3F"/>
<path d="M34.4828 13.7931H31.0345V17.2414H34.4828V13.7931Z" fill="#1D2B3F"/>
<path d="M44.8276 13.7931H41.3793V17.2414H44.8276V13.7931Z" fill="#1D2B3F"/>
<path d="M51.7241 13.7931H48.2759V17.2414H51.7241V13.7931Z" fill="#1D2B3F"/>
<path d="M62.069 13.7931H58.6207V17.2414H62.069V13.7931Z" fill="#1D2B3F"/>
<path d="M65.5172 13.7931H62.069V17.2414H65.5172V13.7931Z" fill="#1D2B3F"/>
<path d="M68.9655 13.7931H65.5172V17.2414H68.9655V13.7931Z" fill="#1D2B3F"/>
<path d="M79.3103 13.7931H75.8621V17.2414H79.3103V13.7931Z" fill="#1D2B3F"/>
<path d="M86.2069 13.7931H82.7586V17.2414H86.2069V13.7931Z" fill="#1D2B3F"/>
<path d="M89.6552 13.7931H86.2069V17.2414H89.6552V13.7931Z" fill="#1D2B3F"/>
<path d="M93.1034 13.7931H89.6552V17.2414H93.1034V13.7931Z" fill="#1D2B3F"/>
<path d="M100 13.7931H96.5517V17.2414H100V13.7931Z" fill="#1D2B3F"/>
<path d="M3.44828 17.2414H0V20.6897H3.44828V17.2414Z" fill="#1D2B3F"/>
<path d="M24.1379 17.2414H20.6897V20.6897H24.1379V17.2414Z" fill="#1D2B3F"/>
<path d="M31.0345 17.2414H27.5862V20.6897H31.0345V17.2414Z" fill="#1D2B3F"/>
<path d="M34.4828 17.2414H31.0345V20.6897H34.4828V17.2414Z" fill="#1D2B3F"/>
<path d="M48.2759 17.2414H44.8276V20.6897H48.2759V17.2414Z" fill="#1D2B3F"/>
<path d="M58.6207 17.2414H55.1724V20.6897H58.6207V17.2414Z" fill="#1D2B3F"/>
<path d="M65.5172 17.2414H62.069V20.6897H65.5172V17.2414Z" fill="#1D2B3F"/>
<path d="M72.4138 17.2414H68.9655V20.6897H72.4138V17.2414Z" fill="#1D2B3F"/>
<path d="M79.3103 17.2414H75.8621V20.6897H79.3103V17.2414Z" fill="#1D2B3F"/>
<path d="M100 17.2414H96.5517V20.6897H100V17.2414Z" fill="#1D2B3F"/>
<path d="M3.44828 20.6897H0V24.1379H3.44828V20.6897Z" fill="#1D2B3F"/>
<path d="M6.89655 20.6897H3.44828V24.1379H6.89655V20.6897Z" fill="#1D2B3F"/>
<path d="M10.3448 20.6897H6.89655V24.1379H10.3448V20.6897Z" fill="#1D2B3F"/>
<path d="M13.7931 20.6897H10.3448V24.1379H13.7931V20.6897Z" fill="#1D2B3F"/>
<path d="M17.2414 20.6897H13.7931V24.1379H17.2414V20.6897Z" fill="#1D2B3F"/>
<path d="M20.6897 20.6897H17.2414V24.1379H20.6897V20.6897Z" fill="#1D2B3F"/>
<path d="M24.1379 20.6897H20.6897V24.1379H24.1379V20.6897Z" fill="#1D2B3F"/>
<path d="M31.0345 20.6897H27.5862V24.1379H31.0345V20.6897Z" fill="#1D2B3F"/>
<path d="M37.931 20.6897H34.4828V24.1379H37.931V20.6897Z" fill="#1D2B3F"/>
<path d="M44.8276 20.6897H41.3793V24.1379H44.8276V20.6897Z" fill="#1D2B3F"/>
<path d="M51.7241 20.6897H48.2759V24.1379H51.7241V20.6897Z" fill="#1D2B3F"/>
<path d="M58.6207 20.6897H55.1724V24.1379H58.6207V20.6897Z" fill="#1D2B3F"/>
<path d="M65.5172 20.6897H62.069V24.1379H65.5172V20.6897Z" fill="#1D2B3F"/>
<path d="M72.4138 20.6897H68.9655V24.1379H72.4138V20.6897Z" fill="#1D2B3F"/>
<path d="M79.3103 20.6897H75.8621V24.1379H79.3103V20.6897Z" fill="#1D2B3F"/>
<path d="M82.7586 20.6897H79.3103V24.1379H82.7586V20.6897Z" fill="#1D2B3F"/>
<path d="M86.2069 20.6897H82.7586V24.1379H86.2069V20.6897Z" fill="#1D2B3F"/>
<path d="M89.6552 20.6897H86.2069V24.1379H89.6552V20.6897Z" fill="#1D2B3F"/>
<path d="M93.1034 20.6897H89.6552V24.1379H93.1034V20.6897Z" fill="#1D2B3F"/>
<path d="M96.5517 20.6897H93.1034V24.1379H96.5517V20.6897Z" fill="#1D2B3F"/>
<path d="M100 20.6897H96.5517V24.1379H100V20.6897Z" fill="#1D2B3F"/>
<path d="M34.4828 24.1379H31.0345V27.5862H34.4828V24.1379Z" fill="#1D2B3F"/>
<path d="M41.3793 24.1379H37.931V27.5862H41.3793V24.1379Z" fill="#1D2B3F"/>
<path d="M48.2759 24.1379H44.8276V27.5862H48.2759V24.1379Z" fill="#1D2B3F"/>
<path d="M55.1724 24.1379H51.7241V27.5862H55.1724V24.1379Z" fill="#1D2B3F"/>
<path d="M58.6207 24.1379H55.1724V27.5862H58.6207V24.1379Z" fill="#1D2B3F"/>
<path d="M65.5172 24.1379H62.069V27.5862H65.5172V24.1379Z" fill="#1D2B3F"/>
<path d="M10.3448 27.5862H6.89655V31.0345H10.3448V27.5862Z" fill="#1D2B3F"/>
<path d="M13.7931 27.5862H10.3448V31.0345H13.7931V27.5862Z" fill="#1D2B3F"/>
<path d="M17.2414 27.5862H13.7931V31.0345H17.2414V27.5862Z" fill="#1D2B3F"/>
<path d="M20.6897 27.5862H17.2414V31.0345H20.6897V27.5862Z" fill="#1D2B3F"/>
<path d="M24.1379 27.5862H20.6897V31.0345H24.1379V27.5862Z" fill="#1D2B3F"/>
<path d="M27.5862 27.5862H24.1379V31.0345H27.5862V27.5862Z" fill="#1D2B3F"/>
<path d="M75.8621 27.5862H72.4138V31.0345H75.8621V27.5862Z" fill="#1D2B3F"/>
<path d="M82.7586 27.5862H79.3103V31.0345H82.7586V27.5862Z" fill="#1D2B3F"/>
<path d="M86.2069 27.5862H82.7586V31.0345H86.2069V27.5862Z" fill="#1D2B3F"/>
<path d="M89.6552 27.5862H86.2069V31.0345H89.6552V27.5862Z" fill="#1D2B3F"/>
<path d="M93.1034 27.5862H89.6552V31.0345H93.1034V27.5862Z" fill="#1D2B3F"/>
<path d="M100 27.5862H96.5517V31.0345H100V27.5862Z" fill="#1D2B3F"/>
<path d="M6.89655 31.0345H3.44828V34.4828H6.89655V31.0345Z" fill="#1D2B3F"/>
<path d="M20.6897 31.0345H17.2414V34.4828H20.6897V31.0345Z" fill="#1D2B3F"/>
<path d="M27.5862 31.0345H24.1379V34.4828H27.5862V31.0345Z" fill="#1D2B3F"/>
<path d="M75.8621 31.0345H72.4138V34.4828H75.8621V31.0345Z" fill="#1D2B3F"/>
<path d="M79.3103 31.0345H75.8621V34.4828H79.3103V31.0345Z" fill="#1D2B3F"/>
<path d="M86.2069 31.0345H82.7586V34.4828H86.2069V31.0345Z" fill="#1D2B3F"/>
<path d="M93.1034 31.0345H89.6552V34.4828H93.1034V31.0345Z" fill="#1D2B3F"/>
<path d="M96.5517 31.0345H93.1034V34.4828H96.5517V31.0345Z" fill="#1D2B3F"/>
<path d="M100 31.0345H96.5517V34.4828H100V31.0345Z" fill="#1D2B3F"/>
<path d="M6.89655 34.4828H3.44828V37.931H6.89655V34.4828Z" fill="#1D2B3F"/>
<path d="M20.6897 34.4828H17.2414V37.931H20.6897V34.4828Z" fill="#1D2B3F"/>
<path d="M24.1379 34.4828H20.6897V37.931H24.1379V34.4828Z" fill="#1D2B3F"/>
<path d="M27.5862 34.4828H24.1379V37.931H27.5862V34.4828Z" fill="#1D2B3F"/>
<path d="M75.8621 34.4828H72.4138V37.931H75.8621V34.4828Z" fill="#1D2B3F"/>
<path d="M96.5517 34.4828H93.1034V37.931H96.5517V34.4828Z" fill="#1D2B3F"/>
<path d="M100 34.4828H96.5517V37.931H100V34.4828Z" fill="#1D2B3F"/>
<path d="M86.2069 37.931H82.7586V41.3793H86.2069V37.931Z" fill="#1D2B3F"/>
<path d="M89.6552 37.931H86.2069V41.3793H89.6552V37.931Z" fill="#1D2B3F"/>
<path d="M93.1034 37.931H89.6552V41.3793H93.1034V37.931Z" fill="#1D2B3F"/>
<path d="M96.5517 37.931H93.1034V41.3793H96.5517V37.931Z" fill="#1D2B3F"/>
<path d="M100 37.931H96.5517V41.3793H100V37.931Z" fill="#1D2B3F"/>
<path d="M3.44828 41.3793H0V44.8276H3.44828V41.3793Z" fill="#1D2B3F"/>
<path d="M13.7931 41.3793H10.3448V44.8276H13.7931V41.3793Z" fill="#1D2B3F"/>
<path d="M17.2414 41.3793H13.7931V44.8276H17.2414V41.3793Z" fill="#1D2B3F"/>
<path d="M20.6897 41.3793H17.2414V44.8276H20.6897V41.3793Z" fill="#1D2B3F"/>
<path d="M24.1379 41.3793H20.6897V44.8276H24.1379V41.3793Z" fill="#1D2B3F"/>
<path d="M79.3103 41.3793H75.8621V44.8276H79.3103V41.3793Z" fill="#1D2B3F"/>
<path d="M89.6552 41.3793H86.2069V44.8276H89.6552V41.3793Z" fill="#1D2B3F"/>
<path d="M96.5517 41.3793H93.1034V44.8276H96.5517V41.3793Z" fill="#1D2B3F"/>
<path d="M13.7931 44.8276H10.3448V48.2759H13.7931V44.8276Z" fill="#1D2B3F"/>
<path d="M96.5517 44.8276H93.1034V48.2759H96.5517V44.8276Z" fill="#1D2B3F"/>
<path d="M10.3448 48.2759H6.89655V51.7241H10.3448V48.2759Z" fill="#1D2B3F"/>
<path d="M13.7931 48.2759H10.3448V51.7241H13.7931V48.2759Z" fill="#1D2B3F"/>
<path d="M20.6897 48.2759H17.2414V51.7241H20.6897V48.2759Z" fill="#1D2B3F"/>
<path d="M24.1379 48.2759H20.6897V51.7241H24.1379V48.2759Z" fill="#1D2B3F"/>
<path d="M27.5862 48.2759H24.1379V51.7241H27.5862V48.2759Z" fill="#1D2B3F"/>
<path d="M82.7586 48.2759H79.3103V51.7241H82.7586V48.2759Z" fill="#1D2B3F"/>
<path d="M89.6552 48.2759H86.2069V51.7241H89.6552V48.2759Z" fill="#1D2B3F"/>
<path d="M100 48.2759H96.5517V51.7241H100V48.2759Z" fill="#1D2B3F"/>
<path d="M6.89655 51.7241H3.44828V55.1724H6.89655V51.7241Z" fill="#1D2B3F"/>
<path d="M10.3448 51.7241H6.89655V55.1724H10.3448V51.7241Z" fill="#1D2B3F"/>
<path d="M13.7931 51.7241H10.3448V55.1724H13.7931V51.7241Z" fill="#1D2B3F"/>
<path d="M20.6897 51.7241H17.2414V55.1724H20.6897V51.7241Z" fill="#1D2B3F"/>
<path d="M27.5862 51.7241H24.1379V55.1724H27.5862V51.7241Z" fill="#1D2B3F"/>
<path d="M79.3103 51.7241H75.8621V55.1724H79.3103V51.7241Z" fill="#1D2B3F"/>
<path d="M82.7586 51.7241H79.3103V55.1724H82.7586V51.7241Z" fill="#1D2B3F"/>
<path d="M93.1034 51.7241H89.6552V55.1724H93.1034V51.7241Z" fill="#1D2B3F"/>
<path d="M3.44828 55.1724H0V58.6207H3.44828V55.1724Z" fill="#1D2B3F"/>
<path d="M10.3448 55.1724H6.89655V58.6207H10.3448V55.1724Z" fill="#1D2B3F"/>
<path d="M13.7931 55.1724H10.3448V58.6207H13.7931V55.1724Z" fill="#1D2B3F"/>
<path d="M20.6897 55.1724H17.2414V58.6207H20.6897V55.1724Z" fill="#1D2B3F"/>
<path d="M24.1379 55.1724H20.6897V58.6207H24.1379V55.1724Z" fill="#1D2B3F"/>
<path d="M75.8621 55.1724H72.4138V58.6207H75.8621V55.1724Z" fill="#1D2B3F"/>
<path d="M89.6552 55.1724H86.2069V58.6207H89.6552V55.1724Z" fill="#1D2B3F"/>
<path d="M93.1034 55.1724H89.6552V58.6207H93.1034V55.1724Z" fill="#1D2B3F"/>
<path d="M96.5517 55.1724H93.1034V58.6207H96.5517V55.1724Z" fill="#1D2B3F"/>
<path d="M3.44828 58.6207H0V62.069H3.44828V58.6207Z" fill="#1D2B3F"/>
<path d="M13.7931 58.6207H10.3448V62.069H13.7931V58.6207Z" fill="#1D2B3F"/>
<path d="M93.1034 58.6207H89.6552V62.069H93.1034V58.6207Z" fill="#1D2B3F"/>
<path d="M100 58.6207H96.5517V62.069H100V58.6207Z" fill="#1D2B3F"/>
<path d="M3.44828 62.069H0V65.5172H3.44828V62.069Z" fill="#1D2B3F"/>
<path d="M17.2414 62.069H13.7931V65.5172H17.2414V62.069Z" fill="#1D2B3F"/>
<path d="M24.1379 62.069H20.6897V65.5172H24.1379V62.069Z" fill="#1D2B3F"/>
<path d="M75.8621 62.069H72.4138V65.5172H75.8621V62.069Z" fill="#1D2B3F"/>
<path d="M93.1034 62.069H89.6552V65.5172H93.1034V62.069Z" fill="#1D2B3F"/>
<path d="M100 62.069H96.5517V65.5172H100V62.069Z" fill="#1D2B3F"/>
<path d="M3.44828 65.5172H0V68.9655H3.44828V65.5172Z" fill="#1D2B3F"/>
<path d="M10.3448 65.5172H6.89655V68.9655H10.3448V65.5172Z" fill="#1D2B3F"/>
<path d="M13.7931 65.5172H10.3448V68.9655H13.7931V65.5172Z" fill="#1D2B3F"/>
<path d="M17.2414 65.5172H13.7931V68.9655H17.2414V65.5172Z" fill="#1D2B3F"/>
<path d="M27.5862 65.5172H24.1379V68.9655H27.5862V65.5172Z" fill="#1D2B3F"/>
<path d="M79.3103 65.5172H75.8621V68.9655H79.3103V65.5172Z" fill="#1D2B3F"/>
<path d="M82.7586 65.5172H79.3103V68.9655H82.7586V65.5172Z" fill="#1D2B3F"/>
<path d="M89.6552 65.5172H86.2069V68.9655H89.6552V65.5172Z" fill="#1D2B3F"/>
<path d="M93.1034 65.5172H89.6552V68.9655H93.1034V65.5172Z" fill="#1D2B3F"/>
<path d="M100 65.5172H96.5517V68.9655H100V65.5172Z" fill="#1D2B3F"/>
<path d="M3.44828 68.9655H0V72.4138H3.44828V68.9655Z" fill="#1D2B3F"/>
<path d="M10.3448 68.9655H6.89655V72.4138H10.3448V68.9655Z" fill="#1D2B3F"/>
<path d="M20.6897 68.9655H17.2414V72.4138H20.6897V68.9655Z" fill="#1D2B3F"/>
<path d="M24.1379 68.9655H20.6897V72.4138H24.1379V68.9655Z" fill="#1D2B3F"/>
<path d="M75.8621 68.9655H72.4138V72.4138H75.8621V68.9655Z" fill="#1D2B3F"/>
<path d="M79.3103 68.9655H75.8621V72.4138H79.3103V68.9655Z" fill="#1D2B3F"/>
<path d="M82.7586 68.9655H79.3103V72.4138H82.7586V68.9655Z" fill="#1D2B3F"/>
<path d="M86.2069 68.9655H82.7586V72.4138H86.2069V68.9655Z" fill="#1D2B3F"/>
<path d="M96.5517 68.9655H93.1034V72.4138H96.5517V68.9655Z" fill="#1D2B3F"/>
<path d="M86.2069 72.4138H82.7586V75.8621H86.2069V72.4138Z" fill="#1D2B3F"/>
<path d="M93.1034 72.4138H89.6552V75.8621H93.1034V72.4138Z" fill="#1D2B3F"/>
<path d="M100 72.4138H96.5517V75.8621H100V72.4138Z" fill="#1D2B3F"/>
<path d="M3.44828 75.8621H0V79.3103H3.44828V75.8621Z" fill="#1D2B3F"/>
<path d="M6.89655 75.8621H3.44828V79.3103H6.89655V75.8621Z" fill="#1D2B3F"/>
<path d="M10.3448 75.8621H6.89655V79.3103H10.3448V75.8621Z" fill="#1D2B3F"/>
<path d="M13.7931 75.8621H10.3448V79.3103H13.7931V75.8621Z" fill="#1D2B3F"/>
<path d="M17.2414 75.8621H13.7931V79.3103H17.2414V75.8621Z" fill="#1D2B3F"/>
<path d="M20.6897 75.8621H17.2414V79.3103H20.6897V75.8621Z" fill="#1D2B3F"/>
<path d="M24.1379 75.8621H20.6897V79.3103H24.1379V75.8621Z" fill="#1D2B3F"/>
<path d="M79.3103 75.8621H75.8621V79.3103H79.3103V75.8621Z" fill="#1D2B3F"/>
<path d="M86.2069 75.8621H82.7586V79.3103H86.2069V75.8621Z" fill="#1D2B3F"/>
<path d="M93.1034 75.8621H89.6552V79.3103H93.1034V75.8621Z" fill="#1D2B3F"/>
<path d="M96.5517 75.8621H93.1034V79.3103H96.5517V75.8621Z" fill="#1D2B3F"/>
<path d="M100 75.8621H96.5517V79.3103H100V75.8621Z" fill="#1D2B3F"/>
<path d="M3.44828 79.3103H0V82.7586H3.44828V79.3103Z" fill="#1D2B3F"/>
<path d="M24.1379 79.3103H20.6897V82.7586H24.1379V79.3103Z" fill="#1D2B3F"/>
<path d="M31.0345 79.3103H27.5862V82.7586H31.0345V79.3103Z" fill="#1D2B3F"/>
<path d="M34.4828 79.3103H31.0345V82.7586H34.4828V79.3103Z" fill="#1D2B3F"/>
<path d="M44.8276 79.3103H41.3793V82.7586H44.8276V79.3103Z" fill="#1D2B3F"/>
<path d="M48.2759 79.3103H44.8276V82.7586H48.2759V79.3103Z" fill="#1D2B3F"/>
<path d="M58.6207 79.3103H55.1724V82.7586H58.6207V79.3103Z" fill="#1D2B3F"/>
<path d="M62.069 79.3103H58.6207V82.7586H62.069V79.3103Z" fill="#1D2B3F"/>
<path d="M72.4138 79.3103H68.9655V82.7586H72.4138V79.3103Z" fill="#1D2B3F"/>
<path d="M86.2069 79.3103H82.7586V82.7586H86.2069V79.3103Z" fill="#1D2B3F"/>
<path d="M89.6552 79.3103H86.2069V82.7586H89.6552V79.3103Z" fill="#1D2B3F"/>
<path d="M93.1034 79.3103H89.6552V82.7586H93.1034V79.3103Z" fill="#1D2B3F"/>
<path d="M100 79.3103H96.5517V82.7586H100V79.3103Z" fill="#1D2B3F"/>
<path d="M3.44828 82.7586H0V86.2069H3.44828V82.7586Z" fill="#1D2B3F"/>
<path d="M10.3448 82.7586H6.89655V86.2069H10.3448V82.7586Z" fill="#1D2B3F"/>
<path d="M13.7931 82.7586H10.3448V86.2069H13.7931V82.7586Z" fill="#1D2B3F"/>
<path d="M17.2414 82.7586H13.7931V86.2069H17.2414V82.7586Z" fill="#1D2B3F"/>
<path d="M24.1379 82.7586H20.6897V86.2069H24.1379V82.7586Z" fill="#1D2B3F"/>
<path d="M31.0345 82.7586H27.5862V86.2069H31.0345V82.7586Z" fill="#1D2B3F"/>
<path d="M34.4828 82.7586H31.0345V86.2069H34.4828V82.7586Z" fill="#1D2B3F"/>
<path d="M41.3793 82.7586H37.931V86.2069H41.3793V82.7586Z" fill="#1D2B3F"/>
<path d="M48.2759 82.7586H44.8276V86.2069H48.2759V82.7586Z" fill="#1D2B3F"/>
<path d="M51.7241 82.7586H48.2759V86.2069H51.7241V82.7586Z" fill="#1D2B3F"/>
<path d="M55.1724 82.7586H51.7241V86.2069H55.1724V82.7586Z" fill="#1D2B3F"/>
<path d="M62.069 82.7586H58.6207V86.2069H62.069V82.7586Z" fill="#1D2B3F"/>
<path d="M65.5172 82.7586H62.069V86.2069H65.5172V82.7586Z" fill="#1D2B3F"/>
<path d="M72.4138 82.7586H68.9655V86.2069H72.4138V82.7586Z" fill="#1D2B3F"/>
<path d="M75.8621 82.7586H72.4138V86.2069H75.8621V82.7586Z" fill="#1D2B3F"/>
<path d="M79.3103 82.7586H75.8621V86.2069H79.3103V82.7586Z" fill="#1D2B3F"/>
<path d="M82.7586 82.7586H79.3103V86.2069H82.7586V82.7586Z" fill="#1D2B3F"/>
<path d="M86.2069 82.7586H82.7586V86.2069H86.2069V82.7586Z" fill="#1D2B3F"/>
<path d="M93.1034 82.7586H89.6552V86.2069H93.1034V82.7586Z" fill="#1D2B3F"/>
<path d="M100 82.7586H96.5517V86.2069H100V82.7586Z" fill="#1D2B3F"/>
<path d="M3.44828 86.2069H0V89.6552H3.44828V86.2069Z" fill="#1D2B3F"/>
<path d="M10.3448 86.2069H6.89655V89.6552H10.3448V86.2069Z" fill="#1D2B3F"/>
<path d="M13.7931 86.2069H10.3448V89.6552H13.7931V86.2069Z" fill="#1D2B3F"/>
<path d="M17.2414 86.2069H13.7931V89.6552H17.2414V86.2069Z" fill="#1D2B3F"/>
<path d="M24.1379 86.2069H20.6897V89.6552H24.1379V86.2069Z" fill="#1D2B3F"/>
<path d="M31.0345 86.2069H27.5862V89.6552H31.0345V86.2069Z" fill="#1D2B3F"/>
<path d="M41.3793 86.2069H37.931V89.6552H41.3793V86.2069Z" fill="#1D2B3F"/>
<path d="M44.8276 86.2069H41.3793V89.6552H44.8276V86.2069Z" fill="#1D2B3F"/>
<path d="M51.7241 86.2069H48.2759V89.6552H51.7241V86.2069Z" fill="#1D2B3F"/>
<path d="M58.6207 86.2069H55.1724V89.6552H58.6207V86.2069Z" fill="#1D2B3F"/>
<path d="M75.8621 86.2069H72.4138V89.6552H75.8621V86.2069Z" fill="#1D2B3F"/>
<path d="M79.3103 86.2069H75.8621V89.6552H79.3103V86.2069Z" fill="#1D2B3F"/>
<path d="M89.6552 86.2069H86.2069V89.6552H89.6552V86.2069Z" fill="#1D2B3F"/>
<path d="M93.1034 86.2069H89.6552V89.6552H93.1034V86.2069Z" fill="#1D2B3F"/>
<path d="M96.5517 86.2069H93.1034V89.6552H96.5517V86.2069Z" fill="#1D2B3F"/>
<path d="M3.44828 89.6552H0V93.1034H3.44828V89.6552Z" fill="#1D2B3F"/>
<path d="M10.3448 89.6552H6.89655V93.1034H10.3448V89.6552Z" fill="#1D2B3F"/>
<path d="M13.7931 89.6552H10.3448V93.1034H13.7931V89.6552Z" fill="#1D2B3F"/>
<path d="M17.2414 89.6552H13.7931V93.1034H17.2414V89.6552Z" fill="#1D2B3F"/>
<path d="M24.1379 89.6552H20.6897V93.1034H24.1379V89.6552Z" fill="#1D2B3F"/>
<path d="M31.0345 89.6552H27.5862V93.1034H31.0345V89.6552Z" fill="#1D2B3F"/>
<path d="M44.8276 89.6552H41.3793V93.1034H44.8276V89.6552Z" fill="#1D2B3F"/>
<path d="M51.7241 89.6552H48.2759V93.1034H51.7241V89.6552Z" fill="#1D2B3F"/>
<path d="M58.6207 89.6552H55.1724V93.1034H58.6207V89.6552Z" fill="#1D2B3F"/>
<path d="M62.069 89.6552H58.6207V93.1034H62.069V89.6552Z" fill="#1D2B3F"/>
<path d="M65.5172 89.6552H62.069V93.1034H65.5172V89.6552Z" fill="#1D2B3F"/>
<path d="M72.4138 89.6552H68.9655V93.1034H72.4138V89.6552Z" fill="#1D2B3F"/>
<path d="M75.8621 89.6552H72.4138V93.1034H75.8621V89.6552Z" fill="#1D2B3F"/>
<path d="M79.3103 89.6552H75.8621V93.1034H79.3103V89.6552Z" fill="#1D2B3F"/>
<path d="M86.2069 89.6552H82.7586V93.1034H86.2069V89.6552Z" fill="#1D2B3F"/>
<path d="M89.6552 89.6552H86.2069V93.1034H89.6552V89.6552Z" fill="#1D2B3F"/>
<path d="M93.1034 89.6552H89.6552V93.1034H93.1034V89.6552Z" fill="#1D2B3F"/>
<path d="M100 89.6552H96.5517V93.1034H100V89.6552Z" fill="#1D2B3F"/>
<path d="M3.44828 93.1034H0V96.5517H3.44828V93.1034Z" fill="#1D2B3F"/>
<path d="M24.1379 93.1034H20.6897V96.5517H24.1379V93.1034Z" fill="#1D2B3F"/>
<path d="M41.3793 93.1034H37.931V96.5517H41.3793V93.1034Z" fill="#1D2B3F"/>
<path d="M55.1724 93.1034H51.7241V96.5517H55.1724V93.1034Z" fill="#1D2B3F"/>
<path d="M68.9655 93.1034H65.5172V96.5517H68.9655V93.1034Z" fill="#1D2B3F"/>
<path d="M72.4138 93.1034H68.9655V96.5517H72.4138V93.1034Z" fill="#1D2B3F"/>
<path d="M75.8621 93.1034H72.4138V96.5517H75.8621V93.1034Z" fill="#1D2B3F"/>
<path d="M82.7586 93.1034H79.3103V96.5517H82.7586V93.1034Z" fill="#1D2B3F"/>
<path d="M89.6552 93.1034H86.2069V96.5517H89.6552V93.1034Z" fill="#1D2B3F"/>
<path d="M93.1034 93.1034H89.6552V96.5517H93.1034V93.1034Z" fill="#1D2B3F"/>
<path d="M96.5517 93.1034H93.1034V96.5517H96.5517V93.1034Z" fill="#1D2B3F"/>
<path d="M3.44828 96.5517H0V100H3.44828V96.5517Z" fill="#1D2B3F"/>
<path d="M6.89655 96.5517H3.44828V100H6.89655V96.5517Z" fill="#1D2B3F"/>
<path d="M10.3448 96.5517H6.89655V100H10.3448V96.5517Z" fill="#1D2B3F"/>
<path d="M13.7931 96.5517H10.3448V100H13.7931V96.5517Z" fill="#1D2B3F"/>
<path d="M17.2414 96.5517H13.7931V100H17.2414V96.5517Z" fill="#1D2B3F"/>
<path d="M20.6897 96.5517H17.2414V100H20.6897V96.5517Z" fill="#1D2B3F"/>
<path d="M24.1379 96.5517H20.6897V100H24.1379V96.5517Z" fill="#1D2B3F"/>
<path d="M34.4828 96.5517H31.0345V100H34.4828V96.5517Z" fill="#1D2B3F"/>
<path d="M48.2759 96.5517H44.8276V100H48.2759V96.5517Z" fill="#1D2B3F"/>
<path d="M62.069 96.5517H58.6207V100H62.069V96.5517Z" fill="#1D2B3F"/>
<path d="M72.4138 96.5517H68.9655V100H72.4138V96.5517Z" fill="#1D2B3F"/>
<path d="M75.8621 96.5517H72.4138V100H75.8621V96.5517Z" fill="#1D2B3F"/>
<path d="M82.7586 96.5517H79.3103V100H82.7586V96.5517Z" fill="#1D2B3F"/>
<path d="M89.6552 96.5517H86.2069V100H89.6552V96.5517Z" fill="#1D2B3F"/>
</svg>
