<svg width="300" height="100" viewBox="0 0 300 100" fill="none" xmlns="http://www.w3.org/2000/svg">
<path d="M134.415 33H131.119V22.8182H134.519C135.517 22.8182 136.374 23.022 137.089 23.4297C137.805 23.834 138.354 24.4157 138.735 25.1747C139.12 25.9304 139.312 26.8369 139.312 27.8942C139.312 28.9548 139.118 29.8662 138.73 30.6286C138.346 31.3909 137.789 31.9775 137.06 32.3885C136.33 32.7962 135.449 33 134.415 33ZM132.655 31.6577H134.33C135.106 31.6577 135.75 31.5118 136.264 31.2202C136.778 30.9252 137.162 30.4993 137.418 29.9425C137.673 29.3823 137.8 28.6996 137.8 27.8942C137.8 27.0954 137.673 26.4176 137.418 25.8608C137.166 25.304 136.79 24.8814 136.289 24.593C135.789 24.3047 135.167 24.1605 134.425 24.1605H132.655V31.6577ZM144.319 33.1541C143.604 33.1541 142.979 32.9901 142.445 32.6619C141.912 32.3338 141.497 31.8748 141.202 31.2848C140.907 30.6948 140.76 30.0054 140.76 29.2166C140.76 28.4245 140.907 27.7318 141.202 27.1385C141.497 26.5452 141.912 26.0845 142.445 25.7564C142.979 25.4283 143.604 25.2642 144.319 25.2642C145.035 25.2642 145.66 25.4283 146.194 25.7564C146.727 26.0845 147.142 26.5452 147.437 27.1385C147.732 27.7318 147.879 28.4245 147.879 29.2166C147.879 30.0054 147.732 30.6948 147.437 31.2848C147.142 31.8748 146.727 32.3338 146.194 32.6619C145.66 32.9901 145.035 33.1541 144.319 33.1541ZM144.324 31.9062C144.788 31.9062 145.173 31.7836 145.478 31.5384C145.783 31.2931 146.008 30.9666 146.154 30.5589C146.303 30.1513 146.378 29.7022 146.378 29.2116C146.378 28.7244 146.303 28.277 146.154 27.8693C146.008 27.4583 145.783 27.1286 145.478 26.88C145.173 26.6314 144.788 26.5071 144.324 26.5071C143.857 26.5071 143.469 26.6314 143.161 26.88C142.856 27.1286 142.629 27.4583 142.48 27.8693C142.334 28.277 142.261 28.7244 142.261 29.2116C142.261 29.7022 142.334 30.1513 142.48 30.5589C142.629 30.9666 142.856 31.2931 143.161 31.5384C143.469 31.7836 143.857 31.9062 144.324 31.9062ZM151.025 28.4659V33H149.538V25.3636H150.965V26.6065H151.06C151.235 26.2022 151.51 25.8774 151.885 25.6321C152.263 25.3868 152.738 25.2642 153.312 25.2642C153.832 25.2642 154.288 25.3736 154.679 25.5923C155.07 25.8078 155.373 26.1293 155.589 26.5568C155.804 26.9844 155.912 27.513 155.912 28.1428V33H154.425V28.3217C154.425 27.7682 154.281 27.3357 153.993 27.0241C153.705 26.7093 153.308 26.5518 152.805 26.5518C152.46 26.5518 152.153 26.6264 151.885 26.7756C151.62 26.9247 151.409 27.1435 151.254 27.4318C151.101 27.7169 151.025 28.0616 151.025 28.4659ZM159.034 22.8182V26.4425H157.801V22.8182H159.034ZM164.519 25.3636V26.5568H160.348V25.3636H164.519ZM161.466 23.5341H162.953V30.7578C162.953 31.0462 162.996 31.2633 163.082 31.4091C163.168 31.5516 163.279 31.6494 163.415 31.7024C163.555 31.7521 163.705 31.777 163.868 31.777C163.987 31.777 164.091 31.7687 164.181 31.7521C164.27 31.7356 164.34 31.7223 164.39 31.7124L164.658 32.9403C164.572 32.9735 164.449 33.0066 164.29 33.0398C164.131 33.0762 163.932 33.0961 163.694 33.0994C163.303 33.1061 162.938 33.0365 162.6 32.8906C162.262 32.7448 161.988 32.5194 161.78 32.2145C161.571 31.9096 161.466 31.5268 161.466 31.0661V23.5341ZM171.524 33L169.277 25.3636H170.813L172.309 30.9716H172.384L173.885 25.3636H175.422L176.913 30.9467H176.988L178.474 25.3636H180.01L177.768 33H176.252L174.701 27.4865H174.586L173.035 33H171.524ZM183.643 33.169C183.16 33.169 182.722 33.0795 182.331 32.9006C181.94 32.7183 181.63 32.4548 181.401 32.1101C181.176 31.7654 181.063 31.3428 181.063 30.8423C181.063 30.4115 181.146 30.0568 181.312 29.7784C181.478 29.5 181.701 29.2796 181.983 29.1172C182.265 28.9548 182.58 28.8321 182.928 28.7493C183.276 28.6664 183.63 28.6035 183.991 28.5604C184.449 28.5073 184.82 28.4643 185.105 28.4311C185.39 28.3946 185.597 28.3366 185.727 28.2571C185.856 28.1776 185.92 28.0483 185.92 27.8693V27.8345C185.92 27.4003 185.798 27.0639 185.553 26.8253C185.311 26.5866 184.949 26.4673 184.469 26.4673C183.968 26.4673 183.574 26.5784 183.286 26.8004C183 27.0192 182.803 27.2628 182.694 27.5312L181.297 27.2131C181.463 26.7491 181.705 26.3745 182.023 26.0895C182.344 25.8011 182.714 25.5923 183.131 25.4631C183.549 25.3305 183.988 25.2642 184.449 25.2642C184.754 25.2642 185.077 25.3007 185.418 25.3736C185.763 25.4432 186.085 25.5724 186.383 25.7614C186.684 25.9503 186.931 26.2204 187.124 26.5717C187.316 26.9197 187.412 27.3722 187.412 27.929V33H185.96V31.956H185.901C185.804 32.1482 185.66 32.3371 185.468 32.5227C185.276 32.7083 185.029 32.8625 184.727 32.9851C184.426 33.1077 184.064 33.169 183.643 33.169ZM183.967 31.9759C184.378 31.9759 184.729 31.8946 185.021 31.7322C185.316 31.5698 185.539 31.3577 185.692 31.0959C185.848 30.8307 185.925 30.5473 185.925 30.2457V29.2614C185.872 29.3144 185.77 29.3641 185.617 29.4105C185.468 29.4536 185.297 29.4917 185.105 29.5249C184.913 29.5547 184.726 29.5829 184.543 29.6094C184.361 29.6326 184.209 29.6525 184.086 29.669C183.798 29.7055 183.534 29.7668 183.295 29.853C183.06 29.9392 182.871 30.0634 182.729 30.2259C182.589 30.3849 182.52 30.5971 182.52 30.8622C182.52 31.2301 182.656 31.5085 182.928 31.6974C183.199 31.883 183.546 31.9759 183.967 31.9759ZM189.392 33V25.3636H190.878V33H189.392ZM190.143 24.1854C189.884 24.1854 189.662 24.0992 189.476 23.9268C189.294 23.7512 189.203 23.5424 189.203 23.3004C189.203 23.0552 189.294 22.8464 189.476 22.674C189.662 22.4983 189.884 22.4105 190.143 22.4105C190.401 22.4105 190.622 22.4983 190.804 22.674C190.989 22.8464 191.082 23.0552 191.082 23.3004C191.082 23.5424 190.989 23.7512 190.804 23.9268C190.622 24.0992 190.401 24.1854 190.143 24.1854ZM196.443 25.3636V26.5568H192.272V25.3636H196.443ZM193.39 23.5341H194.877V30.7578C194.877 31.0462 194.92 31.2633 195.006 31.4091C195.092 31.5516 195.203 31.6494 195.339 31.7024C195.478 31.7521 195.629 31.777 195.792 31.777C195.911 31.777 196.015 31.7687 196.105 31.7521C196.194 31.7356 196.264 31.7223 196.314 31.7124L196.582 32.9403C196.496 32.9735 196.373 33.0066 196.214 33.0398C196.055 33.0762 195.856 33.0961 195.618 33.0994C195.226 33.1061 194.862 33.0365 194.524 32.8906C194.186 32.7448 193.912 32.5194 193.703 32.2145C193.495 31.9096 193.39 31.5268 193.39 31.0661V23.5341ZM206.292 28.0533V29.3409H201.777V28.0533H206.292ZM214.836 33.1491C214.22 33.1491 213.67 32.9917 213.186 32.6768C212.705 32.3587 212.327 31.9062 212.052 31.3196C211.781 30.7296 211.645 30.022 211.645 29.1967C211.645 28.3714 211.782 27.6655 212.057 27.0788C212.336 26.4922 212.717 26.0431 213.201 25.7315C213.685 25.42 214.233 25.2642 214.846 25.2642C215.32 25.2642 215.702 25.3438 215.99 25.5028C216.282 25.6586 216.507 25.8409 216.666 26.0497C216.828 26.2585 216.954 26.4425 217.044 26.6016H217.133V22.8182H218.62V33H217.168V31.8118H217.044C216.954 31.9742 216.825 32.1598 216.656 32.3686C216.49 32.5774 216.262 32.7597 215.97 32.9155C215.678 33.0713 215.3 33.1491 214.836 33.1491ZM215.165 31.8814C215.592 31.8814 215.953 31.7687 216.248 31.5433C216.547 31.3146 216.772 30.9981 216.925 30.5938C217.08 30.1894 217.158 29.7187 217.158 29.1818C217.158 28.6515 217.082 28.1875 216.93 27.7898C216.777 27.392 216.553 27.0821 216.258 26.8601C215.963 26.638 215.599 26.527 215.165 26.527C214.717 26.527 214.344 26.643 214.046 26.875C213.748 27.107 213.522 27.4235 213.37 27.8246C213.221 28.2256 213.146 28.678 213.146 29.1818C213.146 29.6922 213.222 30.1513 213.375 30.5589C213.527 30.9666 213.753 31.2898 214.051 31.5284C214.353 31.7637 214.724 31.8814 215.165 31.8814ZM223.958 33.1541C223.242 33.1541 222.617 32.9901 222.084 32.6619C221.55 32.3338 221.136 31.8748 220.841 31.2848C220.546 30.6948 220.398 30.0054 220.398 29.2166C220.398 28.4245 220.546 27.7318 220.841 27.1385C221.136 26.5452 221.55 26.0845 222.084 25.7564C222.617 25.4283 223.242 25.2642 223.958 25.2642C224.674 25.2642 225.299 25.4283 225.832 25.7564C226.366 26.0845 226.78 26.5452 227.075 27.1385C227.37 27.7318 227.518 28.4245 227.518 29.2166C227.518 30.0054 227.37 30.6948 227.075 31.2848C226.78 31.8748 226.366 32.3338 225.832 32.6619C225.299 32.9901 224.674 33.1541 223.958 33.1541ZM223.963 31.9062C224.427 31.9062 224.812 31.7836 225.116 31.5384C225.421 31.2931 225.647 30.9666 225.793 30.5589C225.942 30.1513 226.016 29.7022 226.016 29.2116C226.016 28.7244 225.942 28.277 225.793 27.8693C225.647 27.4583 225.421 27.1286 225.116 26.88C224.812 26.6314 224.427 26.5071 223.963 26.5071C223.496 26.5071 223.108 26.6314 222.8 26.88C222.495 27.1286 222.268 27.4583 222.119 27.8693C221.973 28.277 221.9 28.7244 221.9 29.2116C221.9 29.7022 221.973 30.1513 222.119 30.5589C222.268 30.9666 222.495 31.2931 222.8 31.5384C223.108 31.7836 223.496 31.9062 223.963 31.9062ZM230.6 33L228.353 25.3636H229.889L231.386 30.9716H231.46L232.962 25.3636H234.498L235.989 30.9467H236.064L237.55 25.3636H239.087L236.844 33H235.328L233.777 27.4865H233.663L232.112 33H230.6ZM241.984 28.4659V33H240.497V25.3636H241.924V26.6065H242.019C242.194 26.2022 242.469 25.8774 242.844 25.6321C243.222 25.3868 243.697 25.2642 244.271 25.2642C244.791 25.2642 245.247 25.3736 245.638 25.5923C246.029 25.8078 246.332 26.1293 246.548 26.5568C246.763 26.9844 246.871 27.513 246.871 28.1428V33H245.384V28.3217C245.384 27.7682 245.24 27.3357 244.952 27.0241C244.664 26.7093 244.267 26.5518 243.764 26.5518C243.419 26.5518 243.112 26.6264 242.844 26.7756C242.579 26.9247 242.368 27.1435 242.213 27.4318C242.06 27.7169 241.984 28.0616 241.984 28.4659ZM250.351 22.8182V33H248.865V22.8182H250.351ZM255.567 33.1541C254.852 33.1541 254.227 32.9901 253.693 32.6619C253.16 32.3338 252.745 31.8748 252.45 31.2848C252.155 30.6948 252.008 30.0054 252.008 29.2166C252.008 28.4245 252.155 27.7318 252.45 27.1385C252.745 26.5452 253.16 26.0845 253.693 25.7564C254.227 25.4283 254.852 25.2642 255.567 25.2642C256.283 25.2642 256.908 25.4283 257.442 25.7564C257.975 26.0845 258.39 26.5452 258.685 27.1385C258.98 27.7318 259.127 28.4245 259.127 29.2166C259.127 30.0054 258.98 30.6948 258.685 31.2848C258.39 31.8748 257.975 32.3338 257.442 32.6619C256.908 32.9901 256.283 33.1541 255.567 33.1541ZM255.572 31.9062C256.036 31.9062 256.421 31.7836 256.726 31.5384C257.031 31.2931 257.256 30.9666 257.402 30.5589C257.551 30.1513 257.626 29.7022 257.626 29.2116C257.626 28.7244 257.551 28.277 257.402 27.8693C257.256 27.4583 257.031 27.1286 256.726 26.88C256.421 26.6314 256.036 26.5071 255.572 26.5071C255.105 26.5071 254.717 26.6314 254.409 26.88C254.104 27.1286 253.877 27.4583 253.728 27.8693C253.582 28.277 253.509 28.7244 253.509 29.2116C253.509 29.7022 253.582 30.1513 253.728 30.5589C253.877 30.9666 254.104 31.2931 254.409 31.5384C254.717 31.7836 255.105 31.9062 255.572 31.9062ZM263.009 33.169C262.525 33.169 262.087 33.0795 261.696 32.9006C261.305 32.7183 260.995 32.4548 260.767 32.1101C260.541 31.7654 260.428 31.3428 260.428 30.8423C260.428 30.4115 260.511 30.0568 260.677 29.7784C260.843 29.5 261.066 29.2796 261.348 29.1172C261.63 28.9548 261.945 28.8321 262.293 28.7493C262.641 28.6664 262.995 28.6035 263.357 28.5604C263.814 28.5073 264.185 28.4643 264.47 28.4311C264.755 28.3946 264.963 28.3366 265.092 28.2571C265.221 28.1776 265.286 28.0483 265.286 27.8693V27.8345C265.286 27.4003 265.163 27.0639 264.918 26.8253C264.676 26.5866 264.315 26.4673 263.834 26.4673C263.334 26.4673 262.939 26.5784 262.651 26.8004C262.366 27.0192 262.169 27.2628 262.059 27.5312L260.662 27.2131C260.828 26.7491 261.07 26.3745 261.388 26.0895C261.709 25.8011 262.079 25.5923 262.497 25.4631C262.914 25.3305 263.353 25.2642 263.814 25.2642C264.119 25.2642 264.442 25.3007 264.784 25.3736C265.128 25.4432 265.45 25.5724 265.748 25.7614C266.05 25.9503 266.297 26.2204 266.489 26.5717C266.681 26.9197 266.777 27.3722 266.777 27.929V33H265.325V31.956H265.266C265.17 32.1482 265.026 32.3371 264.833 32.5227C264.641 32.7083 264.394 32.8625 264.093 32.9851C263.791 33.1077 263.43 33.169 263.009 33.169ZM263.332 31.9759C263.743 31.9759 264.094 31.8946 264.386 31.7322C264.681 31.5698 264.905 31.3577 265.057 31.0959C265.213 30.8307 265.291 30.5473 265.291 30.2457V29.2614C265.238 29.3144 265.135 29.3641 264.982 29.4105C264.833 29.4536 264.663 29.4917 264.47 29.5249C264.278 29.5547 264.091 29.5829 263.909 29.6094C263.726 29.6326 263.574 29.6525 263.451 29.669C263.163 29.7055 262.899 29.7668 262.661 29.853C262.425 29.9392 262.236 30.0634 262.094 30.2259C261.955 30.3849 261.885 30.5971 261.885 30.8622C261.885 31.2301 262.021 31.5085 262.293 31.6974C262.565 31.883 262.911 31.9759 263.332 31.9759ZM271.616 33.1491C270.999 33.1491 270.449 32.9917 269.965 32.6768C269.485 32.3587 269.107 31.9062 268.832 31.3196C268.56 30.7296 268.424 30.022 268.424 29.1967C268.424 28.3714 268.562 27.6655 268.837 27.0788C269.115 26.4922 269.496 26.0431 269.98 25.7315C270.464 25.42 271.013 25.2642 271.626 25.2642C272.1 25.2642 272.481 25.3438 272.769 25.5028C273.061 25.6586 273.286 25.8409 273.445 26.0497C273.608 26.2585 273.734 26.4425 273.823 26.6016H273.913V22.8182H275.399V33H273.947V31.8118H273.823C273.734 31.9742 273.604 32.1598 273.435 32.3686C273.27 32.5774 273.041 32.7597 272.749 32.9155C272.458 33.0713 272.08 33.1491 271.616 33.1491ZM271.944 31.8814C272.371 31.8814 272.733 31.7687 273.028 31.5433C273.326 31.3146 273.551 30.9981 273.704 30.5938C273.86 30.1894 273.938 29.7187 273.938 29.1818C273.938 28.6515 273.861 28.1875 273.709 27.7898C273.556 27.392 273.333 27.0821 273.038 26.8601C272.743 26.638 272.378 26.527 271.944 26.527C271.496 26.527 271.124 26.643 270.825 26.875C270.527 27.107 270.302 27.4235 270.149 27.8246C270 28.2256 269.925 28.678 269.925 29.1818C269.925 29.6922 270.002 30.1513 270.154 30.5589C270.307 30.9666 270.532 31.2898 270.83 31.5284C271.132 31.7637 271.503 31.8814 271.944 31.8814ZM134.564 46.3636V47.5568H130.393V46.3636H134.564ZM131.511 44.5341H132.998V51.7578C132.998 52.0462 133.041 52.2633 133.127 52.4091C133.213 52.5516 133.324 52.6494 133.46 52.7024C133.599 52.7521 133.75 52.777 133.913 52.777C134.032 52.777 134.136 52.7687 134.226 52.7521C134.315 52.7356 134.385 52.7223 134.435 52.7124L134.703 53.9403C134.617 53.9735 134.494 54.0066 134.335 54.0398C134.176 54.0762 133.977 54.0961 133.739 54.0994C133.348 54.1061 132.983 54.0365 132.645 53.8906C132.307 53.7448 132.033 53.5194 131.825 53.2145C131.616 52.9096 131.511 52.5268 131.511 52.0661V44.5341ZM137.859 49.4659V54H136.372V43.8182H137.839V47.6065H137.933C138.112 47.1955 138.386 46.8691 138.754 46.6271C139.122 46.3852 139.602 46.2642 140.195 46.2642C140.719 46.2642 141.177 46.3719 141.568 46.5874C141.962 46.8028 142.267 47.1243 142.482 47.5518C142.701 47.9761 142.811 48.5064 142.811 49.1428V54H141.324V49.3217C141.324 48.7616 141.18 48.3274 140.892 48.0192C140.603 47.7076 140.202 47.5518 139.688 47.5518C139.337 47.5518 139.022 47.6264 138.744 47.7756C138.469 47.9247 138.252 48.1435 138.093 48.4318C137.937 48.7169 137.859 49.0616 137.859 49.4659ZM148.085 54.1541C147.333 54.1541 146.685 53.9934 146.142 53.6719C145.601 53.3471 145.184 52.8913 144.889 52.3047C144.597 51.7147 144.451 51.0237 144.451 50.2315C144.451 49.4493 144.597 48.7599 144.889 48.1634C145.184 47.5668 145.595 47.1011 146.122 46.7663C146.652 46.4316 147.272 46.2642 147.981 46.2642C148.412 46.2642 148.829 46.3355 149.234 46.478C149.638 46.6205 150.001 46.8442 150.323 47.1491C150.644 47.4541 150.898 47.8501 151.083 48.3374C151.269 48.8213 151.362 49.4096 151.362 50.1023V50.6293H145.291V49.5156H149.905C149.905 49.1245 149.825 48.7782 149.666 48.4766C149.507 48.1716 149.284 47.9313 148.995 47.7557C148.71 47.58 148.375 47.4922 147.991 47.4922C147.573 47.4922 147.209 47.5949 146.897 47.8004C146.589 48.0026 146.35 48.2678 146.181 48.5959C146.016 48.9207 145.933 49.2737 145.933 49.6548V50.5249C145.933 51.0353 146.022 51.4695 146.201 51.8274C146.383 52.1854 146.637 52.4588 146.962 52.6477C147.287 52.8333 147.666 52.9261 148.1 52.9261C148.382 52.9261 148.639 52.8864 148.871 52.8068C149.103 52.724 149.303 52.6013 149.472 52.4389C149.642 52.2765 149.771 52.076 149.86 51.8374L151.267 52.0909C151.155 52.5052 150.952 52.8681 150.661 53.1797C150.372 53.4879 150.009 53.7282 149.572 53.9006C149.138 54.0696 148.642 54.1541 148.085 54.1541ZM157.695 54H156.065L159.729 43.8182H161.504L165.168 54H163.537L160.659 45.6676H160.579L157.695 54ZM157.969 50.0128H163.259V51.3054H157.969V50.0128ZM166.519 56.8636V46.3636H167.971V47.6016H168.095C168.181 47.4425 168.305 47.2585 168.468 47.0497C168.63 46.8409 168.855 46.6586 169.144 46.5028C169.432 46.3438 169.813 46.2642 170.287 46.2642C170.904 46.2642 171.454 46.42 171.938 46.7315C172.422 47.0431 172.801 47.4922 173.076 48.0788C173.355 48.6655 173.494 49.3714 173.494 50.1967C173.494 51.022 173.356 51.7296 173.081 52.3196C172.806 52.9062 172.428 53.3587 171.948 53.6768C171.467 53.9917 170.919 54.1491 170.302 54.1491C169.838 54.1491 169.459 54.0713 169.164 53.9155C168.872 53.7597 168.643 53.5774 168.478 53.3686C168.312 53.1598 168.184 52.9742 168.095 52.8118H168.005V56.8636H166.519ZM167.975 50.1818C167.975 50.7187 168.053 51.1894 168.209 51.5938C168.365 51.9981 168.59 52.3146 168.885 52.5433C169.18 52.7687 169.542 52.8814 169.969 52.8814C170.413 52.8814 170.784 52.7637 171.083 52.5284C171.381 52.2898 171.606 51.9666 171.759 51.5589C171.915 51.1513 171.993 50.6922 171.993 50.1818C171.993 49.678 171.916 49.2256 171.764 48.8246C171.615 48.4235 171.389 48.107 171.088 47.875C170.789 47.643 170.417 47.527 169.969 47.527C169.538 47.527 169.174 47.638 168.875 47.8601C168.58 48.0821 168.357 48.392 168.204 48.7898C168.052 49.1875 167.975 49.6515 167.975 50.1818ZM175.159 56.8636V46.3636H176.611V47.6016H176.735C176.822 47.4425 176.946 47.2585 177.108 47.0497C177.271 46.8409 177.496 46.6586 177.784 46.5028C178.073 46.3438 178.454 46.2642 178.928 46.2642C179.544 46.2642 180.095 46.42 180.578 46.7315C181.062 47.0431 181.442 47.4922 181.717 48.0788C181.995 48.6655 182.135 49.3714 182.135 50.1967C182.135 51.022 181.997 51.7296 181.722 52.3196C181.447 52.9062 181.069 53.3587 180.588 53.6768C180.108 53.9917 179.559 54.1491 178.943 54.1491C178.479 54.1491 178.099 54.0713 177.804 53.9155C177.513 53.7597 177.284 53.5774 177.118 53.3686C176.953 53.1598 176.825 52.9742 176.735 52.8118H176.646V56.8636H175.159ZM176.616 50.1818C176.616 50.7187 176.694 51.1894 176.85 51.5938C177.006 51.9981 177.231 52.3146 177.526 52.5433C177.821 52.7687 178.182 52.8814 178.61 52.8814C179.054 52.8814 179.425 52.7637 179.723 52.5284C180.022 52.2898 180.247 51.9666 180.4 51.5589C180.555 51.1513 180.633 50.6922 180.633 50.1818C180.633 49.678 180.557 49.2256 180.404 48.8246C180.255 48.4235 180.03 48.107 179.728 47.875C179.43 47.643 179.057 47.527 178.61 47.527C178.179 47.527 177.814 47.638 177.516 47.8601C177.221 48.0821 176.997 48.392 176.845 48.7898C176.692 49.1875 176.616 49.6515 176.616 50.1818ZM189.161 54L186.914 46.3636H188.45L189.946 51.9716H190.021L191.522 46.3636H193.058L194.55 51.9467H194.624L196.111 46.3636H197.647L195.405 54H193.889L192.338 48.4865H192.223L190.672 54H189.161ZM199.058 54V46.3636H200.544V54H199.058ZM199.809 45.1854C199.55 45.1854 199.328 45.0992 199.142 44.9268C198.96 44.7512 198.869 44.5424 198.869 44.3004C198.869 44.0552 198.96 43.8464 199.142 43.674C199.328 43.4983 199.55 43.4105 199.809 43.4105C200.067 43.4105 200.288 43.4983 200.47 43.674C200.655 43.8464 200.748 44.0552 200.748 44.3004C200.748 44.5424 200.655 44.7512 200.47 44.9268C200.288 45.0992 200.067 45.1854 199.809 45.1854ZM206.109 46.3636V47.5568H201.938V46.3636H206.109ZM203.056 44.5341H204.543V51.7578C204.543 52.0462 204.586 52.2633 204.672 52.4091C204.758 52.5516 204.869 52.6494 205.005 52.7024C205.144 52.7521 205.295 52.777 205.458 52.777C205.577 52.777 205.681 52.7687 205.771 52.7521C205.86 52.7356 205.93 52.7223 205.98 52.7124L206.248 53.9403C206.162 53.9735 206.039 54.0066 205.88 54.0398C205.721 54.0762 205.522 54.0961 205.284 54.0994C204.892 54.1061 204.528 54.0365 204.19 53.8906C203.852 53.7448 203.578 53.5194 203.369 53.2145C203.161 52.9096 203.056 52.5268 203.056 52.0661V44.5341ZM209.404 49.4659V54H207.917V43.8182H209.384V47.6065H209.478C209.657 47.1955 209.931 46.8691 210.299 46.6271C210.667 46.3852 211.147 46.2642 211.74 46.2642C212.264 46.2642 212.721 46.3719 213.113 46.5874C213.507 46.8028 213.812 47.1243 214.027 47.5518C214.246 47.9761 214.355 48.5064 214.355 49.1428V54H212.869V49.3217C212.869 48.7616 212.725 48.3274 212.436 48.0192C212.148 47.7076 211.747 47.5518 211.233 47.5518C210.882 47.5518 210.567 47.6264 210.289 47.7756C210.014 47.9247 209.797 48.1435 209.637 48.4318C209.482 48.7169 209.404 49.0616 209.404 49.4659ZM220.164 43.8182H222.028L225.269 51.733H225.389L228.63 43.8182H230.494V54H229.033V46.6321H228.938L225.936 53.9851H224.722L221.72 46.6271H221.625V54H220.164V43.8182ZM232.226 45.1406V43.8182H240.106V45.1406H236.929V54H235.398V45.1406H232.226ZM240.537 52.0114V50.7685L244.937 43.8182H245.916V45.6477H245.295L242.148 50.6293V50.7088H248.178V52.0114H240.537ZM245.365 54V51.6335L245.374 51.0668V43.8182H246.831V54H245.365ZM253.809 43.3409L250.528 55.5312H249.2L252.481 43.3409H253.809ZM255.191 43.8182H257.055L260.297 51.733H260.416L263.657 43.8182H265.522V54H264.06V46.6321H263.966L260.963 53.9851H259.75L256.747 46.6271H256.653V54H255.191V43.8182ZM267.253 45.1406V43.8182H275.133V45.1406H271.956V54H270.425V45.1406H267.253ZM280.096 54.1392C279.473 54.1392 278.913 54.0199 278.416 53.7812C277.922 53.5393 277.527 53.2079 277.232 52.7869C276.937 52.366 276.78 51.8854 276.76 51.3452H278.252C278.288 51.7827 278.482 52.1423 278.833 52.424C279.185 52.7057 279.606 52.8466 280.096 52.8466C280.487 52.8466 280.834 52.7571 281.135 52.5781C281.44 52.3958 281.679 52.1456 281.851 51.8274C282.027 51.5092 282.115 51.1463 282.115 50.7386C282.115 50.3243 282.025 49.9548 281.846 49.63C281.667 49.3052 281.42 49.05 281.105 48.8643C280.794 48.6787 280.436 48.5843 280.031 48.581C279.723 48.581 279.413 48.634 279.102 48.7401C278.79 48.8461 278.538 48.9853 278.346 49.1577L276.939 48.9489L277.511 43.8182H283.109V45.1357H278.789L278.465 47.9844H278.525C278.724 47.7921 278.987 47.6314 279.316 47.5021C279.647 47.3729 280.002 47.3082 280.379 47.3082C280.999 47.3082 281.551 47.4557 282.035 47.7507C282.522 48.0457 282.905 48.4484 283.183 48.9588C283.465 49.4659 283.604 50.0492 283.601 50.7088C283.604 51.3684 283.455 51.9567 283.154 52.4737C282.855 52.9908 282.441 53.3984 281.911 53.6967C281.384 53.9917 280.779 54.1392 280.096 54.1392ZM130.999 75V67.3636H132.486V75H130.999ZM131.75 66.1854C131.491 66.1854 131.269 66.0992 131.084 65.9268C130.902 65.7512 130.81 65.5424 130.81 65.3004C130.81 65.0552 130.902 64.8464 131.084 64.674C131.269 64.4983 131.491 64.4105 131.75 64.4105C132.009 64.4105 132.229 64.4983 132.411 64.674C132.597 64.8464 132.69 65.0552 132.69 65.3004C132.69 65.5424 132.597 65.7512 132.411 65.9268C132.229 66.0992 132.009 66.1854 131.75 66.1854ZM135.972 70.4659V75H134.486V67.3636H135.912V68.6065H136.007C136.183 68.2022 136.458 67.8774 136.832 67.6321C137.21 67.3868 137.686 67.2642 138.259 67.2642C138.779 67.2642 139.235 67.3736 139.626 67.5923C140.017 67.8078 140.321 68.1293 140.536 68.5568C140.751 68.9844 140.859 69.513 140.859 70.1428V75H139.373V70.3217C139.373 69.7682 139.229 69.3357 138.94 69.0241C138.652 68.7093 138.256 68.5518 137.752 68.5518C137.407 68.5518 137.101 68.6264 136.832 68.7756C136.567 68.9247 136.357 69.1435 136.201 69.4318C136.048 69.7169 135.972 70.0616 135.972 70.4659ZM146.069 75.1541C145.33 75.1541 144.694 74.9867 144.16 74.652C143.63 74.3139 143.222 73.8482 142.937 73.255C142.652 72.6617 142.51 71.9822 142.51 71.2166C142.51 70.4411 142.656 69.7566 142.947 69.1634C143.239 68.5668 143.65 68.1011 144.18 67.7663C144.711 67.4316 145.335 67.2642 146.055 67.2642C146.635 67.2642 147.152 67.3719 147.606 67.5874C148.06 67.7995 148.426 68.0978 148.704 68.4822C148.986 68.8667 149.153 69.3158 149.206 69.8295H147.76C147.68 69.4716 147.498 69.1634 147.213 68.9048C146.931 68.6463 146.553 68.517 146.079 68.517C145.665 68.517 145.302 68.6264 144.991 68.8452C144.682 69.0606 144.442 69.3688 144.27 69.7699C144.097 70.1676 144.011 70.6383 144.011 71.1818C144.011 71.7386 144.096 72.2192 144.265 72.6236C144.434 73.0279 144.672 73.3411 144.981 73.5632C145.292 73.7853 145.658 73.8963 146.079 73.8963C146.361 73.8963 146.616 73.8449 146.845 73.7422C147.077 73.6361 147.271 73.4853 147.427 73.2898C147.586 73.0942 147.697 72.8589 147.76 72.5838H149.206C149.153 73.0777 148.993 73.5185 148.724 73.9062C148.456 74.294 148.096 74.599 147.645 74.821C147.198 75.0431 146.673 75.1541 146.069 75.1541ZM152.283 64.8182V75H150.796V64.8182H152.283ZM159.12 71.8331V67.3636H160.611V75H159.15V73.6776H159.07C158.894 74.0852 158.613 74.425 158.225 74.6967C157.84 74.9652 157.362 75.0994 156.788 75.0994C156.298 75.0994 155.863 74.9917 155.486 74.7763C155.111 74.5575 154.816 74.2344 154.601 73.8068C154.389 73.3793 154.282 72.8506 154.282 72.2209V67.3636H155.769V72.0419C155.769 72.5623 155.913 72.9766 156.202 73.2848C156.49 73.593 156.864 73.7472 157.325 73.7472C157.604 73.7472 157.88 73.6776 158.155 73.5384C158.434 73.3991 158.664 73.1887 158.846 72.907C159.032 72.6252 159.123 72.2673 159.12 71.8331ZM165.467 75.1491C164.851 75.1491 164.301 74.9917 163.817 74.6768C163.336 74.3587 162.958 73.9062 162.683 73.3196C162.411 72.7296 162.276 72.022 162.276 71.1967C162.276 70.3714 162.413 69.6655 162.688 69.0788C162.967 68.4922 163.348 68.0431 163.832 67.7315C164.316 67.42 164.864 67.2642 165.477 67.2642C165.951 67.2642 166.332 67.3438 166.621 67.5028C166.912 67.6586 167.138 67.8409 167.297 68.0497C167.459 68.2585 167.585 68.4425 167.675 68.6016H167.764V64.8182H169.251V75H167.799V73.8118H167.675C167.585 73.9742 167.456 74.1598 167.287 74.3686C167.121 74.5774 166.893 74.7597 166.601 74.9155C166.309 75.0713 165.931 75.1491 165.467 75.1491ZM165.795 73.8814C166.223 73.8814 166.584 73.7687 166.879 73.5433C167.178 73.3146 167.403 72.9981 167.555 72.5938C167.711 72.1894 167.789 71.7187 167.789 71.1818C167.789 70.6515 167.713 70.1875 167.56 69.7898C167.408 69.392 167.184 69.0821 166.889 68.8601C166.594 68.638 166.23 68.527 165.795 68.527C165.348 68.527 164.975 68.643 164.677 68.875C164.379 69.107 164.153 69.4235 164.001 69.8246C163.852 70.2256 163.777 70.678 163.777 71.1818C163.777 71.6922 163.853 72.1513 164.006 72.5589C164.158 72.9666 164.384 73.2898 164.682 73.5284C164.983 73.7637 165.355 73.8814 165.795 73.8814ZM174.664 75.1541C173.911 75.1541 173.263 74.9934 172.72 74.6719C172.179 74.3471 171.762 73.8913 171.467 73.3047C171.175 72.7147 171.029 72.0237 171.029 71.2315C171.029 70.4493 171.175 69.7599 171.467 69.1634C171.762 68.5668 172.173 68.1011 172.7 67.7663C173.23 67.4316 173.85 67.2642 174.559 67.2642C174.99 67.2642 175.408 67.3355 175.812 67.478C176.216 67.6205 176.579 67.8442 176.901 68.1491C177.222 68.4541 177.476 68.8501 177.661 69.3374C177.847 69.8213 177.94 70.4096 177.94 71.1023V71.6293H171.869V70.5156H176.483C176.483 70.1245 176.404 69.7782 176.244 69.4766C176.085 69.1716 175.862 68.9313 175.573 68.7557C175.288 68.58 174.954 68.4922 174.569 68.4922C174.151 68.4922 173.787 68.5949 173.475 68.8004C173.167 69.0026 172.928 69.2678 172.759 69.5959C172.594 69.9207 172.511 70.2737 172.511 70.6548V71.5249C172.511 72.0353 172.6 72.4695 172.779 72.8274C172.962 73.1854 173.215 73.4588 173.54 73.6477C173.865 73.8333 174.244 73.9261 174.678 73.9261C174.96 73.9261 175.217 73.8864 175.449 73.8068C175.681 73.724 175.882 73.6013 176.051 73.4389C176.22 73.2765 176.349 73.076 176.438 72.8374L177.845 73.0909C177.733 73.5052 177.53 73.8681 177.239 74.1797C176.95 74.4879 176.588 74.7282 176.15 74.9006C175.716 75.0696 175.22 75.1541 174.664 75.1541ZM182.448 75.1491C181.831 75.1491 181.281 74.9917 180.797 74.6768C180.317 74.3587 179.939 73.9062 179.664 73.3196C179.392 72.7296 179.256 72.022 179.256 71.1967C179.256 70.3714 179.394 69.6655 179.669 69.0788C179.947 68.4922 180.328 68.0431 180.812 67.7315C181.296 67.42 181.845 67.2642 182.458 67.2642C182.932 67.2642 183.313 67.3438 183.601 67.5028C183.893 67.6586 184.118 67.8409 184.277 68.0497C184.44 68.2585 184.566 68.4425 184.655 68.6016H184.745V64.8182H186.231V75H184.779V73.8118H184.655C184.566 73.9742 184.436 74.1598 184.267 74.3686C184.102 74.5774 183.873 74.7597 183.581 74.9155C183.29 75.0713 182.912 75.1491 182.448 75.1491ZM182.776 73.8814C183.203 73.8814 183.565 73.7687 183.86 73.5433C184.158 73.3146 184.383 72.9981 184.536 72.5938C184.692 72.1894 184.77 71.7187 184.77 71.1818C184.77 70.6515 184.693 70.1875 184.541 69.7898C184.388 69.392 184.165 69.0821 183.87 68.8601C183.575 68.638 183.21 68.527 182.776 68.527C182.328 68.527 181.956 68.643 181.657 68.875C181.359 69.107 181.134 69.4235 180.981 69.8246C180.832 70.2256 180.757 70.678 180.757 71.1818C180.757 71.6922 180.834 72.1513 180.986 72.5589C181.139 72.9666 181.364 73.2898 181.662 73.5284C181.964 73.7637 182.335 73.8814 182.776 73.8814ZM193.544 70.4659V75H192.058V67.3636H193.485V68.6065H193.579C193.755 68.2022 194.03 67.8774 194.404 67.6321C194.782 67.3868 195.258 67.2642 195.831 67.2642C196.352 67.2642 196.807 67.3736 197.199 67.5923C197.59 67.8078 197.893 68.1293 198.108 68.5568C198.324 68.9844 198.431 69.513 198.431 70.1428V75H196.945V70.3217C196.945 69.7682 196.801 69.3357 196.512 69.0241C196.224 68.7093 195.828 68.5518 195.324 68.5518C194.98 68.5518 194.673 68.6264 194.404 68.7756C194.139 68.9247 193.929 69.1435 193.773 69.4318C193.621 69.7169 193.544 70.0616 193.544 70.4659ZM203.642 75.1541C202.926 75.1541 202.301 74.9901 201.767 74.6619C201.234 74.3338 200.819 73.8748 200.525 73.2848C200.23 72.6948 200.082 72.0054 200.082 71.2166C200.082 70.4245 200.23 69.7318 200.525 69.1385C200.819 68.5452 201.234 68.0845 201.767 67.7564C202.301 67.4283 202.926 67.2642 203.642 67.2642C204.358 67.2642 204.982 67.4283 205.516 67.7564C206.05 68.0845 206.464 68.5452 206.759 69.1385C207.054 69.7318 207.201 70.4245 207.201 71.2166C207.201 72.0054 207.054 72.6948 206.759 73.2848C206.464 73.8748 206.05 74.3338 205.516 74.6619C204.982 74.9901 204.358 75.1541 203.642 75.1541ZM203.647 73.9062C204.111 73.9062 204.495 73.7836 204.8 73.5384C205.105 73.2931 205.33 72.9666 205.476 72.5589C205.625 72.1513 205.7 71.7022 205.7 71.2116C205.7 70.7244 205.625 70.277 205.476 69.8693C205.33 69.4583 205.105 69.1286 204.8 68.88C204.495 68.6314 204.111 68.5071 203.647 68.5071C203.179 68.5071 202.792 68.6314 202.483 68.88C202.178 69.1286 201.951 69.4583 201.802 69.8693C201.656 70.277 201.583 70.7244 201.583 71.2116C201.583 71.7022 201.656 72.1513 201.802 72.5589C201.951 72.9666 202.178 73.2931 202.483 73.5384C202.792 73.7836 203.179 73.9062 203.647 73.9062ZM210.284 75L208.037 67.3636H209.573L211.069 72.9716H211.144L212.645 67.3636H214.181L215.673 72.9467H215.748L217.234 67.3636H218.77L216.528 75H215.012L213.461 69.4865H213.346L211.795 75H210.284ZM222.055 64.8182L221.926 72.0717H220.549L220.42 64.8182H222.055ZM221.24 75.0945C220.965 75.0945 220.729 74.9983 220.534 74.8061C220.338 74.6106 220.242 74.3752 220.246 74.1001C220.242 73.8284 220.338 73.5964 220.534 73.4041C220.729 73.2086 220.965 73.1108 221.24 73.1108C221.508 73.1108 221.74 73.2086 221.936 73.4041C222.131 73.5964 222.231 73.8284 222.234 74.1001C222.231 74.2824 222.183 74.4498 222.09 74.6023C222.001 74.7514 221.881 74.8707 221.732 74.9602C221.583 75.0497 221.419 75.0945 221.24 75.0945Z" fill="#1D2B3F"/>
<path d="M3.44828 0H0V3.44828H3.44828V0Z" fill="#1D2B3F"/>
<path d="M6.89655 0H3.44828V3.44828H6.89655V0Z" fill="#1D2B3F"/>
<path d="M10.3448 0H6.89655V3.44828H10.3448V0Z" fill="#1D2B3F"/>
<path d="M13.7931 0H10.3448V3.44828H13.7931V0Z" fill="#1D2B3F"/>
<path d="M17.2414 0H13.7931V3.44828H17.2414V0Z" fill="#1D2B3F"/>
<path d="M20.6897 0H17.2414V3.44828H20.6897V0Z" fill="#1D2B3F"/>
<path d="M24.1379 0H20.6897V3.44828H24.1379V0Z" fill="#1D2B3F"/>
<path d="M31.0345 0H27.5862V3.44828H31.0345V0Z" fill="#1D2B3F"/>
<path d="M34.4828 0H31.0345V3.44828H34.4828V0Z" fill="#1D2B3F"/>
<path d="M62.069 0H58.6207V3.44828H62.069V0Z" fill="#1D2B3F"/>
<path d="M65.5172 0H62.069V3.44828H65.5172V0Z" fill="#1D2B3F"/>
<path d="M68.9655 0H65.5172V3.44828H68.9655V0Z" fill="#1D2B3F"/>
<path d="M72.4138 0H68.9655V3.44828H72.4138V0Z" fill="#1D2B3F"/>
<path d="M79.3103 0H75.8621V3.44828H79.3103V0Z" fill="#1D2B3F"/>
<path d="M82.7586 0H79.3103V3.44828H82.7586V0Z" fill="#1D2B3F"/>
<path d="M86.2069 0H82.7586V3.44828H86.2069V0Z" fill="#1D2B3F"/>
<path d="M89.6552 0H86.2069V3.44828H89.6552V0Z" fill="#1D2B3F"/>
<path d="M93.1034 0H89.6552V3.44828H93.1034V0Z" fill="#1D2B3F"/>
<path d="M96.5517 0H93.1034V3.44828H96.5517V0Z" fill="#1D2B3F"/>
<path d="M100 0H96.5517V3.44828H100V0Z" fill="#1D2B3F"/>
<path d="M3.44828 3.44828H0V6.89655H3.44828V3.44828Z" fill="#1D2B3F"/>
<path d="M24.1379 3.44828H20.6897V6.89655H24.1379V3.44828Z" fill="#1D2B3F"/>
<path d="M34.4828 3.44828H31.0345V6.89655H34.4828V3.44828Z" fill="#1D2B3F"/>
<path d="M41.3793 3.44828H37.931V6.89655H41.3793V3.44828Z" fill="#1D2B3F"/>
<path d="M44.8276 3.44828H41.3793V6.89655H44.8276V3.44828Z" fill="#1D2B3F"/>
<path d="M51.7241 3.44828H48.2759V6.89655H51.7241V3.44828Z" fill="#1D2B3F"/>
<path d="M58.6207 3.44828H55.1724V6.89655H58.6207V3.44828Z" fill="#1D2B3F"/>
<path d="M79.3103 3.44828H75.8621V6.89655H79.3103V3.44828Z" fill="#1D2B3F"/>
<path d="M100 3.44828H96.5517V6.89655H100V3.44828Z" fill="#1D2B3F"/>
<path d="M3.44828 6.89655H0V10.3448H3.44828V6.89655Z" fill="#1D2B3F"/>
<path d="M10.3448 6.89655H6.89655V10.3448H10.3448V6.89655Z" fill="#1D2B3F"/>
<path d="M13.7931 6.89655H10.3448V10.3448H13.7931V6.89655Z" fill="#1D2B3F"/>
<path d="M17.2414 6.89655H13.7931V10.3448H17.2414V6.89655Z" fill="#1D2B3F"/>
<path d="M24.1379 6.89655H20.6897V10.3448H24.1379V6.89655Z" fill="#1D2B3F"/>
<path d="M31.0345 6.89655H27.5862V10.3448H31.0345V6.89655Z" fill="#1D2B3F"/>
<path d="M44.8276 6.89655H41.3793V10.3448H44.8276V6.89655Z" fill="#1D2B3F"/>
<path d="M48.2759 6.89655H44.8276V10.3448H48.2759V6.89655Z" fill="#1D2B3F"/>
<path d="M58.6207 6.89655H55.1724V10.3448H58.6207V6.89655Z" fill="#1D2B3F"/>
<path d="M72.4138 6.89655H68.9655V10.3448H72.4138V6.89655Z" fill="#1D2B3F"/>
<path d="M79.3103 6.89655H75.8621V10.3448H79.3103V6.89655Z" fill="#1D2B3F"/>
<path d="M86.2069 6.89655H82.7586V10.3448H86.2069V6.89655Z" fill="#1D2B3F"/>
<path d="M89.6552 6.89655H86.2069V10.3448H89.6552V6.89655Z" fill="#1D2B3F"/>
<path d="M93.1034 6.89655H89.6552V10.3448H93.1034V6.89655Z" fill="#1D2B3F"/>
<path d="M100 6.89655H96.5517V10.3448H100V6.89655Z" fill="#1D2B3F"/>
<path d="M3.44828 10.3448H0V13.7931H3.44828V10.3448Z" fill="#1D2B3F"/>
<path d="M10.3448 10.3448H6.89655V13.7931H10.3448V10.3448Z" fill="#1D2B3F"/>
<path d="M13.7931 10.3448H10.3448V13.7931H13.7931V10.3448Z" fill="#1D2B3F"/>
<path d="M17.2414 10.3448H13.7931V13.7931H17.2414V10.3448Z" fill="#1D2B3F"/>
<path d="M24.1379 10.3448H20.6897V13.7931H24.1379V10.3448Z" fill="#1D2B3F"/>
<path d="M31.0345 10.3448H27.5862V13.7931H31.0345V10.3448Z" fill="#1D2B3F"/>
<path d="M37.931 10.3448H34.4828V13.7931H37.931V10.3448Z" fill="#1D2B3F"/>
<path d="M41.3793 10.3448H37.931V13.7931H41.3793V10.3448Z" fill="#1D2B3F"/>
<path d="M48.2759 10.3448H44.8276V13.7931H48.2759V10.3448Z" fill="#1D2B3F"/>
<path d="M55.1724 10.3448H51.7241V13.7931H55.1724V10.3448Z" fill="#1D2B3F"/>
<path d="M62.069 10.3448H58.6207V13.7931H62.069V10.3448Z" fill="#1D2B3F"/>
<path d="M72.4138 10.3448H68.9655V13.7931H72.4138V10.3448Z" fill="#1D2B3F"/>
<path d="M79.3103 10.3448H75.8621V13.7931H79.3103V10.3448Z" fill="#1D2B3F"/>
<path d="M86.2069 10.3448H82.7586V13.7931H86.2069V10.3448Z" fill="#1D2B3F"/>
<path d="M89.6552 10.3448H86.2069V13.7931H89.6552V10.3448Z" fill="#1D2B3F"/>
<path d="M93.1034 10.3448H89.6552V13.7931H93.1034V10.3448Z" fill="#1D2B3F"/>
<path d="M100 10.3448H96.5517V13.7931H100V10.3448Z" fill="#1D2B3F"/>
<path d="M3.44828 13.7931H0V17.2414H3.44828V13.7931Z" fill="#1D2B3F"/>
<path d="M10.3448 13.7931H6.89655V17.2414H10.3448V13.7931Z" fill="#1D2B3F"/>
<path d="M13.7931 13.7931H10.3448V17.2414H13.7931V13.7931Z" fill="#1D2B3F"/>
<path d="M17.2414 13.7931H13.7931V17.2414H17.2414V13.7931Z" fill="#1D2B3F"/>
<path d="M24.1379 13.7931H20.6897V17.2414H24.1379V13.7931Z" fill="#1D2B3F"/>
<path d="M31.0345 13.7931H27.5862V17.2414H31.0345V13.7931Z" fill="#1D2B3F"/>
<path d="M34.4828 13.7931H31.0345V17.2414H34.4828V13.7931Z" fill="#1D2B3F"/>
<path d="M44.8276 13.7931H41.3793V17.2414H44.8276V13.7931Z" fill="#1D2B3F"/>
<path d="M51.7241 13.7931H48.2759V17.2414H51.7241V13.7931Z" fill="#1D2B3F"/>
<path d="M62.069 13.7931H58.6207V17.2414H62.069V13.7931Z" fill="#1D2B3F"/>
<path d="M65.5172 13.7931H62.069V17.2414H65.5172V13.7931Z" fill="#1D2B3F"/>
<path d="M68.9655 13.7931H65.5172V17.2414H68.9655V13.7931Z" fill="#1D2B3F"/>
<path d="M79.3103 13.7931H75.8621V17.2414H79.3103V13.7931Z" fill="#1D2B3F"/>
<path d="M86.2069 13.7931H82.7586V17.2414H86.2069V13.7931Z" fill="#1D2B3F"/>
<path d="M89.6552 13.7931H86.2069V17.2414H89.6552V13.7931Z" fill="#1D2B3F"/>
<path d="M93.1034 13.7931H89.6552V17.2414H93.1034V13.7931Z" fill="#1D2B3F"/>
<path d="M100 13.7931H96.5517V17.2414H100V13.7931Z" fill="#1D2B3F"/>
<path d="M3.44828 17.2414H0V20.6897H3.44828V17.2414Z" fill="#1D2B3F"/>
<path d="M24.1379 17.2414H20.6897V20.6897H24.1379V17.2414Z" fill="#1D2B3F"/>
<path d="M31.0345 17.2414H27.5862V20.6897H31.0345V17.2414Z" fill="#1D2B3F"/>
<path d="M34.4828 17.2414H31.0345V20.6897H34.4828V17.2414Z" fill="#1D2B3F"/>
<path d="M48.2759 17.2414H44.8276V20.6897H48.2759V17.2414Z" fill="#1D2B3F"/>
<path d="M58.6207 17.2414H55.1724V20.6897H58.6207V17.2414Z" fill="#1D2B3F"/>
<path d="M65.5172 17.2414H62.069V20.6897H65.5172V17.2414Z" fill="#1D2B3F"/>
<path d="M72.4138 17.2414H68.9655V20.6897H72.4138V17.2414Z" fill="#1D2B3F"/>
<path d="M79.3103 17.2414H75.8621V20.6897H79.3103V17.2414Z" fill="#1D2B3F"/>
<path d="M100 17.2414H96.5517V20.6897H100V17.2414Z" fill="#1D2B3F"/>
<path d="M3.44828 20.6897H0V24.1379H3.44828V20.6897Z" fill="#1D2B3F"/>
<path d="M6.89655 20.6897H3.44828V24.1379H6.89655V20.6897Z" fill="#1D2B3F"/>
<path d="M10.3448 20.6897H6.89655V24.1379H10.3448V20.6897Z" fill="#1D2B3F"/>
<path d="M13.7931 20.6897H10.3448V24.1379H13.7931V20.6897Z" fill="#1D2B3F"/>
<path d="M17.2414 20.6897H13.7931V24.1379H17.2414V20.6897Z" fill="#1D2B3F"/>
<path d="M20.6897 20.6897H17.2414V24.1379H20.6897V20.6897Z" fill="#1D2B3F"/>
<path d="M24.1379 20.6897H20.6897V24.1379H24.1379V20.6897Z" fill="#1D2B3F"/>
<path d="M31.0345 20.6897H27.5862V24.1379H31.0345V20.6897Z" fill="#1D2B3F"/>
<path d="M37.931 20.6897H34.4828V24.1379H37.931V20.6897Z" fill="#1D2B3F"/>
<path d="M44.8276 20.6897H41.3793V24.1379H44.8276V20.6897Z" fill="#1D2B3F"/>
<path d="M51.7241 20.6897H48.2759V24.1379H51.7241V20.6897Z" fill="#1D2B3F"/>
<path d="M58.6207 20.6897H55.1724V24.1379H58.6207V20.6897Z" fill="#1D2B3F"/>
<path d="M65.5172 20.6897H62.069V24.1379H65.5172V20.6897Z" fill="#1D2B3F"/>
<path d="M72.4138 20.6897H68.9655V24.1379H72.4138V20.6897Z" fill="#1D2B3F"/>
<path d="M79.3103 20.6897H75.8621V24.1379H79.3103V20.6897Z" fill="#1D2B3F"/>
<path d="M82.7586 20.6897H79.3103V24.1379H82.7586V20.6897Z" fill="#1D2B3F"/>
<path d="M86.2069 20.6897H82.7586V24.1379H86.2069V20.6897Z" fill="#1D2B3F"/>
<path d="M89.6552 20.6897H86.2069V24.1379H89.6552V20.6897Z" fill="#1D2B3F"/>
<path d="M93.1034 20.6897H89.6552V24.1379H93.1034V20.6897Z" fill="#1D2B3F"/>
<path d="M96.5517 20.6897H93.1034V24.1379H96.5517V20.6897Z" fill="#1D2B3F"/>
<path d="M100 20.6897H96.5517V24.1379H100V20.6897Z" fill="#1D2B3F"/>
<path d="M34.4828 24.1379H31.0345V27.5862H34.4828V24.1379Z" fill="#1D2B3F"/>
<path d="M41.3793 24.1379H37.931V27.5862H41.3793V24.1379Z" fill="#1D2B3F"/>
<path d="M48.2759 24.1379H44.8276V27.5862H48.2759V24.1379Z" fill="#1D2B3F"/>
<path d="M55.1724 24.1379H51.7241V27.5862H55.1724V24.1379Z" fill="#1D2B3F"/>
<path d="M58.6207 24.1379H55.1724V27.5862H58.6207V24.1379Z" fill="#1D2B3F"/>
<path d="M65.5172 24.1379H62.069V27.5862H65.5172V24.1379Z" fill="#1D2B3F"/>
<path d="M10.3448 27.5862H6.89655V31.0345H10.3448V27.5862Z" fill="#1D2B3F"/>
<path d="M13.7931 27.5862H10.3448V31.0345H13.7931V27.5862Z" fill="#1D2B3F"/>
<path d="M17.2414 27.5862H13.7931V31.0345H17.2414V27.5862Z" fill="#1D2B3F"/>
<path d="M20.6897 27.5862H17.2414V31.0345H20.6897V27.5862Z" fill="#1D2B3F"/>
<path d="M24.1379 27.5862H20.6897V31.0345H24.1379V27.5862Z" fill="#1D2B3F"/>
<path d="M27.5862 27.5862H24.1379V31.0345H27.5862V27.5862Z" fill="#1D2B3F"/>
<path d="M75.8621 27.5862H72.4138V31.0345H75.8621V27.5862Z" fill="#1D2B3F"/>
<path d="M82.7586 27.5862H79.3103V31.0345H82.7586V27.5862Z" fill="#1D2B3F"/>
<path d="M86.2069 27.5862H82.7586V31.0345H86.2069V27.5862Z" fill="#1D2B3F"/>
<path d="M89.6552 27.5862H86.2069V31.0345H89.6552V27.5862Z" fill="#1D2B3F"/>
<path d="M93.1034 27.5862H89.6552V31.0345H93.1034V27.5862Z" fill="#1D2B3F"/>
<path d="M100 27.5862H96.5517V31.0345H100V27.5862Z" fill="#1D2B3F"/>
<path d="M6.89655 31.0345H3.44828V34.4828H6.89655V31.0345Z" fill="#1D2B3F"/>
<path d="M20.6897 31.0345H17.2414V34.4828H20.6897V31.0345Z" fill="#1D2B3F"/>
<path d="M27.5862 31.0345H24.1379V34.4828H27.5862V31.0345Z" fill="#1D2B3F"/>
<path d="M75.8621 31.0345H72.4138V34.4828H75.8621V31.0345Z" fill="#1D2B3F"/>
<path d="M79.3103 31.0345H75.8621V34.4828H79.3103V31.0345Z" fill="#1D2B3F"/>
<path d="M86.2069 31.0345H82.7586V34.4828H86.2069V31.0345Z" fill="#1D2B3F"/>
<path d="M93.1034 31.0345H89.6552V34.4828H93.1034V31.0345Z" fill="#1D2B3F"/>
<path d="M96.5517 31.0345H93.1034V34.4828H96.5517V31.0345Z" fill="#1D2B3F"/>
<path d="M100 31.0345H96.5517V34.4828H100V31.0345Z" fill="#1D2B3F"/>
<path d="M6.89655 34.4828H3.44828V37.931H6.89655V34.4828Z" fill="#1D2B3F"/>
<path d="M20.6897 34.4828H17.2414V37.931H20.6897V34.4828Z" fill="#1D2B3F"/>
<path d="M24.1379 34.4828H20.6897V37.931H24.1379V34.4828Z" fill="#1D2B3F"/>
<path d="M27.5862 34.4828H24.1379V37.931H27.5862V34.4828Z" fill="#1D2B3F"/>
<path d="M75.8621 34.4828H72.4138V37.931H75.8621V34.4828Z" fill="#1D2B3F"/>
<path d="M96.5517 34.4828H93.1034V37.931H96.5517V34.4828Z" fill="#1D2B3F"/>
<path d="M100 34.4828H96.5517V37.931H100V34.4828Z" fill="#1D2B3F"/>
<path d="M86.2069 37.931H82.7586V41.3793H86.2069V37.931Z" fill="#1D2B3F"/>
<path d="M89.6552 37.931H86.2069V41.3793H89.6552V37.931Z" fill="#1D2B3F"/>
<path d="M93.1034 37.931H89.6552V41.3793H93.1034V37.931Z" fill="#1D2B3F"/>
<path d="M96.5517 37.931H93.1034V41.3793H96.5517V37.931Z" fill="#1D2B3F"/>
<path d="M100 37.931H96.5517V41.3793H100V37.931Z" fill="#1D2B3F"/>
<path d="M3.44828 41.3793H0V44.8276H3.44828V41.3793Z" fill="#1D2B3F"/>
<path d="M13.7931 41.3793H10.3448V44.8276H13.7931V41.3793Z" fill="#1D2B3F"/>
<path d="M17.2414 41.3793H13.7931V44.8276H17.2414V41.3793Z" fill="#1D2B3F"/>
<path d="M20.6897 41.3793H17.2414V44.8276H20.6897V41.3793Z" fill="#1D2B3F"/>
<path d="M24.1379 41.3793H20.6897V44.8276H24.1379V41.3793Z" fill="#1D2B3F"/>
<path d="M79.3103 41.3793H75.8621V44.8276H79.3103V41.3793Z" fill="#1D2B3F"/>
<path d="M89.6552 41.3793H86.2069V44.8276H89.6552V41.3793Z" fill="#1D2B3F"/>
<path d="M96.5517 41.3793H93.1034V44.8276H96.5517V41.3793Z" fill="#1D2B3F"/>
<path d="M13.7931 44.8276H10.3448V48.2759H13.7931V44.8276Z" fill="#1D2B3F"/>
<path d="M96.5517 44.8276H93.1034V48.2759H96.5517V44.8276Z" fill="#1D2B3F"/>
<path d="M10.3448 48.2759H6.89655V51.7241H10.3448V48.2759Z" fill="#1D2B3F"/>
<path d="M13.7931 48.2759H10.3448V51.7241H13.7931V48.2759Z" fill="#1D2B3F"/>
<path d="M20.6897 48.2759H17.2414V51.7241H20.6897V48.2759Z" fill="#1D2B3F"/>
<path d="M24.1379 48.2759H20.6897V51.7241H24.1379V48.2759Z" fill="#1D2B3F"/>
<path d="M27.5862 48.2759H24.1379V51.7241H27.5862V48.2759Z" fill="#1D2B3F"/>
<path d="M82.7586 48.2759H79.3103V51.7241H82.7586V48.2759Z" fill="#1D2B3F"/>
<path d="M89.6552 48.2759H86.2069V51.7241H89.6552V48.2759Z" fill="#1D2B3F"/>
<path d="M100 48.2759H96.5517V51.7241H100V48.2759Z" fill="#1D2B3F"/>
<path d="M6.89655 51.7241H3.44828V55.1724H6.89655V51.7241Z" fill="#1D2B3F"/>
<path d="M10.3448 51.7241H6.89655V55.1724H10.3448V51.7241Z" fill="#1D2B3F"/>
<path d="M13.7931 51.7241H10.3448V55.1724H13.7931V51.7241Z" fill="#1D2B3F"/>
<path d="M20.6897 51.7241H17.2414V55.1724H20.6897V51.7241Z" fill="#1D2B3F"/>
<path d="M27.5862 51.7241H24.1379V55.1724H27.5862V51.7241Z" fill="#1D2B3F"/>
<path d="M79.3103 51.7241H75.8621V55.1724H79.3103V51.7241Z" fill="#1D2B3F"/>
<path d="M82.7586 51.7241H79.3103V55.1724H82.7586V51.7241Z" fill="#1D2B3F"/>
<path d="M93.1034 51.7241H89.6552V55.1724H93.1034V51.7241Z" fill="#1D2B3F"/>
<path d="M3.44828 55.1724H0V58.6207H3.44828V55.1724Z" fill="#1D2B3F"/>
<path d="M10.3448 55.1724H6.89655V58.6207H10.3448V55.1724Z" fill="#1D2B3F"/>
<path d="M13.7931 55.1724H10.3448V58.6207H13.7931V55.1724Z" fill="#1D2B3F"/>
<path d="M20.6897 55.1724H17.2414V58.6207H20.6897V55.1724Z" fill="#1D2B3F"/>
<path d="M24.1379 55.1724H20.6897V58.6207H24.1379V55.1724Z" fill="#1D2B3F"/>
<path d="M75.8621 55.1724H72.4138V58.6207H75.8621V55.1724Z" fill="#1D2B3F"/>
<path d="M89.6552 55.1724H86.2069V58.6207H89.6552V55.1724Z" fill="#1D2B3F"/>
<path d="M93.1034 55.1724H89.6552V58.6207H93.1034V55.1724Z" fill="#1D2B3F"/>
<path d="M96.5517 55.1724H93.1034V58.6207H96.5517V55.1724Z" fill="#1D2B3F"/>
<path d="M3.44828 58.6207H0V62.069H3.44828V58.6207Z" fill="#1D2B3F"/>
<path d="M13.7931 58.6207H10.3448V62.069H13.7931V58.6207Z" fill="#1D2B3F"/>
<path d="M93.1034 58.6207H89.6552V62.069H93.1034V58.6207Z" fill="#1D2B3F"/>
<path d="M100 58.6207H96.5517V62.069H100V58.6207Z" fill="#1D2B3F"/>
<path d="M3.44828 62.069H0V65.5172H3.44828V62.069Z" fill="#1D2B3F"/>
<path d="M17.2414 62.069H13.7931V65.5172H17.2414V62.069Z" fill="#1D2B3F"/>
<path d="M24.1379 62.069H20.6897V65.5172H24.1379V62.069Z" fill="#1D2B3F"/>
<path d="M75.8621 62.069H72.4138V65.5172H75.8621V62.069Z" fill="#1D2B3F"/>
<path d="M93.1034 62.069H89.6552V65.5172H93.1034V62.069Z" fill="#1D2B3F"/>
<path d="M100 62.069H96.5517V65.5172H100V62.069Z" fill="#1D2B3F"/>
<path d="M3.44828 65.5172H0V68.9655H3.44828V65.5172Z" fill="#1D2B3F"/>
<path d="M10.3448 65.5172H6.89655V68.9655H10.3448V65.5172Z" fill="#1D2B3F"/>
<path d="M13.7931 65.5172H10.3448V68.9655H13.7931V65.5172Z" fill="#1D2B3F"/>
<path d="M17.2414 65.5172H13.7931V68.9655H17.2414V65.5172Z" fill="#1D2B3F"/>
<path d="M27.5862 65.5172H24.1379V68.9655H27.5862V65.5172Z" fill="#1D2B3F"/>
<path d="M79.3103 65.5172H75.8621V68.9655H79.3103V65.5172Z" fill="#1D2B3F"/>
<path d="M82.7586 65.5172H79.3103V68.9655H82.7586V65.5172Z" fill="#1D2B3F"/>
<path d="M89.6552 65.5172H86.2069V68.9655H89.6552V65.5172Z" fill="#1D2B3F"/>
<path d="M93.1034 65.5172H89.6552V68.9655H93.1034V65.5172Z" fill="#1D2B3F"/>
<path d="M100 65.5172H96.5517V68.9655H100V65.5172Z" fill="#1D2B3F"/>
<path d="M3.44828 68.9655H0V72.4138H3.44828V68.9655Z" fill="#1D2B3F"/>
<path d="M10.3448 68.9655H6.89655V72.4138H10.3448V68.9655Z" fill="#1D2B3F"/>
<path d="M20.6897 68.9655H17.2414V72.4138H20.6897V68.9655Z" fill="#1D2B3F"/>
<path d="M24.1379 68.9655H20.6897V72.4138H24.1379V68.9655Z" fill="#1D2B3F"/>
<path d="M75.8621 68.9655H72.4138V72.4138H75.8621V68.9655Z" fill="#1D2B3F"/>
<path d="M79.3103 68.9655H75.8621V72.4138H79.3103V68.9655Z" fill="#1D2B3F"/>
<path d="M82.7586 68.9655H79.3103V72.4138H82.7586V68.9655Z" fill="#1D2B3F"/>
<path d="M86.2069 68.9655H82.7586V72.4138H86.2069V68.9655Z" fill="#1D2B3F"/>
<path d="M96.5517 68.9655H93.1034V72.4138H96.5517V68.9655Z" fill="#1D2B3F"/>
<path d="M86.2069 72.4138H82.7586V75.8621H86.2069V72.4138Z" fill="#1D2B3F"/>
<path d="M93.1034 72.4138H89.6552V75.8621H93.1034V72.4138Z" fill="#1D2B3F"/>
<path d="M100 72.4138H96.5517V75.8621H100V72.4138Z" fill="#1D2B3F"/>
<path d="M3.44828 75.8621H0V79.3103H3.44828V75.8621Z" fill="#1D2B3F"/>
<path d="M6.89655 75.8621H3.44828V79.3103H6.89655V75.8621Z" fill="#1D2B3F"/>
<path d="M10.3448 75.8621H6.89655V79.3103H10.3448V75.8621Z" fill="#1D2B3F"/>
<path d="M13.7931 75.8621H10.3448V79.3103H13.7931V75.8621Z" fill="#1D2B3F"/>
<path d="M17.2414 75.8621H13.7931V79.3103H17.2414V75.8621Z" fill="#1D2B3F"/>
<path d="M20.6897 75.8621H17.2414V79.3103H20.6897V75.8621Z" fill="#1D2B3F"/>
<path d="M24.1379 75.8621H20.6897V79.3103H24.1379V75.8621Z" fill="#1D2B3F"/>
<path d="M79.3103 75.8621H75.8621V79.3103H79.3103V75.8621Z" fill="#1D2B3F"/>
<path d="M86.2069 75.8621H82.7586V79.3103H86.2069V75.8621Z" fill="#1D2B3F"/>
<path d="M93.1034 75.8621H89.6552V79.3103H93.1034V75.8621Z" fill="#1D2B3F"/>
<path d="M96.5517 75.8621H93.1034V79.3103H96.5517V75.8621Z" fill="#1D2B3F"/>
<path d="M100 75.8621H96.5517V79.3103H100V75.8621Z" fill="#1D2B3F"/>
<path d="M3.44828 79.3103H0V82.7586H3.44828V79.3103Z" fill="#1D2B3F"/>
<path d="M24.1379 79.3103H20.6897V82.7586H24.1379V79.3103Z" fill="#1D2B3F"/>
<path d="M31.0345 79.3103H27.5862V82.7586H31.0345V79.3103Z" fill="#1D2B3F"/>
<path d="M34.4828 79.3103H31.0345V82.7586H34.4828V79.3103Z" fill="#1D2B3F"/>
<path d="M44.8276 79.3103H41.3793V82.7586H44.8276V79.3103Z" fill="#1D2B3F"/>
<path d="M48.2759 79.3103H44.8276V82.7586H48.2759V79.3103Z" fill="#1D2B3F"/>
<path d="M58.6207 79.3103H55.1724V82.7586H58.6207V79.3103Z" fill="#1D2B3F"/>
<path d="M62.069 79.3103H58.6207V82.7586H62.069V79.3103Z" fill="#1D2B3F"/>
<path d="M72.4138 79.3103H68.9655V82.7586H72.4138V79.3103Z" fill="#1D2B3F"/>
<path d="M86.2069 79.3103H82.7586V82.7586H86.2069V79.3103Z" fill="#1D2B3F"/>
<path d="M89.6552 79.3103H86.2069V82.7586H89.6552V79.3103Z" fill="#1D2B3F"/>
<path d="M93.1034 79.3103H89.6552V82.7586H93.1034V79.3103Z" fill="#1D2B3F"/>
<path d="M100 79.3103H96.5517V82.7586H100V79.3103Z" fill="#1D2B3F"/>
<path d="M3.44828 82.7586H0V86.2069H3.44828V82.7586Z" fill="#1D2B3F"/>
<path d="M10.3448 82.7586H6.89655V86.2069H10.3448V82.7586Z" fill="#1D2B3F"/>
<path d="M13.7931 82.7586H10.3448V86.2069H13.7931V82.7586Z" fill="#1D2B3F"/>
<path d="M17.2414 82.7586H13.7931V86.2069H17.2414V82.7586Z" fill="#1D2B3F"/>
<path d="M24.1379 82.7586H20.6897V86.2069H24.1379V82.7586Z" fill="#1D2B3F"/>
<path d="M31.0345 82.7586H27.5862V86.2069H31.0345V82.7586Z" fill="#1D2B3F"/>
<path d="M34.4828 82.7586H31.0345V86.2069H34.4828V82.7586Z" fill="#1D2B3F"/>
<path d="M41.3793 82.7586H37.931V86.2069H41.3793V82.7586Z" fill="#1D2B3F"/>
<path d="M48.2759 82.7586H44.8276V86.2069H48.2759V82.7586Z" fill="#1D2B3F"/>
<path d="M51.7241 82.7586H48.2759V86.2069H51.7241V82.7586Z" fill="#1D2B3F"/>
<path d="M55.1724 82.7586H51.7241V86.2069H55.1724V82.7586Z" fill="#1D2B3F"/>
<path d="M62.069 82.7586H58.6207V86.2069H62.069V82.7586Z" fill="#1D2B3F"/>
<path d="M65.5172 82.7586H62.069V86.2069H65.5172V82.7586Z" fill="#1D2B3F"/>
<path d="M72.4138 82.7586H68.9655V86.2069H72.4138V82.7586Z" fill="#1D2B3F"/>
<path d="M75.8621 82.7586H72.4138V86.2069H75.8621V82.7586Z" fill="#1D2B3F"/>
<path d="M79.3103 82.7586H75.8621V86.2069H79.3103V82.7586Z" fill="#1D2B3F"/>
<path d="M82.7586 82.7586H79.3103V86.2069H82.7586V82.7586Z" fill="#1D2B3F"/>
<path d="M86.2069 82.7586H82.7586V86.2069H86.2069V82.7586Z" fill="#1D2B3F"/>
<path d="M93.1034 82.7586H89.6552V86.2069H93.1034V82.7586Z" fill="#1D2B3F"/>
<path d="M100 82.7586H96.5517V86.2069H100V82.7586Z" fill="#1D2B3F"/>
<path d="M3.44828 86.2069H0V89.6552H3.44828V86.2069Z" fill="#1D2B3F"/>
<path d="M10.3448 86.2069H6.89655V89.6552H10.3448V86.2069Z" fill="#1D2B3F"/>
<path d="M13.7931 86.2069H10.3448V89.6552H13.7931V86.2069Z" fill="#1D2B3F"/>
<path d="M17.2414 86.2069H13.7931V89.6552H17.2414V86.2069Z" fill="#1D2B3F"/>
<path d="M24.1379 86.2069H20.6897V89.6552H24.1379V86.2069Z" fill="#1D2B3F"/>
<path d="M31.0345 86.2069H27.5862V89.6552H31.0345V86.2069Z" fill="#1D2B3F"/>
<path d="M41.3793 86.2069H37.931V89.6552H41.3793V86.2069Z" fill="#1D2B3F"/>
<path d="M44.8276 86.2069H41.3793V89.6552H44.8276V86.2069Z" fill="#1D2B3F"/>
<path d="M51.7241 86.2069H48.2759V89.6552H51.7241V86.2069Z" fill="#1D2B3F"/>
<path d="M58.6207 86.2069H55.1724V89.6552H58.6207V86.2069Z" fill="#1D2B3F"/>
<path d="M75.8621 86.2069H72.4138V89.6552H75.8621V86.2069Z" fill="#1D2B3F"/>
<path d="M79.3103 86.2069H75.8621V89.6552H79.3103V86.2069Z" fill="#1D2B3F"/>
<path d="M89.6552 86.2069H86.2069V89.6552H89.6552V86.2069Z" fill="#1D2B3F"/>
<path d="M93.1034 86.2069H89.6552V89.6552H93.1034V86.2069Z" fill="#1D2B3F"/>
<path d="M96.5517 86.2069H93.1034V89.6552H96.5517V86.2069Z" fill="#1D2B3F"/>
<path d="M3.44828 89.6552H0V93.1034H3.44828V89.6552Z" fill="#1D2B3F"/>
<path d="M10.3448 89.6552H6.89655V93.1034H10.3448V89.6552Z" fill="#1D2B3F"/>
<path d="M13.7931 89.6552H10.3448V93.1034H13.7931V89.6552Z" fill="#1D2B3F"/>
<path d="M17.2414 89.6552H13.7931V93.1034H17.2414V89.6552Z" fill="#1D2B3F"/>
<path d="M24.1379 89.6552H20.6897V93.1034H24.1379V89.6552Z" fill="#1D2B3F"/>
<path d="M31.0345 89.6552H27.5862V93.1034H31.0345V89.6552Z" fill="#1D2B3F"/>
<path d="M44.8276 89.6552H41.3793V93.1034H44.8276V89.6552Z" fill="#1D2B3F"/>
<path d="M51.7241 89.6552H48.2759V93.1034H51.7241V89.6552Z" fill="#1D2B3F"/>
<path d="M58.6207 89.6552H55.1724V93.1034H58.6207V89.6552Z" fill="#1D2B3F"/>
<path d="M62.069 89.6552H58.6207V93.1034H62.069V89.6552Z" fill="#1D2B3F"/>
<path d="M65.5172 89.6552H62.069V93.1034H65.5172V89.6552Z" fill="#1D2B3F"/>
<path d="M72.4138 89.6552H68.9655V93.1034H72.4138V89.6552Z" fill="#1D2B3F"/>
<path d="M75.8621 89.6552H72.4138V93.1034H75.8621V89.6552Z" fill="#1D2B3F"/>
<path d="M79.3103 89.6552H75.8621V93.1034H79.3103V89.6552Z" fill="#1D2B3F"/>
<path d="M86.2069 89.6552H82.7586V93.1034H86.2069V89.6552Z" fill="#1D2B3F"/>
<path d="M89.6552 89.6552H86.2069V93.1034H89.6552V89.6552Z" fill="#1D2B3F"/>
<path d="M93.1034 89.6552H89.6552V93.1034H93.1034V89.6552Z" fill="#1D2B3F"/>
<path d="M100 89.6552H96.5517V93.1034H100V89.6552Z" fill="#1D2B3F"/>
<path d="M3.44828 93.1034H0V96.5517H3.44828V93.1034Z" fill="#1D2B3F"/>
<path d="M24.1379 93.1034H20.6897V96.5517H24.1379V93.1034Z" fill="#1D2B3F"/>
<path d="M41.3793 93.1034H37.931V96.5517H41.3793V93.1034Z" fill="#1D2B3F"/>
<path d="M55.1724 93.1034H51.7241V96.5517H55.1724V93.1034Z" fill="#1D2B3F"/>
<path d="M68.9655 93.1034H65.5172V96.5517H68.9655V93.1034Z" fill="#1D2B3F"/>
<path d="M72.4138 93.1034H68.9655V96.5517H72.4138V93.1034Z" fill="#1D2B3F"/>
<path d="M75.8621 93.1034H72.4138V96.5517H75.8621V93.1034Z" fill="#1D2B3F"/>
<path d="M82.7586 93.1034H79.3103V96.5517H82.7586V93.1034Z" fill="#1D2B3F"/>
<path d="M89.6552 93.1034H86.2069V96.5517H89.6552V93.1034Z" fill="#1D2B3F"/>
<path d="M93.1034 93.1034H89.6552V96.5517H93.1034V93.1034Z" fill="#1D2B3F"/>
<path d="M96.5517 93.1034H93.1034V96.5517H96.5517V93.1034Z" fill="#1D2B3F"/>
<path d="M3.44828 96.5517H0V100H3.44828V96.5517Z" fill="#1D2B3F"/>
<path d="M6.89655 96.5517H3.44828V100H6.89655V96.5517Z" fill="#1D2B3F"/>
<path d="M10.3448 96.5517H6.89655V100H10.3448V96.5517Z" fill="#1D2B3F"/>
<path d="M13.7931 96.5517H10.3448V100H13.7931V96.5517Z" fill="#1D2B3F"/>
<path d="M17.2414 96.5517H13.7931V100H17.2414V96.5517Z" fill="#1D2B3F"/>
<path d="M20.6897 96.5517H17.2414V100H20.6897V96.5517Z" fill="#1D2B3F"/>
<path d="M24.1379 96.5517H20.6897V100H24.1379V96.5517Z" fill="#1D2B3F"/>
<path d="M34.4828 96.5517H31.0345V100H34.4828V96.5517Z" fill="#1D2B3F"/>
<path d="M48.2759 96.5517H44.8276V100H48.2759V96.5517Z" fill="#1D2B3F"/>
<path d="M62.069 96.5517H58.6207V100H62.069V96.5517Z" fill="#1D2B3F"/>
<path d="M72.4138 96.5517H68.9655V100H72.4138V96.5517Z" fill="#1D2B3F"/>
<path d="M75.8621 96.5517H72.4138V100H75.8621V96.5517Z" fill="#1D2B3F"/>
<path d="M82.7586 96.5517H79.3103V100H82.7586V96.5517Z" fill="#1D2B3F"/>
<path d="M89.6552 96.5517H86.2069V100H89.6552V96.5517Z" fill="#1D2B3F"/>
</svg>
