<svg width="600" height="608" viewBox="0 0 600 608" fill="none" xmlns="http://www.w3.org/2000/svg">
<ellipse cx="285.635" cy="303.51" rx="212.061" ry="239.721" transform="rotate(-120 285.635 303.51)" fill="url(#paint0_linear_44_3)"/>
<path d="M166.585 234V220.909H168.17V232.594H174.256V234H166.585ZM180.494 234.205C179.608 234.205 178.83 233.994 178.161 233.572C177.496 233.15 176.977 232.56 176.602 231.801C176.231 231.043 176.045 230.156 176.045 229.142C176.045 228.119 176.231 227.227 176.602 226.464C176.977 225.701 177.496 225.109 178.161 224.687C178.83 224.265 179.608 224.054 180.494 224.054C181.381 224.054 182.156 224.265 182.821 224.687C183.49 225.109 184.01 225.701 184.381 226.464C184.756 227.227 184.943 228.119 184.943 229.142C184.943 230.156 184.756 231.043 184.381 231.801C184.01 232.56 183.49 233.15 182.821 233.572C182.156 233.994 181.381 234.205 180.494 234.205ZM180.494 232.849C181.168 232.849 181.722 232.677 182.156 232.332C182.591 231.987 182.913 231.533 183.121 230.97C183.33 230.408 183.435 229.798 183.435 229.142C183.435 228.486 183.33 227.874 183.121 227.308C182.913 226.741 182.591 226.283 182.156 225.933C181.722 225.584 181.168 225.409 180.494 225.409C179.821 225.409 179.267 225.584 178.832 225.933C178.398 226.283 178.076 226.741 177.867 227.308C177.658 227.874 177.554 228.486 177.554 229.142C177.554 229.798 177.658 230.408 177.867 230.97C178.076 231.533 178.398 231.987 178.832 232.332C179.267 232.677 179.821 232.849 180.494 232.849ZM191.235 234.205C190.348 234.205 189.57 233.994 188.901 233.572C188.237 233.15 187.717 232.56 187.342 231.801C186.971 231.043 186.786 230.156 186.786 229.142C186.786 228.119 186.971 227.227 187.342 226.464C187.717 225.701 188.237 225.109 188.901 224.687C189.57 224.265 190.348 224.054 191.235 224.054C192.121 224.054 192.896 224.265 193.561 224.687C194.23 225.109 194.75 225.701 195.121 226.464C195.496 227.227 195.683 228.119 195.683 229.142C195.683 230.156 195.496 231.043 195.121 231.801C194.75 232.56 194.23 233.15 193.561 233.572C192.896 233.994 192.121 234.205 191.235 234.205ZM191.235 232.849C191.908 232.849 192.462 232.677 192.896 232.332C193.331 231.987 193.653 231.533 193.862 230.97C194.07 230.408 194.175 229.798 194.175 229.142C194.175 228.486 194.07 227.874 193.862 227.308C193.653 226.741 193.331 226.283 192.896 225.933C192.462 225.584 191.908 225.409 191.235 225.409C190.561 225.409 190.007 225.584 189.573 225.933C189.138 226.283 188.816 226.741 188.607 227.308C188.399 227.874 188.294 228.486 188.294 229.142C188.294 229.798 188.399 230.408 188.607 230.97C188.816 231.533 189.138 231.987 189.573 232.332C190.007 232.677 190.561 232.849 191.235 232.849ZM199.392 230.42L199.367 228.554H199.674L203.969 224.182H205.836L201.259 228.81H201.131L199.392 230.42ZM197.986 234V220.909H199.495V234H197.986ZM204.225 234L200.39 229.142L201.463 228.094L206.142 234H204.225ZM207.777 234V224.182H209.286V234H207.777ZM208.544 222.545C208.25 222.545 207.997 222.445 207.784 222.245C207.575 222.045 207.47 221.804 207.47 221.523C207.47 221.241 207.575 221.001 207.784 220.8C207.997 220.6 208.25 220.5 208.544 220.5C208.838 220.5 209.09 220.6 209.298 220.8C209.512 221.001 209.618 221.241 209.618 221.523C209.618 221.804 209.512 222.045 209.298 222.245C209.09 222.445 208.838 222.545 208.544 222.545ZM213.557 228.094V234H212.049V224.182H213.506V225.716H213.634C213.864 225.217 214.213 224.817 214.682 224.514C215.151 224.207 215.756 224.054 216.498 224.054C217.162 224.054 217.744 224.19 218.243 224.463C218.741 224.732 219.129 225.141 219.406 225.69C219.683 226.236 219.821 226.926 219.821 227.761V234H218.313V227.864C218.313 227.092 218.113 226.491 217.712 226.061C217.311 225.626 216.762 225.409 216.063 225.409C215.581 225.409 215.151 225.513 214.772 225.722C214.397 225.931 214.1 226.236 213.883 226.636C213.666 227.037 213.557 227.523 213.557 228.094ZM226.541 237.886C225.812 237.886 225.186 237.793 224.662 237.605C224.138 237.422 223.701 237.179 223.351 236.876C223.006 236.578 222.731 236.259 222.527 235.918L223.729 235.074C223.865 235.253 224.037 235.457 224.246 235.688C224.455 235.922 224.741 236.124 225.103 236.295C225.469 236.469 225.949 236.557 226.541 236.557C227.334 236.557 227.988 236.365 228.503 235.982C229.019 235.598 229.277 234.997 229.277 234.179V232.185H229.149C229.038 232.364 228.881 232.585 228.676 232.849C228.476 233.109 228.186 233.342 227.807 233.546C227.432 233.746 226.925 233.847 226.285 233.847C225.493 233.847 224.781 233.659 224.15 233.284C223.524 232.909 223.028 232.364 222.661 231.648C222.299 230.932 222.118 230.062 222.118 229.04C222.118 228.034 222.295 227.158 222.648 226.413C223.002 225.663 223.494 225.083 224.125 224.674C224.756 224.261 225.484 224.054 226.311 224.054C226.95 224.054 227.457 224.161 227.832 224.374C228.211 224.582 228.501 224.821 228.702 225.089C228.906 225.354 229.064 225.571 229.175 225.741H229.328V224.182H230.785V234.281C230.785 235.125 230.594 235.811 230.21 236.339C229.831 236.872 229.319 237.262 228.676 237.509C228.037 237.761 227.325 237.886 226.541 237.886ZM226.49 232.491C227.095 232.491 227.606 232.353 228.024 232.076C228.442 231.799 228.759 231.401 228.976 230.881C229.194 230.361 229.302 229.739 229.302 229.014C229.302 228.307 229.196 227.683 228.983 227.141C228.77 226.6 228.454 226.176 228.037 225.869C227.619 225.562 227.104 225.409 226.49 225.409C225.851 225.409 225.318 225.571 224.892 225.895C224.47 226.219 224.153 226.653 223.939 227.199C223.731 227.744 223.626 228.349 223.626 229.014C223.626 229.696 223.733 230.299 223.946 230.823C224.163 231.343 224.483 231.752 224.905 232.05C225.331 232.344 225.859 232.491 226.49 232.491ZM242.981 224.182V225.46H237.689V224.182H242.981ZM239.274 234V222.827C239.274 222.264 239.406 221.795 239.67 221.42C239.934 221.045 240.278 220.764 240.699 220.577C241.121 220.389 241.567 220.295 242.035 220.295C242.406 220.295 242.709 220.325 242.943 220.385C243.177 220.445 243.352 220.5 243.467 220.551L243.032 221.855C242.956 221.83 242.849 221.798 242.713 221.759C242.581 221.721 242.406 221.702 242.189 221.702C241.69 221.702 241.33 221.827 241.108 222.079C240.891 222.33 240.782 222.699 240.782 223.185V234H239.274ZM248.68 234.205C247.794 234.205 247.016 233.994 246.347 233.572C245.682 233.15 245.162 232.56 244.787 231.801C244.416 231.043 244.231 230.156 244.231 229.142C244.231 228.119 244.416 227.227 244.787 226.464C245.162 225.701 245.682 225.109 246.347 224.687C247.016 224.265 247.794 224.054 248.68 224.054C249.566 224.054 250.342 224.265 251.007 224.687C251.676 225.109 252.195 225.701 252.566 226.464C252.941 227.227 253.129 228.119 253.129 229.142C253.129 230.156 252.941 231.043 252.566 231.801C252.195 232.56 251.676 233.15 251.007 233.572C250.342 233.994 249.566 234.205 248.68 234.205ZM248.68 232.849C249.353 232.849 249.907 232.677 250.342 232.332C250.776 231.987 251.098 231.533 251.307 230.97C251.516 230.408 251.62 229.798 251.62 229.142C251.62 228.486 251.516 227.874 251.307 227.308C251.098 226.741 250.776 226.283 250.342 225.933C249.907 225.584 249.353 225.409 248.68 225.409C248.007 225.409 247.453 225.584 247.018 225.933C246.583 226.283 246.262 226.741 246.053 227.308C245.844 227.874 245.74 228.486 245.74 229.142C245.74 229.798 245.844 230.408 246.053 230.97C246.262 231.533 246.583 231.987 247.018 232.332C247.453 232.677 248.007 232.849 248.68 232.849ZM255.431 234V224.182H256.889V225.665H256.991C257.17 225.179 257.494 224.785 257.963 224.482C258.431 224.18 258.96 224.028 259.548 224.028C259.659 224.028 259.797 224.031 259.963 224.035C260.13 224.039 260.255 224.045 260.341 224.054V225.588C260.289 225.575 260.172 225.556 259.989 225.531C259.81 225.501 259.62 225.486 259.42 225.486C258.943 225.486 258.517 225.586 258.142 225.786C257.771 225.982 257.477 226.255 257.26 226.604C257.047 226.95 256.94 227.344 256.94 227.787V234H255.431ZM270.08 234.23C269.458 234.23 268.894 234.113 268.387 233.879C267.879 233.64 267.477 233.297 267.178 232.849C266.88 232.398 266.731 231.852 266.731 231.213C266.731 230.651 266.842 230.195 267.063 229.845C267.285 229.491 267.581 229.214 267.952 229.014C268.323 228.814 268.732 228.665 269.179 228.567C269.631 228.464 270.085 228.384 270.541 228.324C271.137 228.247 271.621 228.19 271.992 228.151C272.367 228.109 272.639 228.038 272.81 227.94C272.985 227.842 273.072 227.672 273.072 227.429V227.378C273.072 226.747 272.899 226.257 272.554 225.908C272.213 225.558 271.695 225.384 271.001 225.384C270.281 225.384 269.716 225.541 269.307 225.857C268.898 226.172 268.61 226.509 268.444 226.866L267.012 226.355C267.268 225.759 267.609 225.294 268.035 224.962C268.465 224.625 268.934 224.391 269.441 224.259C269.953 224.122 270.455 224.054 270.95 224.054C271.265 224.054 271.627 224.092 272.036 224.169C272.45 224.241 272.848 224.393 273.232 224.623C273.619 224.853 273.941 225.2 274.197 225.665C274.453 226.129 274.58 226.751 274.58 227.531V234H273.072V232.67H272.995C272.893 232.884 272.722 233.112 272.484 233.354C272.245 233.597 271.928 233.804 271.531 233.974C271.135 234.145 270.651 234.23 270.08 234.23ZM270.311 232.875C270.907 232.875 271.41 232.758 271.819 232.523C272.232 232.289 272.544 231.987 272.752 231.616C272.965 231.245 273.072 230.855 273.072 230.446V229.065C273.008 229.142 272.867 229.212 272.65 229.276C272.437 229.336 272.19 229.389 271.909 229.436C271.632 229.479 271.361 229.517 271.097 229.551C270.837 229.581 270.626 229.607 270.464 229.628C270.072 229.679 269.705 229.762 269.365 229.877C269.028 229.988 268.755 230.156 268.546 230.382C268.342 230.604 268.24 230.906 268.24 231.29C268.24 231.814 268.433 232.21 268.821 232.479C269.213 232.743 269.71 232.875 270.311 232.875ZM286.666 224.182V225.46H281.578V224.182H286.666ZM283.061 221.83H284.57V231.188C284.57 231.614 284.631 231.933 284.755 232.146C284.883 232.355 285.045 232.496 285.241 232.568C285.441 232.636 285.652 232.67 285.874 232.67C286.04 232.67 286.176 232.662 286.283 232.645C286.389 232.624 286.474 232.607 286.538 232.594L286.845 233.949C286.743 233.987 286.6 234.026 286.417 234.064C286.234 234.107 286.001 234.128 285.72 234.128C285.294 234.128 284.876 234.036 284.467 233.853C284.063 233.67 283.726 233.391 283.457 233.016C283.193 232.641 283.061 232.168 283.061 231.597V221.83ZM288.935 234V224.182H290.393V225.665H290.495C290.674 225.179 290.998 224.785 291.467 224.482C291.935 224.18 292.464 224.028 293.052 224.028C293.163 224.028 293.301 224.031 293.467 224.035C293.634 224.039 293.759 224.045 293.844 224.054V225.588C293.793 225.575 293.676 225.556 293.493 225.531C293.314 225.501 293.124 225.486 292.924 225.486C292.447 225.486 292.021 225.586 291.646 225.786C291.275 225.982 290.981 226.255 290.763 226.604C290.55 226.95 290.444 227.344 290.444 227.787V234H288.935ZM298.522 234.23C297.9 234.23 297.335 234.113 296.828 233.879C296.321 233.64 295.918 233.297 295.62 232.849C295.322 232.398 295.172 231.852 295.172 231.213C295.172 230.651 295.283 230.195 295.505 229.845C295.726 229.491 296.023 229.214 296.393 229.014C296.764 228.814 297.173 228.665 297.621 228.567C298.072 228.464 298.526 228.384 298.982 228.324C299.579 228.247 300.062 228.19 300.433 228.151C300.808 228.109 301.081 228.038 301.251 227.94C301.426 227.842 301.513 227.672 301.513 227.429V227.378C301.513 226.747 301.341 226.257 300.996 225.908C300.655 225.558 300.137 225.384 299.442 225.384C298.722 225.384 298.157 225.541 297.748 225.857C297.339 226.172 297.052 226.509 296.885 226.866L295.454 226.355C295.709 225.759 296.05 225.294 296.476 224.962C296.907 224.625 297.376 224.391 297.883 224.259C298.394 224.122 298.897 224.054 299.391 224.054C299.706 224.054 300.069 224.092 300.478 224.169C300.891 224.241 301.29 224.393 301.673 224.623C302.061 224.853 302.383 225.2 302.638 225.665C302.894 226.129 303.022 226.751 303.022 227.531V234H301.513V232.67H301.437C301.334 232.884 301.164 233.112 300.925 233.354C300.687 233.597 300.369 233.804 299.973 233.974C299.577 234.145 299.093 234.23 298.522 234.23ZM298.752 232.875C299.349 232.875 299.851 232.758 300.26 232.523C300.674 232.289 300.985 231.987 301.194 231.616C301.407 231.245 301.513 230.855 301.513 230.446V229.065C301.449 229.142 301.309 229.212 301.091 229.276C300.878 229.336 300.631 229.389 300.35 229.436C300.073 229.479 299.802 229.517 299.538 229.551C299.278 229.581 299.067 229.607 298.905 229.628C298.513 229.679 298.147 229.762 297.806 229.877C297.469 229.988 297.197 230.156 296.988 230.382C296.783 230.604 296.681 230.906 296.681 231.29C296.681 231.814 296.875 232.21 297.263 232.479C297.655 232.743 298.151 232.875 298.752 232.875ZM309.483 234.205C308.664 234.205 307.942 233.998 307.316 233.585C306.689 233.167 306.199 232.579 305.846 231.82C305.492 231.058 305.315 230.156 305.315 229.116C305.315 228.085 305.492 227.19 305.846 226.432C306.199 225.673 306.691 225.087 307.322 224.674C307.953 224.261 308.681 224.054 309.508 224.054C310.147 224.054 310.652 224.161 311.023 224.374C311.398 224.582 311.684 224.821 311.88 225.089C312.08 225.354 312.235 225.571 312.346 225.741H312.474V220.909H313.983V234H312.525V232.491H312.346C312.235 232.67 312.078 232.896 311.873 233.169C311.669 233.437 311.377 233.678 310.998 233.891C310.618 234.1 310.113 234.205 309.483 234.205ZM309.687 232.849C310.292 232.849 310.804 232.692 311.221 232.376C311.639 232.057 311.956 231.616 312.174 231.053C312.391 230.487 312.5 229.832 312.5 229.091C312.5 228.358 312.393 227.717 312.18 227.167C311.967 226.613 311.652 226.183 311.234 225.876C310.816 225.565 310.301 225.409 309.687 225.409C309.048 225.409 308.515 225.573 308.089 225.901C307.667 226.225 307.35 226.666 307.137 227.224C306.928 227.778 306.824 228.401 306.824 229.091C306.824 229.79 306.93 230.425 307.143 230.996C307.36 231.562 307.68 232.014 308.102 232.351C308.528 232.683 309.056 232.849 309.687 232.849ZM316.955 234V224.182H318.463V234H316.955ZM317.722 222.545C317.428 222.545 317.174 222.445 316.961 222.245C316.752 222.045 316.648 221.804 316.648 221.523C316.648 221.241 316.752 221.001 316.961 220.8C317.174 220.6 317.428 220.5 317.722 220.5C318.016 220.5 318.267 220.6 318.476 220.8C318.689 221.001 318.796 221.241 318.796 221.523C318.796 221.804 318.689 222.045 318.476 222.245C318.267 222.445 318.016 222.545 317.722 222.545ZM322.735 228.094V234H321.226V224.182H322.684V225.716H322.812C323.042 225.217 323.391 224.817 323.86 224.514C324.329 224.207 324.934 224.054 325.675 224.054C326.34 224.054 326.922 224.19 327.42 224.463C327.919 224.732 328.307 225.141 328.584 225.69C328.861 226.236 328.999 226.926 328.999 227.761V234H327.491V227.864C327.491 227.092 327.29 226.491 326.89 226.061C326.489 225.626 325.939 225.409 325.241 225.409C324.759 225.409 324.329 225.513 323.949 225.722C323.574 225.931 323.278 226.236 323.061 226.636C322.844 227.037 322.735 227.523 322.735 228.094ZM335.719 237.886C334.99 237.886 334.364 237.793 333.839 237.605C333.315 237.422 332.879 237.179 332.529 236.876C332.184 236.578 331.909 236.259 331.705 235.918L332.906 235.074C333.043 235.253 333.215 235.457 333.424 235.688C333.633 235.922 333.918 236.124 334.281 236.295C334.647 236.469 335.126 236.557 335.719 236.557C336.511 236.557 337.165 236.365 337.681 235.982C338.197 235.598 338.455 234.997 338.455 234.179V232.185H338.327C338.216 232.364 338.058 232.585 337.854 232.849C337.653 233.109 337.364 233.342 336.984 233.546C336.609 233.746 336.102 233.847 335.463 233.847C334.67 233.847 333.959 233.659 333.328 233.284C332.702 232.909 332.205 232.364 331.839 231.648C331.477 230.932 331.295 230.062 331.295 229.04C331.295 228.034 331.472 227.158 331.826 226.413C332.18 225.663 332.672 225.083 333.303 224.674C333.933 224.261 334.662 224.054 335.489 224.054C336.128 224.054 336.635 224.161 337.01 224.374C337.389 224.582 337.679 224.821 337.879 225.089C338.084 225.354 338.241 225.571 338.352 225.741H338.506V224.182H339.963V234.281C339.963 235.125 339.771 235.811 339.388 236.339C339.009 236.872 338.497 237.262 337.854 237.509C337.214 237.761 336.503 237.886 335.719 237.886ZM335.668 232.491C336.273 232.491 336.784 232.353 337.202 232.076C337.619 231.799 337.937 231.401 338.154 230.881C338.371 230.361 338.48 229.739 338.48 229.014C338.48 228.307 338.374 227.683 338.161 227.141C337.947 226.6 337.632 226.176 337.214 225.869C336.797 225.562 336.281 225.409 335.668 225.409C335.028 225.409 334.496 225.571 334.07 225.895C333.648 226.219 333.33 226.653 333.117 227.199C332.908 227.744 332.804 228.349 332.804 229.014C332.804 229.696 332.911 230.299 333.124 230.823C333.341 231.343 333.661 231.752 334.082 232.05C334.509 232.344 335.037 232.491 335.668 232.491ZM347.787 237.682V224.182H349.244V225.741H349.423C349.534 225.571 349.688 225.354 349.884 225.089C350.084 224.821 350.369 224.582 350.74 224.374C351.115 224.161 351.622 224.054 352.261 224.054C353.088 224.054 353.817 224.261 354.447 224.674C355.078 225.087 355.57 225.673 355.924 226.432C356.278 227.19 356.455 228.085 356.455 229.116C356.455 230.156 356.278 231.058 355.924 231.82C355.57 232.579 355.08 233.167 354.454 233.585C353.827 233.998 353.105 234.205 352.287 234.205C351.656 234.205 351.151 234.1 350.772 233.891C350.393 233.678 350.101 233.437 349.896 233.169C349.692 232.896 349.534 232.67 349.423 232.491H349.295V237.682H347.787ZM349.27 229.091C349.27 229.832 349.379 230.487 349.596 231.053C349.813 231.616 350.131 232.057 350.548 232.376C350.966 232.692 351.477 232.849 352.082 232.849C352.713 232.849 353.239 232.683 353.661 232.351C354.087 232.014 354.407 231.562 354.62 230.996C354.837 230.425 354.946 229.79 354.946 229.091C354.946 228.401 354.839 227.778 354.626 227.224C354.418 226.666 354.1 226.225 353.674 225.901C353.252 225.573 352.722 225.409 352.082 225.409C351.469 225.409 350.953 225.565 350.536 225.876C350.118 226.183 349.803 226.613 349.589 227.167C349.376 227.717 349.27 228.358 349.27 229.091ZM360.264 220.909V234H358.756V220.909H360.264ZM365.916 234.23C365.294 234.23 364.73 234.113 364.222 233.879C363.715 233.64 363.313 233.297 363.014 232.849C362.716 232.398 362.567 231.852 362.567 231.213C362.567 230.651 362.678 230.195 362.899 229.845C363.121 229.491 363.417 229.214 363.788 229.014C364.159 228.814 364.568 228.665 365.015 228.567C365.467 228.464 365.921 228.384 366.377 228.324C366.973 228.247 367.457 228.19 367.828 228.151C368.203 228.109 368.475 228.038 368.646 227.94C368.82 227.842 368.908 227.672 368.908 227.429V227.378C368.908 226.747 368.735 226.257 368.39 225.908C368.049 225.558 367.531 225.384 366.837 225.384C366.117 225.384 365.552 225.541 365.143 225.857C364.734 226.172 364.446 226.509 364.28 226.866L362.848 226.355C363.104 225.759 363.445 225.294 363.871 224.962C364.301 224.625 364.77 224.391 365.277 224.259C365.789 224.122 366.291 224.054 366.786 224.054C367.101 224.054 367.463 224.092 367.872 224.169C368.286 224.241 368.684 224.393 369.068 224.623C369.455 224.853 369.777 225.2 370.033 225.665C370.289 226.129 370.416 226.751 370.416 227.531V234H368.908V232.67H368.831C368.729 232.884 368.558 233.112 368.32 233.354C368.081 233.597 367.764 233.804 367.367 233.974C366.971 234.145 366.487 234.23 365.916 234.23ZM366.146 232.875C366.743 232.875 367.246 232.758 367.655 232.523C368.068 232.289 368.379 231.987 368.588 231.616C368.801 231.245 368.908 230.855 368.908 230.446V229.065C368.844 229.142 368.703 229.212 368.486 229.276C368.273 229.336 368.026 229.389 367.744 229.436C367.468 229.479 367.197 229.517 366.933 229.551C366.673 229.581 366.462 229.607 366.3 229.628C365.908 229.679 365.541 229.762 365.2 229.877C364.864 229.988 364.591 230.156 364.382 230.382C364.178 230.604 364.075 230.906 364.075 231.29C364.075 231.814 364.269 232.21 364.657 232.479C365.049 232.743 365.546 232.875 366.146 232.875ZM377.44 224.182V225.46H372.352V224.182H377.44ZM373.835 221.83H375.343V231.188C375.343 231.614 375.405 231.933 375.528 232.146C375.656 232.355 375.818 232.496 376.014 232.568C376.214 232.636 376.425 232.67 376.647 232.67C376.813 232.67 376.95 232.662 377.056 232.645C377.163 232.624 377.248 232.607 377.312 232.594L377.619 233.949C377.516 233.987 377.374 234.026 377.19 234.064C377.007 234.107 376.775 234.128 376.494 234.128C376.067 234.128 375.65 234.036 375.241 233.853C374.836 233.67 374.499 233.391 374.231 233.016C373.967 232.641 373.835 232.168 373.835 231.597V221.83ZM384.081 224.182V225.46H378.788V224.182H384.081ZM380.374 234V222.827C380.374 222.264 380.506 221.795 380.77 221.42C381.034 221.045 381.377 220.764 381.799 220.577C382.221 220.389 382.666 220.295 383.135 220.295C383.506 220.295 383.808 220.325 384.043 220.385C384.277 220.445 384.452 220.5 384.567 220.551L384.132 221.855C384.055 221.83 383.949 221.798 383.812 221.759C383.68 221.721 383.506 221.702 383.288 221.702C382.79 221.702 382.43 221.827 382.208 222.079C381.991 222.33 381.882 222.699 381.882 223.185V234H380.374ZM389.779 234.205C388.893 234.205 388.115 233.994 387.446 233.572C386.782 233.15 386.262 232.56 385.887 231.801C385.516 231.043 385.331 230.156 385.331 229.142C385.331 228.119 385.516 227.227 385.887 226.464C386.262 225.701 386.782 225.109 387.446 224.687C388.115 224.265 388.893 224.054 389.779 224.054C390.666 224.054 391.441 224.265 392.106 224.687C392.775 225.109 393.295 225.701 393.666 226.464C394.041 227.227 394.228 228.119 394.228 229.142C394.228 230.156 394.041 231.043 393.666 231.801C393.295 232.56 392.775 233.15 392.106 233.572C391.441 233.994 390.666 234.205 389.779 234.205ZM389.779 232.849C390.453 232.849 391.007 232.677 391.441 232.332C391.876 231.987 392.198 231.533 392.407 230.97C392.615 230.408 392.72 229.798 392.72 229.142C392.72 228.486 392.615 227.874 392.407 227.308C392.198 226.741 391.876 226.283 391.441 225.933C391.007 225.584 390.453 225.409 389.779 225.409C389.106 225.409 388.552 225.584 388.118 225.933C387.683 226.283 387.361 226.741 387.152 227.308C386.944 227.874 386.839 228.486 386.839 229.142C386.839 229.798 386.944 230.408 387.152 230.97C387.361 231.533 387.683 231.987 388.118 232.332C388.552 232.677 389.106 232.849 389.779 232.849ZM396.531 234V224.182H397.988V225.665H398.091C398.27 225.179 398.594 224.785 399.062 224.482C399.531 224.18 400.059 224.028 400.648 224.028C400.758 224.028 400.897 224.031 401.063 224.035C401.229 224.039 401.355 224.045 401.44 224.054V225.588C401.389 225.575 401.272 225.556 401.089 225.531C400.91 225.501 400.72 225.486 400.52 225.486C400.042 225.486 399.616 225.586 399.241 225.786C398.871 225.982 398.577 226.255 398.359 226.604C398.146 226.95 398.04 227.344 398.04 227.787V234H396.531ZM403.228 234V224.182H404.686V225.716H404.814C405.018 225.192 405.348 224.785 405.804 224.495C406.26 224.201 406.808 224.054 407.447 224.054C408.095 224.054 408.634 224.201 409.064 224.495C409.499 224.785 409.838 225.192 410.081 225.716H410.183C410.434 225.209 410.811 224.806 411.314 224.508C411.817 224.205 412.42 224.054 413.123 224.054C414.001 224.054 414.719 224.329 415.277 224.879C415.836 225.424 416.115 226.274 416.115 227.429V234H414.606V227.429C414.606 226.705 414.408 226.187 414.012 225.876C413.615 225.565 413.149 225.409 412.612 225.409C411.922 225.409 411.387 225.618 411.007 226.036C410.628 226.449 410.439 226.973 410.439 227.608V234H408.904V227.276C408.904 226.717 408.723 226.268 408.361 225.927C407.999 225.582 407.532 225.409 406.961 225.409C406.569 225.409 406.203 225.513 405.862 225.722C405.525 225.931 405.252 226.221 405.044 226.592C404.839 226.958 404.737 227.382 404.737 227.864V234H403.228ZM170.651 251.182V252.46H165.562V251.182H170.651ZM167.045 248.83H168.554V258.188C168.554 258.614 168.616 258.933 168.739 259.146C168.867 259.355 169.029 259.496 169.225 259.568C169.425 259.636 169.636 259.67 169.858 259.67C170.024 259.67 170.161 259.662 170.267 259.645C170.374 259.624 170.459 259.607 170.523 259.594L170.83 260.949C170.727 260.987 170.585 261.026 170.401 261.064C170.218 261.107 169.986 261.128 169.705 261.128C169.278 261.128 168.861 261.036 168.452 260.853C168.047 260.67 167.71 260.391 167.442 260.016C167.178 259.641 167.045 259.168 167.045 258.597V248.83ZM174.639 255.094V261H173.131V247.909H174.639V252.716H174.767C174.997 252.209 175.342 251.806 175.803 251.508C176.267 251.205 176.885 251.054 177.656 251.054C178.325 251.054 178.911 251.188 179.414 251.457C179.917 251.721 180.307 252.128 180.584 252.678C180.865 253.223 181.006 253.918 181.006 254.761V261H179.497V254.864C179.497 254.084 179.295 253.481 178.89 253.055C178.489 252.624 177.933 252.409 177.222 252.409C176.727 252.409 176.284 252.513 175.892 252.722C175.504 252.931 175.197 253.236 174.972 253.636C174.75 254.037 174.639 254.523 174.639 255.094ZM186.655 261.23C186.032 261.23 185.468 261.113 184.961 260.879C184.454 260.64 184.051 260.297 183.753 259.849C183.454 259.398 183.305 258.852 183.305 258.213C183.305 257.651 183.416 257.195 183.638 256.845C183.859 256.491 184.155 256.214 184.526 256.014C184.897 255.814 185.306 255.665 185.753 255.567C186.205 255.464 186.659 255.384 187.115 255.324C187.711 255.247 188.195 255.19 188.566 255.151C188.941 255.109 189.214 255.038 189.384 254.94C189.559 254.842 189.646 254.672 189.646 254.429V254.378C189.646 253.747 189.474 253.257 189.128 252.908C188.787 252.558 188.27 252.384 187.575 252.384C186.855 252.384 186.29 252.541 185.881 252.857C185.472 253.172 185.184 253.509 185.018 253.866L183.586 253.355C183.842 252.759 184.183 252.294 184.609 251.962C185.04 251.625 185.508 251.391 186.015 251.259C186.527 251.122 187.03 251.054 187.524 251.054C187.839 251.054 188.202 251.092 188.611 251.169C189.024 251.241 189.422 251.393 189.806 251.623C190.194 251.853 190.515 252.2 190.771 252.665C191.027 253.129 191.155 253.751 191.155 254.531V261H189.646V259.67H189.569C189.467 259.884 189.297 260.112 189.058 260.354C188.819 260.597 188.502 260.804 188.106 260.974C187.709 261.145 187.226 261.23 186.655 261.23ZM186.885 259.875C187.481 259.875 187.984 259.758 188.393 259.523C188.807 259.289 189.118 258.987 189.327 258.616C189.54 258.245 189.646 257.855 189.646 257.446V256.065C189.582 256.142 189.442 256.212 189.224 256.276C189.011 256.336 188.764 256.389 188.483 256.436C188.206 256.479 187.935 256.517 187.671 256.551C187.411 256.581 187.2 256.607 187.038 256.628C186.646 256.679 186.28 256.762 185.939 256.877C185.602 256.988 185.329 257.156 185.121 257.382C184.916 257.604 184.814 257.906 184.814 258.29C184.814 258.814 185.008 259.21 185.395 259.479C185.787 259.743 186.284 259.875 186.885 259.875ZM198.178 251.182V252.46H193.09V251.182H198.178ZM194.573 248.83H196.081V258.188C196.081 258.614 196.143 258.933 196.267 259.146C196.395 259.355 196.556 259.496 196.752 259.568C196.953 259.636 197.164 259.67 197.385 259.67C197.551 259.67 197.688 259.662 197.794 259.645C197.901 259.624 197.986 259.607 198.05 259.594L198.357 260.949C198.255 260.987 198.112 261.026 197.929 261.064C197.745 261.107 197.513 261.128 197.232 261.128C196.806 261.128 196.388 261.036 195.979 260.853C195.574 260.67 195.238 260.391 194.969 260.016C194.705 259.641 194.573 259.168 194.573 258.597V248.83ZM205.714 261V247.909H207.223V252.741H207.35C207.461 252.571 207.615 252.354 207.811 252.089C208.011 251.821 208.297 251.582 208.667 251.374C209.042 251.161 209.549 251.054 210.189 251.054C211.015 251.054 211.744 251.261 212.375 251.674C213.005 252.087 213.498 252.673 213.851 253.432C214.205 254.19 214.382 255.085 214.382 256.116C214.382 257.156 214.205 258.058 213.851 258.82C213.498 259.579 213.007 260.167 212.381 260.585C211.755 260.998 211.032 261.205 210.214 261.205C209.583 261.205 209.078 261.1 208.699 260.891C208.32 260.678 208.028 260.437 207.824 260.169C207.619 259.896 207.461 259.67 207.35 259.491H207.172V261H205.714ZM207.197 256.091C207.197 256.832 207.306 257.487 207.523 258.053C207.74 258.616 208.058 259.057 208.475 259.376C208.893 259.692 209.404 259.849 210.01 259.849C210.64 259.849 211.167 259.683 211.588 259.351C212.015 259.014 212.334 258.562 212.547 257.996C212.765 257.425 212.873 256.79 212.873 256.091C212.873 255.401 212.767 254.778 212.554 254.224C212.345 253.666 212.027 253.225 211.601 252.901C211.179 252.573 210.649 252.409 210.01 252.409C209.396 252.409 208.88 252.565 208.463 252.876C208.045 253.183 207.73 253.613 207.517 254.167C207.304 254.717 207.197 255.358 207.197 256.091ZM216.689 261V251.182H218.147V252.665H218.249C218.428 252.179 218.752 251.785 219.221 251.482C219.689 251.18 220.218 251.028 220.806 251.028C220.917 251.028 221.055 251.031 221.221 251.035C221.387 251.039 221.513 251.045 221.598 251.054V252.588C221.547 252.575 221.43 252.556 221.247 252.531C221.068 252.501 220.878 252.486 220.678 252.486C220.201 252.486 219.775 252.586 219.4 252.786C219.029 252.982 218.735 253.255 218.517 253.604C218.304 253.95 218.198 254.344 218.198 254.787V261H216.689ZM223.387 261V251.182H224.895V261H223.387ZM224.154 249.545C223.86 249.545 223.606 249.445 223.393 249.245C223.184 249.045 223.08 248.804 223.08 248.523C223.08 248.241 223.184 248.001 223.393 247.8C223.606 247.6 223.86 247.5 224.154 247.5C224.448 247.5 224.699 247.6 224.908 247.8C225.121 248.001 225.227 248.241 225.227 248.523C225.227 248.804 225.121 249.045 224.908 249.245C224.699 249.445 224.448 249.545 224.154 249.545ZM229.167 255.094V261H227.658V251.182H229.115V252.716H229.243C229.473 252.217 229.823 251.817 230.292 251.514C230.76 251.207 231.365 251.054 232.107 251.054C232.772 251.054 233.353 251.19 233.852 251.463C234.35 251.732 234.738 252.141 235.015 252.69C235.292 253.236 235.431 253.926 235.431 254.761V261H233.922V254.864C233.922 254.092 233.722 253.491 233.321 253.061C232.921 252.626 232.371 252.409 231.672 252.409C231.191 252.409 230.76 252.513 230.381 252.722C230.006 252.931 229.71 253.236 229.493 253.636C229.275 254.037 229.167 254.523 229.167 255.094ZM242.15 264.886C241.422 264.886 240.795 264.793 240.271 264.605C239.747 264.422 239.31 264.179 238.961 263.876C238.616 263.578 238.341 263.259 238.136 262.918L239.338 262.074C239.474 262.253 239.647 262.457 239.856 262.688C240.064 262.922 240.35 263.124 240.712 263.295C241.079 263.469 241.558 263.557 242.15 263.557C242.943 263.557 243.597 263.365 244.113 262.982C244.628 262.598 244.886 261.997 244.886 261.179V259.185H244.758C244.648 259.364 244.49 259.585 244.285 259.849C244.085 260.109 243.795 260.342 243.416 260.546C243.041 260.746 242.534 260.847 241.895 260.847C241.102 260.847 240.39 260.659 239.76 260.284C239.133 259.909 238.637 259.364 238.27 258.648C237.908 257.932 237.727 257.062 237.727 256.04C237.727 255.034 237.904 254.158 238.258 253.413C238.611 252.663 239.104 252.083 239.734 251.674C240.365 251.261 241.094 251.054 241.92 251.054C242.559 251.054 243.067 251.161 243.442 251.374C243.821 251.582 244.111 251.821 244.311 252.089C244.515 252.354 244.673 252.571 244.784 252.741H244.937V251.182H246.395V261.281C246.395 262.125 246.203 262.811 245.819 263.339C245.44 263.872 244.929 264.262 244.285 264.509C243.646 264.761 242.934 264.886 242.15 264.886ZM242.099 259.491C242.704 259.491 243.216 259.353 243.633 259.076C244.051 258.799 244.368 258.401 244.586 257.881C244.803 257.361 244.912 256.739 244.912 256.014C244.912 255.307 244.805 254.683 244.592 254.141C244.379 253.6 244.064 253.176 243.646 252.869C243.229 252.562 242.713 252.409 242.099 252.409C241.46 252.409 240.927 252.571 240.501 252.895C240.079 253.219 239.762 253.653 239.549 254.199C239.34 254.744 239.236 255.349 239.236 256.014C239.236 256.696 239.342 257.299 239.555 257.823C239.773 258.343 240.092 258.752 240.514 259.05C240.94 259.344 241.469 259.491 242.099 259.491ZM256.111 253.381L254.756 253.764C254.67 253.538 254.545 253.319 254.378 253.106C254.216 252.888 253.995 252.71 253.714 252.569C253.432 252.428 253.072 252.358 252.633 252.358C252.032 252.358 251.532 252.496 251.131 252.773C250.735 253.046 250.537 253.393 250.537 253.815C250.537 254.19 250.673 254.487 250.946 254.704C251.219 254.921 251.645 255.102 252.224 255.247L253.682 255.605C254.559 255.818 255.214 256.144 255.644 256.583C256.074 257.018 256.29 257.578 256.29 258.264C256.29 258.827 256.128 259.33 255.804 259.773C255.484 260.216 255.037 260.565 254.461 260.821C253.886 261.077 253.217 261.205 252.454 261.205C251.453 261.205 250.624 260.987 249.968 260.553C249.312 260.118 248.896 259.483 248.721 258.648L250.153 258.29C250.29 258.818 250.547 259.214 250.927 259.479C251.31 259.743 251.811 259.875 252.429 259.875C253.132 259.875 253.69 259.726 254.104 259.428C254.521 259.125 254.73 258.763 254.73 258.341C254.73 258 254.611 257.714 254.372 257.484C254.133 257.25 253.767 257.075 253.273 256.96L251.636 256.577C250.737 256.364 250.077 256.033 249.655 255.586C249.237 255.134 249.028 254.57 249.028 253.892C249.028 253.338 249.184 252.848 249.495 252.422C249.81 251.996 250.238 251.661 250.78 251.418C251.325 251.175 251.943 251.054 252.633 251.054C253.605 251.054 254.368 251.267 254.922 251.693C255.48 252.119 255.876 252.682 256.111 253.381ZM264.594 264.682C264.339 264.682 264.111 264.661 263.911 264.618C263.71 264.58 263.572 264.541 263.495 264.503L263.879 263.173C264.245 263.267 264.569 263.301 264.85 263.276C265.131 263.25 265.381 263.124 265.598 262.898C265.82 262.677 266.022 262.317 266.205 261.818L266.487 261.051L262.856 251.182H264.492L267.202 259.006H267.305L270.015 251.182H271.651L267.484 262.432C267.296 262.939 267.064 263.359 266.787 263.691C266.51 264.028 266.188 264.277 265.822 264.439C265.46 264.601 265.05 264.682 264.594 264.682ZM277.279 261.205C276.393 261.205 275.615 260.994 274.946 260.572C274.282 260.15 273.762 259.56 273.387 258.801C273.016 258.043 272.831 257.156 272.831 256.142C272.831 255.119 273.016 254.227 273.387 253.464C273.762 252.701 274.282 252.109 274.946 251.687C275.615 251.265 276.393 251.054 277.279 251.054C278.166 251.054 278.941 251.265 279.606 251.687C280.275 252.109 280.795 252.701 281.166 253.464C281.541 254.227 281.728 255.119 281.728 256.142C281.728 257.156 281.541 258.043 281.166 258.801C280.795 259.56 280.275 260.15 279.606 260.572C278.941 260.994 278.166 261.205 277.279 261.205ZM277.279 259.849C277.953 259.849 278.507 259.677 278.941 259.332C279.376 258.987 279.698 258.533 279.907 257.97C280.115 257.408 280.22 256.798 280.22 256.142C280.22 255.486 280.115 254.874 279.907 254.308C279.698 253.741 279.376 253.283 278.941 252.933C278.507 252.584 277.953 252.409 277.279 252.409C276.606 252.409 276.052 252.584 275.618 252.933C275.183 253.283 274.861 253.741 274.652 254.308C274.444 254.874 274.339 255.486 274.339 256.142C274.339 256.798 274.444 257.408 274.652 257.97C274.861 258.533 275.183 258.987 275.618 259.332C276.052 259.677 276.606 259.849 277.279 259.849ZM290.219 256.986V251.182H291.727V261H290.219V259.338H290.116C289.886 259.837 289.528 260.261 289.042 260.61C288.557 260.955 287.943 261.128 287.202 261.128C286.588 261.128 286.042 260.994 285.565 260.725C285.088 260.452 284.713 260.043 284.44 259.498C284.167 258.948 284.031 258.256 284.031 257.42V251.182H285.54V257.318C285.54 258.034 285.74 258.605 286.14 259.031C286.545 259.457 287.061 259.67 287.687 259.67C288.062 259.67 288.444 259.575 288.831 259.383C289.224 259.191 289.552 258.897 289.816 258.501C290.084 258.104 290.219 257.599 290.219 256.986ZM294.49 261V251.182H295.947V252.665H296.05C296.229 252.179 296.553 251.785 297.021 251.482C297.49 251.18 298.018 251.028 298.607 251.028C298.717 251.028 298.856 251.031 299.022 251.035C299.188 251.039 299.314 251.045 299.399 251.054V252.588C299.348 252.575 299.231 252.556 299.048 252.531C298.869 252.501 298.679 252.486 298.479 252.486C298.001 252.486 297.575 252.586 297.2 252.786C296.83 252.982 296.536 253.255 296.318 253.604C296.105 253.95 295.999 254.344 295.999 254.787V261H294.49ZM306.454 247.909H308.346L312.795 258.776H312.949L317.398 247.909H319.29V261H317.807V251.054H317.679L313.588 261H312.156L308.065 251.054H307.937V261H306.454V247.909ZM326.38 261.205C325.434 261.205 324.618 260.996 323.932 260.578C323.25 260.156 322.724 259.568 322.353 258.814C321.987 258.055 321.803 257.173 321.803 256.168C321.803 255.162 321.987 254.276 322.353 253.509C322.724 252.737 323.239 252.136 323.9 251.706C324.565 251.271 325.34 251.054 326.227 251.054C326.738 251.054 327.243 251.139 327.741 251.31C328.24 251.48 328.694 251.757 329.103 252.141C329.512 252.52 329.838 253.023 330.081 253.649C330.324 254.276 330.445 255.047 330.445 255.963V256.602H322.877V255.298H328.911C328.911 254.744 328.8 254.25 328.579 253.815C328.362 253.381 328.05 253.038 327.646 252.786C327.245 252.535 326.772 252.409 326.227 252.409C325.626 252.409 325.106 252.558 324.667 252.857C324.232 253.151 323.898 253.534 323.663 254.007C323.429 254.48 323.312 254.987 323.312 255.528V256.398C323.312 257.139 323.44 257.768 323.695 258.283C323.955 258.795 324.315 259.185 324.776 259.453C325.236 259.717 325.771 259.849 326.38 259.849C326.776 259.849 327.134 259.794 327.454 259.683C327.778 259.568 328.057 259.398 328.291 259.172C328.526 258.942 328.707 258.656 328.835 258.315L330.292 258.724C330.138 259.219 329.881 259.653 329.518 260.028C329.156 260.399 328.709 260.689 328.176 260.898C327.643 261.102 327.045 261.205 326.38 261.205ZM337.01 251.182V252.46H331.922V251.182H337.01ZM333.405 248.83H334.913V258.188C334.913 258.614 334.975 258.933 335.099 259.146C335.227 259.355 335.388 259.496 335.585 259.568C335.785 259.636 335.996 259.67 336.217 259.67C336.384 259.67 336.52 259.662 336.626 259.645C336.733 259.624 336.818 259.607 336.882 259.594L337.189 260.949C337.087 260.987 336.944 261.026 336.761 261.064C336.577 261.107 336.345 261.128 336.064 261.128C335.638 261.128 335.22 261.036 334.811 260.853C334.406 260.67 334.07 260.391 333.801 260.016C333.537 259.641 333.405 259.168 333.405 258.597V248.83ZM342.168 261.23C341.546 261.23 340.982 261.113 340.474 260.879C339.967 260.64 339.565 260.297 339.266 259.849C338.968 259.398 338.819 258.852 338.819 258.213C338.819 257.651 338.93 257.195 339.151 256.845C339.373 256.491 339.669 256.214 340.04 256.014C340.411 255.814 340.82 255.665 341.267 255.567C341.719 255.464 342.173 255.384 342.629 255.324C343.225 255.247 343.709 255.19 344.08 255.151C344.455 255.109 344.727 255.038 344.898 254.94C345.072 254.842 345.16 254.672 345.16 254.429V254.378C345.16 253.747 344.987 253.257 344.642 252.908C344.301 252.558 343.783 252.384 343.089 252.384C342.369 252.384 341.804 252.541 341.395 252.857C340.986 253.172 340.698 253.509 340.532 253.866L339.1 253.355C339.356 252.759 339.697 252.294 340.123 251.962C340.553 251.625 341.022 251.391 341.529 251.259C342.04 251.122 342.543 251.054 343.038 251.054C343.353 251.054 343.715 251.092 344.124 251.169C344.538 251.241 344.936 251.393 345.32 251.623C345.707 251.853 346.029 252.2 346.285 252.665C346.54 253.129 346.668 253.751 346.668 254.531V261H345.16V259.67H345.083C344.981 259.884 344.81 260.112 344.572 260.354C344.333 260.597 344.016 260.804 343.619 260.974C343.223 261.145 342.739 261.23 342.168 261.23ZM342.398 259.875C342.995 259.875 343.498 259.758 343.907 259.523C344.32 259.289 344.631 258.987 344.84 258.616C345.053 258.245 345.16 257.855 345.16 257.446V256.065C345.096 256.142 344.955 256.212 344.738 256.276C344.525 256.336 344.278 256.389 343.996 256.436C343.719 256.479 343.449 256.517 343.185 256.551C342.925 256.581 342.714 256.607 342.552 256.628C342.16 256.679 341.793 256.762 341.452 256.877C341.116 256.988 340.843 257.156 340.634 257.382C340.43 257.604 340.327 257.906 340.327 258.29C340.327 258.814 340.521 259.21 340.909 259.479C341.301 259.743 341.798 259.875 342.398 259.875ZM353.692 251.182V252.46H348.604V251.182H353.692ZM350.086 248.83H351.595V258.188C351.595 258.614 351.657 258.933 351.78 259.146C351.908 259.355 352.07 259.496 352.266 259.568C352.466 259.636 352.677 259.67 352.899 259.67C353.065 259.67 353.202 259.662 353.308 259.645C353.415 259.624 353.5 259.607 353.564 259.594L353.871 260.949C353.768 260.987 353.626 261.026 353.442 261.064C353.259 261.107 353.027 261.128 352.746 261.128C352.319 261.128 351.902 261.036 351.493 260.853C351.088 260.67 350.751 260.391 350.483 260.016C350.219 259.641 350.086 259.168 350.086 258.597V248.83ZM355.961 261V251.182H357.418V252.665H357.52C357.699 252.179 358.023 251.785 358.492 251.482C358.961 251.18 359.489 251.028 360.077 251.028C360.188 251.028 360.327 251.031 360.493 251.035C360.659 251.039 360.785 251.045 360.87 251.054V252.588C360.819 252.575 360.702 252.556 360.518 252.531C360.339 252.501 360.15 252.486 359.949 252.486C359.472 252.486 359.046 252.586 358.671 252.786C358.3 252.982 358.006 253.255 357.789 253.604C357.576 253.95 357.469 254.344 357.469 254.787V261H355.961ZM365.547 261.23C364.925 261.23 364.36 261.113 363.853 260.879C363.346 260.64 362.944 260.297 362.645 259.849C362.347 259.398 362.198 258.852 362.198 258.213C362.198 257.651 362.309 257.195 362.53 256.845C362.752 256.491 363.048 256.214 363.419 256.014C363.789 255.814 364.199 255.665 364.646 255.567C365.098 255.464 365.551 255.384 366.007 255.324C366.604 255.247 367.088 255.19 367.458 255.151C367.833 255.109 368.106 255.038 368.277 254.94C368.451 254.842 368.539 254.672 368.539 254.429V254.378C368.539 253.747 368.366 253.257 368.021 252.908C367.68 252.558 367.162 252.384 366.468 252.384C365.748 252.384 365.183 252.541 364.774 252.857C364.365 253.172 364.077 253.509 363.911 253.866L362.479 253.355C362.735 252.759 363.076 252.294 363.502 251.962C363.932 251.625 364.401 251.391 364.908 251.259C365.419 251.122 365.922 251.054 366.417 251.054C366.732 251.054 367.094 251.092 367.503 251.169C367.917 251.241 368.315 251.393 368.699 251.623C369.086 251.853 369.408 252.2 369.664 252.665C369.919 253.129 370.047 253.751 370.047 254.531V261H368.539V259.67H368.462C368.36 259.884 368.189 260.112 367.951 260.354C367.712 260.597 367.395 260.804 366.998 260.974C366.602 261.145 366.118 261.23 365.547 261.23ZM365.777 259.875C366.374 259.875 366.877 259.758 367.286 259.523C367.699 259.289 368.01 258.987 368.219 258.616C368.432 258.245 368.539 257.855 368.539 257.446V256.065C368.475 256.142 368.334 256.212 368.117 256.276C367.904 256.336 367.657 256.389 367.375 256.436C367.098 256.479 366.828 256.517 366.564 256.551C366.304 256.581 366.093 256.607 365.931 256.628C365.539 256.679 365.172 256.762 364.831 256.877C364.495 256.988 364.222 257.156 364.013 257.382C363.809 257.604 363.706 257.906 363.706 258.29C363.706 258.814 363.9 259.21 364.288 259.479C364.68 259.743 365.176 259.875 365.777 259.875ZM376.508 261.205C375.69 261.205 374.968 260.998 374.341 260.585C373.715 260.167 373.225 259.579 372.871 258.82C372.517 258.058 372.34 257.156 372.34 256.116C372.34 255.085 372.517 254.19 372.871 253.432C373.225 252.673 373.717 252.087 374.347 251.674C374.978 251.261 375.707 251.054 376.534 251.054C377.173 251.054 377.678 251.161 378.048 251.374C378.423 251.582 378.709 251.821 378.905 252.089C379.105 252.354 379.261 252.571 379.372 252.741H379.499V247.909H381.008V261H379.551V259.491H379.372C379.261 259.67 379.103 259.896 378.899 260.169C378.694 260.437 378.402 260.678 378.023 260.891C377.644 261.1 377.139 261.205 376.508 261.205ZM376.713 259.849C377.318 259.849 377.829 259.692 378.247 259.376C378.664 259.057 378.982 258.616 379.199 258.053C379.416 257.487 379.525 256.832 379.525 256.091C379.525 255.358 379.419 254.717 379.205 254.167C378.992 253.613 378.677 253.183 378.259 252.876C377.842 252.565 377.326 252.409 376.713 252.409C376.073 252.409 375.541 252.573 375.115 252.901C374.693 253.225 374.375 253.666 374.162 254.224C373.953 254.778 373.849 255.401 373.849 256.091C373.849 256.79 373.955 257.425 374.169 257.996C374.386 258.562 374.705 259.014 375.127 259.351C375.553 259.683 376.082 259.849 376.713 259.849ZM388.097 261.205C387.151 261.205 386.335 260.996 385.649 260.578C384.967 260.156 384.441 259.568 384.07 258.814C383.703 258.055 383.52 257.173 383.52 256.168C383.52 255.162 383.703 254.276 384.07 253.509C384.441 252.737 384.956 252.136 385.617 251.706C386.281 251.271 387.057 251.054 387.943 251.054C388.455 251.054 388.96 251.139 389.458 251.31C389.957 251.48 390.411 251.757 390.82 252.141C391.229 252.52 391.555 253.023 391.798 253.649C392.041 254.276 392.162 255.047 392.162 255.963V256.602H384.594V255.298H390.628C390.628 254.744 390.517 254.25 390.296 253.815C390.078 253.381 389.767 253.038 389.362 252.786C388.962 252.535 388.489 252.409 387.943 252.409C387.343 252.409 386.823 252.558 386.384 252.857C385.949 253.151 385.615 253.534 385.38 254.007C385.146 254.48 385.029 254.987 385.029 255.528V256.398C385.029 257.139 385.156 257.768 385.412 258.283C385.672 258.795 386.032 259.185 386.492 259.453C386.953 259.717 387.487 259.849 388.097 259.849C388.493 259.849 388.851 259.794 389.171 259.683C389.494 259.568 389.774 259.398 390.008 259.172C390.242 258.942 390.423 258.656 390.551 258.315L392.009 258.724C391.855 259.219 391.597 259.653 391.235 260.028C390.873 260.399 390.426 260.689 389.893 260.898C389.36 261.102 388.762 261.205 388.097 261.205ZM394.457 261V251.182H395.914V252.665H396.017C396.195 252.179 396.519 251.785 396.988 251.482C397.457 251.18 397.985 251.028 398.573 251.028C398.684 251.028 398.823 251.031 398.989 251.035C399.155 251.039 399.281 251.045 399.366 251.054V252.588C399.315 252.575 399.198 252.556 399.014 252.531C398.835 252.501 398.646 252.486 398.445 252.486C397.968 252.486 397.542 252.586 397.167 252.786C396.796 252.982 396.502 253.255 396.285 253.604C396.072 253.95 395.965 254.344 395.965 254.787V261H394.457ZM169.27 288.23C168.648 288.23 168.083 288.113 167.576 287.879C167.069 287.64 166.666 287.297 166.368 286.849C166.07 286.398 165.92 285.852 165.92 285.213C165.92 284.651 166.031 284.195 166.253 283.845C166.474 283.491 166.771 283.214 167.141 283.014C167.512 282.814 167.921 282.665 168.369 282.567C168.82 282.464 169.274 282.384 169.73 282.324C170.327 282.247 170.81 282.19 171.181 282.151C171.556 282.109 171.829 282.038 171.999 281.94C172.174 281.842 172.261 281.672 172.261 281.429V281.378C172.261 280.747 172.089 280.257 171.744 279.908C171.403 279.558 170.885 279.384 170.19 279.384C169.47 279.384 168.906 279.541 168.496 279.857C168.087 280.172 167.8 280.509 167.634 280.866L166.202 280.355C166.457 279.759 166.798 279.294 167.224 278.962C167.655 278.625 168.124 278.391 168.631 278.259C169.142 278.122 169.645 278.054 170.139 278.054C170.455 278.054 170.817 278.092 171.226 278.169C171.639 278.241 172.038 278.393 172.421 278.623C172.809 278.853 173.131 279.2 173.386 279.665C173.642 280.129 173.77 280.751 173.77 281.531V288H172.261V286.67H172.185C172.082 286.884 171.912 287.112 171.673 287.354C171.435 287.597 171.117 287.804 170.721 287.974C170.325 288.145 169.841 288.23 169.27 288.23ZM169.5 286.875C170.097 286.875 170.599 286.758 171.009 286.523C171.422 286.289 171.733 285.987 171.942 285.616C172.155 285.245 172.261 284.855 172.261 284.446V283.065C172.197 283.142 172.057 283.212 171.839 283.276C171.626 283.336 171.379 283.389 171.098 283.436C170.821 283.479 170.55 283.517 170.286 283.551C170.026 283.581 169.815 283.607 169.653 283.628C169.261 283.679 168.895 283.762 168.554 283.877C168.217 283.988 167.945 284.156 167.736 284.382C167.531 284.604 167.429 284.906 167.429 285.29C167.429 285.814 167.623 286.21 168.011 286.479C168.403 286.743 168.899 286.875 169.5 286.875ZM180.512 288.205C179.591 288.205 178.799 287.987 178.134 287.553C177.469 287.118 176.958 286.519 176.6 285.756C176.242 284.994 176.063 284.122 176.063 283.142C176.063 282.145 176.246 281.265 176.613 280.502C176.983 279.735 177.499 279.136 178.16 278.706C178.824 278.271 179.6 278.054 180.486 278.054C181.177 278.054 181.799 278.182 182.353 278.438C182.907 278.693 183.361 279.051 183.714 279.511C184.068 279.972 184.287 280.509 184.373 281.122H182.864C182.749 280.675 182.493 280.278 182.097 279.933C181.705 279.584 181.177 279.409 180.512 279.409C179.924 279.409 179.408 279.562 178.965 279.869C178.526 280.172 178.183 280.6 177.936 281.154C177.693 281.704 177.572 282.349 177.572 283.091C177.572 283.849 177.691 284.51 177.93 285.072C178.172 285.635 178.513 286.072 178.952 286.383C179.395 286.694 179.915 286.849 180.512 286.849C180.904 286.849 181.26 286.781 181.579 286.645C181.899 286.509 182.17 286.312 182.391 286.057C182.613 285.801 182.77 285.494 182.864 285.136H184.373C184.287 285.716 184.077 286.238 183.74 286.702C183.407 287.163 182.966 287.529 182.417 287.802C181.871 288.07 181.236 288.205 180.512 288.205ZM190.567 288.205C189.646 288.205 188.854 287.987 188.189 287.553C187.524 287.118 187.013 286.519 186.655 285.756C186.297 284.994 186.118 284.122 186.118 283.142C186.118 282.145 186.301 281.265 186.667 280.502C187.038 279.735 187.554 279.136 188.214 278.706C188.879 278.271 189.655 278.054 190.541 278.054C191.231 278.054 191.854 278.182 192.407 278.438C192.961 278.693 193.415 279.051 193.769 279.511C194.123 279.972 194.342 280.509 194.427 281.122H192.919C192.804 280.675 192.548 280.278 192.152 279.933C191.76 279.584 191.231 279.409 190.567 279.409C189.979 279.409 189.463 279.562 189.02 279.869C188.581 280.172 188.238 280.6 187.991 281.154C187.748 281.704 187.626 282.349 187.626 283.091C187.626 283.849 187.746 284.51 187.984 285.072C188.227 285.635 188.568 286.072 189.007 286.383C189.45 286.694 189.97 286.849 190.567 286.849C190.959 286.849 191.314 286.781 191.634 286.645C191.954 286.509 192.224 286.312 192.446 286.057C192.667 285.801 192.825 285.494 192.919 285.136H194.427C194.342 285.716 194.131 286.238 193.795 286.702C193.462 287.163 193.021 287.529 192.471 287.802C191.926 288.07 191.291 288.205 190.567 288.205ZM200.621 288.205C199.735 288.205 198.957 287.994 198.288 287.572C197.623 287.15 197.104 286.56 196.729 285.801C196.358 285.043 196.172 284.156 196.172 283.142C196.172 282.119 196.358 281.227 196.729 280.464C197.104 279.701 197.623 279.109 198.288 278.687C198.957 278.265 199.735 278.054 200.621 278.054C201.508 278.054 202.283 278.265 202.948 278.687C203.617 279.109 204.137 279.701 204.508 280.464C204.883 281.227 205.07 282.119 205.07 283.142C205.07 284.156 204.883 285.043 204.508 285.801C204.137 286.56 203.617 287.15 202.948 287.572C202.283 287.994 201.508 288.205 200.621 288.205ZM200.621 286.849C201.295 286.849 201.849 286.677 202.283 286.332C202.718 285.987 203.04 285.533 203.248 284.97C203.457 284.408 203.562 283.798 203.562 283.142C203.562 282.486 203.457 281.874 203.248 281.308C203.04 280.741 202.718 280.283 202.283 279.933C201.849 279.584 201.295 279.409 200.621 279.409C199.948 279.409 199.394 279.584 198.959 279.933C198.525 280.283 198.203 280.741 197.994 281.308C197.785 281.874 197.681 282.486 197.681 283.142C197.681 283.798 197.785 284.408 197.994 284.97C198.203 285.533 198.525 285.987 198.959 286.332C199.394 286.677 199.948 286.849 200.621 286.849ZM213.56 283.986V278.182H215.069V288H213.56V286.338H213.458C213.228 286.837 212.87 287.261 212.384 287.61C211.898 287.955 211.285 288.128 210.543 288.128C209.93 288.128 209.384 287.994 208.907 287.725C208.43 287.452 208.055 287.043 207.782 286.498C207.509 285.948 207.373 285.256 207.373 284.42V278.182H208.881V284.318C208.881 285.034 209.082 285.605 209.482 286.031C209.887 286.457 210.403 286.67 211.029 286.67C211.404 286.67 211.786 286.575 212.173 286.383C212.565 286.191 212.893 285.897 213.158 285.501C213.426 285.104 213.56 284.599 213.56 283.986ZM219.34 282.094V288H217.832V278.182H219.289V279.716H219.417C219.647 279.217 219.997 278.817 220.465 278.514C220.934 278.207 221.539 278.054 222.281 278.054C222.945 278.054 223.527 278.19 224.026 278.463C224.524 278.732 224.912 279.141 225.189 279.69C225.466 280.236 225.605 280.926 225.605 281.761V288H224.096V281.864C224.096 281.092 223.896 280.491 223.495 280.061C223.095 279.626 222.545 279.409 221.846 279.409C221.365 279.409 220.934 279.513 220.555 279.722C220.18 279.931 219.884 280.236 219.666 280.636C219.449 281.037 219.34 281.523 219.34 282.094ZM232.631 278.182V279.46H227.543V278.182H232.631ZM229.026 275.83H230.534V285.188C230.534 285.614 230.596 285.933 230.72 286.146C230.848 286.355 231.01 286.496 231.206 286.568C231.406 286.636 231.617 286.67 231.838 286.67C232.005 286.67 232.141 286.662 232.248 286.645C232.354 286.624 232.439 286.607 232.503 286.594L232.81 287.949C232.708 287.987 232.565 288.026 232.382 288.064C232.199 288.107 231.966 288.128 231.685 288.128C231.259 288.128 230.841 288.036 230.432 287.853C230.027 287.67 229.691 287.391 229.422 287.016C229.158 286.641 229.026 286.168 229.026 285.597V275.83ZM241.679 280.381L240.324 280.764C240.239 280.538 240.113 280.319 239.947 280.106C239.785 279.888 239.563 279.71 239.282 279.569C239.001 279.428 238.641 279.358 238.202 279.358C237.601 279.358 237.1 279.496 236.7 279.773C236.303 280.046 236.105 280.393 236.105 280.815C236.105 281.19 236.241 281.487 236.514 281.704C236.787 281.921 237.213 282.102 237.793 282.247L239.25 282.605C240.128 282.818 240.782 283.144 241.212 283.583C241.643 284.018 241.858 284.578 241.858 285.264C241.858 285.827 241.696 286.33 241.372 286.773C241.053 287.216 240.605 287.565 240.03 287.821C239.455 288.077 238.786 288.205 238.023 288.205C237.021 288.205 236.192 287.987 235.536 287.553C234.88 287.118 234.464 286.483 234.29 285.648L235.722 285.29C235.858 285.818 236.116 286.214 236.495 286.479C236.879 286.743 237.379 286.875 237.997 286.875C238.7 286.875 239.259 286.726 239.672 286.428C240.089 286.125 240.298 285.763 240.298 285.341C240.298 285 240.179 284.714 239.94 284.484C239.702 284.25 239.335 284.075 238.841 283.96L237.205 283.577C236.305 283.364 235.645 283.033 235.223 282.586C234.805 282.134 234.597 281.57 234.597 280.892C234.597 280.338 234.752 279.848 235.063 279.422C235.379 278.996 235.807 278.661 236.348 278.418C236.893 278.175 237.511 278.054 238.202 278.054C239.173 278.054 239.936 278.267 240.49 278.693C241.048 279.119 241.445 279.682 241.679 280.381ZM253.461 278.182V279.46H248.373V278.182H253.461ZM249.856 275.83H251.365V285.188C251.365 285.614 251.426 285.933 251.55 286.146C251.678 286.355 251.84 286.496 252.036 286.568C252.236 286.636 252.447 286.67 252.669 286.67C252.835 286.67 252.971 286.662 253.078 286.645C253.184 286.624 253.269 286.607 253.333 286.594L253.64 287.949C253.538 287.987 253.395 288.026 253.212 288.064C253.029 288.107 252.796 288.128 252.515 288.128C252.089 288.128 251.671 288.036 251.262 287.853C250.857 287.67 250.521 287.391 250.252 287.016C249.988 286.641 249.856 286.168 249.856 285.597V275.83ZM259.613 288.205C258.727 288.205 257.949 287.994 257.28 287.572C256.616 287.15 256.096 286.56 255.721 285.801C255.35 285.043 255.165 284.156 255.165 283.142C255.165 282.119 255.35 281.227 255.721 280.464C256.096 279.701 256.616 279.109 257.28 278.687C257.949 278.265 258.727 278.054 259.613 278.054C260.5 278.054 261.275 278.265 261.94 278.687C262.609 279.109 263.129 279.701 263.5 280.464C263.875 281.227 264.062 282.119 264.062 283.142C264.062 284.156 263.875 285.043 263.5 285.801C263.129 286.56 262.609 287.15 261.94 287.572C261.275 287.994 260.5 288.205 259.613 288.205ZM259.613 286.849C260.287 286.849 260.841 286.677 261.275 286.332C261.71 285.987 262.032 285.533 262.241 284.97C262.449 284.408 262.554 283.798 262.554 283.142C262.554 282.486 262.449 281.874 262.241 281.308C262.032 280.741 261.71 280.283 261.275 279.933C260.841 279.584 260.287 279.409 259.613 279.409C258.94 279.409 258.386 279.584 257.952 279.933C257.517 280.283 257.195 280.741 256.986 281.308C256.778 281.874 256.673 282.486 256.673 283.142C256.673 283.798 256.778 284.408 256.986 284.97C257.195 285.533 257.517 285.987 257.952 286.332C258.386 286.677 258.94 286.849 259.613 286.849ZM272.399 291.682C272.143 291.682 271.915 291.661 271.715 291.618C271.515 291.58 271.376 291.541 271.3 291.503L271.683 290.173C272.05 290.267 272.374 290.301 272.655 290.276C272.936 290.25 273.185 290.124 273.403 289.898C273.624 289.677 273.827 289.317 274.01 288.818L274.291 288.051L270.661 278.182H272.297L275.007 286.006H275.109L277.82 278.182H279.456L275.288 289.432C275.101 289.939 274.869 290.359 274.592 290.691C274.315 291.028 273.993 291.277 273.626 291.439C273.264 291.601 272.855 291.682 272.399 291.682ZM285.084 288.205C284.198 288.205 283.42 287.994 282.751 287.572C282.086 287.15 281.566 286.56 281.191 285.801C280.821 285.043 280.635 284.156 280.635 283.142C280.635 282.119 280.821 281.227 281.191 280.464C281.566 279.701 282.086 279.109 282.751 278.687C283.42 278.265 284.198 278.054 285.084 278.054C285.971 278.054 286.746 278.265 287.411 278.687C288.08 279.109 288.6 279.701 288.971 280.464C289.346 281.227 289.533 282.119 289.533 283.142C289.533 284.156 289.346 285.043 288.971 285.801C288.6 286.56 288.08 287.15 287.411 287.572C286.746 287.994 285.971 288.205 285.084 288.205ZM285.084 286.849C285.757 286.849 286.311 286.677 286.746 286.332C287.181 285.987 287.502 285.533 287.711 284.97C287.92 284.408 288.025 283.798 288.025 283.142C288.025 282.486 287.92 281.874 287.711 281.308C287.502 280.741 287.181 280.283 286.746 279.933C286.311 279.584 285.757 279.409 285.084 279.409C284.411 279.409 283.857 279.584 283.422 279.933C282.988 280.283 282.666 280.741 282.457 281.308C282.248 281.874 282.144 282.486 282.144 283.142C282.144 283.798 282.248 284.408 282.457 284.97C282.666 285.533 282.988 285.987 283.422 286.332C283.857 286.677 284.411 286.849 285.084 286.849ZM298.023 283.986V278.182H299.532V288H298.023V286.338H297.921C297.691 286.837 297.333 287.261 296.847 287.61C296.361 287.955 295.748 288.128 295.006 288.128C294.393 288.128 293.847 287.994 293.37 287.725C292.893 287.452 292.518 287.043 292.245 286.498C291.972 285.948 291.836 285.256 291.836 284.42V278.182H293.344V284.318C293.344 285.034 293.545 285.605 293.945 286.031C294.35 286.457 294.866 286.67 295.492 286.67C295.867 286.67 296.248 286.575 296.636 286.383C297.028 286.191 297.356 285.897 297.621 285.501C297.889 285.104 298.023 284.599 298.023 283.986ZM302.295 288V278.182H303.752V279.665H303.854C304.033 279.179 304.357 278.785 304.826 278.482C305.295 278.18 305.823 278.028 306.411 278.028C306.522 278.028 306.661 278.031 306.827 278.035C306.993 278.039 307.119 278.045 307.204 278.054V279.588C307.153 279.575 307.036 279.556 306.852 279.531C306.673 279.501 306.484 279.486 306.283 279.486C305.806 279.486 305.38 279.586 305.005 279.786C304.634 279.982 304.34 280.255 304.123 280.604C303.91 280.95 303.803 281.344 303.803 281.787V288H302.295ZM318.427 278.182V279.46H313.134V278.182H318.427ZM314.719 288V276.827C314.719 276.264 314.851 275.795 315.116 275.42C315.38 275.045 315.723 274.764 316.145 274.577C316.567 274.389 317.012 274.295 317.481 274.295C317.851 274.295 318.154 274.325 318.388 274.385C318.623 274.445 318.797 274.5 318.912 274.551L318.478 275.855C318.401 275.83 318.295 275.798 318.158 275.759C318.026 275.721 317.851 275.702 317.634 275.702C317.135 275.702 316.775 275.827 316.554 276.079C316.336 276.33 316.228 276.699 316.228 277.185V288H314.719ZM320.541 288V278.182H322.049V288H320.541ZM321.308 276.545C321.014 276.545 320.76 276.445 320.547 276.245C320.338 276.045 320.234 275.804 320.234 275.523C320.234 275.241 320.338 275.001 320.547 274.8C320.76 274.6 321.014 274.5 321.308 274.5C321.602 274.5 321.853 274.6 322.062 274.8C322.275 275.001 322.382 275.241 322.382 275.523C322.382 275.804 322.275 276.045 322.062 276.245C321.853 276.445 321.602 276.545 321.308 276.545ZM326.321 282.094V288H324.812V278.182H326.27V279.716H326.398C326.628 279.217 326.977 278.817 327.446 278.514C327.915 278.207 328.52 278.054 329.261 278.054C329.926 278.054 330.508 278.19 331.006 278.463C331.505 278.732 331.893 279.141 332.17 279.69C332.447 280.236 332.585 280.926 332.585 281.761V288H331.077V281.864C331.077 281.092 330.876 280.491 330.476 280.061C330.075 279.626 329.525 279.409 328.827 279.409C328.345 279.409 327.915 279.513 327.535 279.722C327.16 279.931 326.864 280.236 326.647 280.636C326.43 281.037 326.321 281.523 326.321 282.094ZM339.305 291.886C338.576 291.886 337.95 291.793 337.425 291.605C336.901 291.422 336.464 291.179 336.115 290.876C335.77 290.578 335.495 290.259 335.29 289.918L336.492 289.074C336.629 289.253 336.801 289.457 337.01 289.688C337.219 289.922 337.504 290.124 337.866 290.295C338.233 290.469 338.712 290.557 339.305 290.557C340.097 290.557 340.751 290.365 341.267 289.982C341.783 289.598 342.04 288.997 342.04 288.179V286.185H341.913C341.802 286.364 341.644 286.585 341.44 286.849C341.239 287.109 340.95 287.342 340.57 287.546C340.195 287.746 339.688 287.847 339.049 287.847C338.256 287.847 337.545 287.659 336.914 287.284C336.288 286.909 335.791 286.364 335.425 285.648C335.063 284.932 334.881 284.062 334.881 283.04C334.881 282.034 335.058 281.158 335.412 280.413C335.766 279.663 336.258 279.083 336.888 278.674C337.519 278.261 338.248 278.054 339.075 278.054C339.714 278.054 340.221 278.161 340.596 278.374C340.975 278.582 341.265 278.821 341.465 279.089C341.67 279.354 341.827 279.571 341.938 279.741H342.092V278.182H343.549V288.281C343.549 289.125 343.357 289.811 342.974 290.339C342.594 290.872 342.083 291.262 341.44 291.509C340.8 291.761 340.089 291.886 339.305 291.886ZM339.254 286.491C339.859 286.491 340.37 286.353 340.788 286.076C341.205 285.799 341.523 285.401 341.74 284.881C341.957 284.361 342.066 283.739 342.066 283.014C342.066 282.307 341.96 281.683 341.746 281.141C341.533 280.6 341.218 280.176 340.8 279.869C340.383 279.562 339.867 279.409 339.254 279.409C338.614 279.409 338.082 279.571 337.656 279.895C337.234 280.219 336.916 280.653 336.703 281.199C336.494 281.744 336.39 282.349 336.39 283.014C336.39 283.696 336.496 284.299 336.71 284.823C336.927 285.343 337.246 285.752 337.668 286.05C338.094 286.344 338.623 286.491 339.254 286.491ZM350.427 288.205C349.481 288.205 348.665 287.996 347.979 287.578C347.297 287.156 346.771 286.568 346.4 285.814C346.033 285.055 345.85 284.173 345.85 283.168C345.85 282.162 346.033 281.276 346.4 280.509C346.771 279.737 347.286 279.136 347.947 278.706C348.612 278.271 349.387 278.054 350.273 278.054C350.785 278.054 351.29 278.139 351.788 278.31C352.287 278.48 352.741 278.757 353.15 279.141C353.559 279.52 353.885 280.023 354.128 280.649C354.371 281.276 354.492 282.047 354.492 282.963V283.602H346.924V282.298H352.958C352.958 281.744 352.847 281.25 352.626 280.815C352.408 280.381 352.097 280.038 351.692 279.786C351.292 279.535 350.819 279.409 350.273 279.409C349.673 279.409 349.153 279.558 348.714 279.857C348.279 280.151 347.945 280.534 347.71 281.007C347.476 281.48 347.359 281.987 347.359 282.528V283.398C347.359 284.139 347.487 284.768 347.742 285.283C348.002 285.795 348.362 286.185 348.822 286.453C349.283 286.717 349.817 286.849 350.427 286.849C350.823 286.849 351.181 286.794 351.501 286.683C351.825 286.568 352.104 286.398 352.338 286.172C352.572 285.942 352.754 285.656 352.881 285.315L354.339 285.724C354.185 286.219 353.928 286.653 353.565 287.028C353.203 287.399 352.756 287.689 352.223 287.898C351.69 288.102 351.092 288.205 350.427 288.205ZM356.787 288V278.182H358.244V279.665H358.347C358.526 279.179 358.849 278.785 359.318 278.482C359.787 278.18 360.315 278.028 360.903 278.028C361.014 278.028 361.153 278.031 361.319 278.035C361.485 278.039 361.611 278.045 361.696 278.054V279.588C361.645 279.575 361.528 279.556 361.344 279.531C361.165 279.501 360.976 279.486 360.776 279.486C360.298 279.486 359.872 279.586 359.497 279.786C359.126 279.982 358.832 280.255 358.615 280.604C358.402 280.95 358.295 281.344 358.295 281.787V288H356.787ZM368.369 278.182V279.46H363.281V278.182H368.369ZM364.764 275.83H366.273V285.188C366.273 285.614 366.335 285.933 366.458 286.146C366.586 286.355 366.748 286.496 366.944 286.568C367.144 286.636 367.355 286.67 367.577 286.67C367.743 286.67 367.879 286.662 367.986 286.645C368.092 286.624 368.178 286.607 368.241 286.594L368.548 287.949C368.446 287.987 368.303 288.026 368.12 288.064C367.937 288.107 367.705 288.128 367.423 288.128C366.997 288.128 366.58 288.036 366.17 287.853C365.766 287.67 365.429 287.391 365.161 287.016C364.896 286.641 364.764 286.168 364.764 285.597V275.83ZM370.638 288V278.182H372.147V288H370.638ZM371.406 276.545C371.112 276.545 370.858 276.445 370.645 276.245C370.436 276.045 370.332 275.804 370.332 275.523C370.332 275.241 370.436 275.001 370.645 274.8C370.858 274.6 371.112 274.5 371.406 274.5C371.7 274.5 371.951 274.6 372.16 274.8C372.373 275.001 372.479 275.241 372.479 275.523C372.479 275.804 372.373 276.045 372.16 276.245C371.951 276.445 371.7 276.545 371.406 276.545ZM374.91 291.682V278.182H376.367V279.741H376.546C376.657 279.571 376.811 279.354 377.007 279.089C377.207 278.821 377.492 278.582 377.863 278.374C378.238 278.161 378.745 278.054 379.384 278.054C380.211 278.054 380.94 278.261 381.57 278.674C382.201 279.087 382.693 279.673 383.047 280.432C383.401 281.19 383.578 282.085 383.578 283.116C383.578 284.156 383.401 285.058 383.047 285.82C382.693 286.579 382.203 287.167 381.577 287.585C380.95 287.998 380.228 288.205 379.41 288.205C378.779 288.205 378.274 288.1 377.895 287.891C377.516 287.678 377.224 287.437 377.019 287.169C376.815 286.896 376.657 286.67 376.546 286.491H376.419V291.682H374.91ZM376.393 283.091C376.393 283.832 376.502 284.487 376.719 285.053C376.936 285.616 377.254 286.057 377.671 286.376C378.089 286.692 378.6 286.849 379.205 286.849C379.836 286.849 380.362 286.683 380.784 286.351C381.21 286.014 381.53 285.562 381.743 284.996C381.96 284.425 382.069 283.79 382.069 283.091C382.069 282.401 381.963 281.778 381.749 281.224C381.541 280.666 381.223 280.225 380.797 279.901C380.375 279.573 379.845 279.409 379.205 279.409C378.592 279.409 378.076 279.565 377.659 279.876C377.241 280.183 376.926 280.613 376.713 281.167C376.499 281.717 376.393 282.358 376.393 283.091ZM392.833 280.381L391.478 280.764C391.393 280.538 391.267 280.319 391.101 280.106C390.939 279.888 390.718 279.71 390.436 279.569C390.155 279.428 389.795 279.358 389.356 279.358C388.755 279.358 388.254 279.496 387.854 279.773C387.458 280.046 387.259 280.393 387.259 280.815C387.259 281.19 387.396 281.487 387.669 281.704C387.941 281.921 388.367 282.102 388.947 282.247L390.404 282.605C391.282 282.818 391.936 283.144 392.367 283.583C392.797 284.018 393.012 284.578 393.012 285.264C393.012 285.827 392.85 286.33 392.526 286.773C392.207 287.216 391.759 287.565 391.184 287.821C390.609 288.077 389.94 288.205 389.177 288.205C388.176 288.205 387.347 287.987 386.691 287.553C386.034 287.118 385.619 286.483 385.444 285.648L386.876 285.29C387.012 285.818 387.27 286.214 387.649 286.479C388.033 286.743 388.534 286.875 389.151 286.875C389.855 286.875 390.413 286.726 390.826 286.428C391.244 286.125 391.453 285.763 391.453 285.341C391.453 285 391.333 284.714 391.095 284.484C390.856 284.25 390.49 284.075 389.995 283.96L388.359 283.577C387.46 283.364 386.799 283.033 386.377 282.586C385.96 282.134 385.751 281.57 385.751 280.892C385.751 280.338 385.906 279.848 386.218 279.422C386.533 278.996 386.961 278.661 387.502 278.418C388.048 278.175 388.666 278.054 389.356 278.054C390.328 278.054 391.09 278.267 391.644 278.693C392.203 279.119 392.599 279.682 392.833 280.381ZM397.252 284.318V284.241C397.26 283.428 397.346 282.78 397.507 282.298C397.669 281.817 397.9 281.427 398.198 281.129C398.496 280.83 398.854 280.555 399.272 280.304C399.523 280.151 399.749 279.969 399.949 279.761C400.15 279.548 400.307 279.303 400.422 279.026C400.542 278.749 400.601 278.442 400.601 278.105C400.601 277.687 400.503 277.325 400.307 277.018C400.111 276.712 399.849 276.475 399.521 276.309C399.193 276.143 398.828 276.06 398.428 276.06C398.078 276.06 397.742 276.132 397.418 276.277C397.094 276.422 396.824 276.65 396.606 276.961C396.389 277.272 396.263 277.679 396.229 278.182H394.618C394.652 277.457 394.84 276.837 395.181 276.322C395.526 275.806 395.98 275.412 396.542 275.139C397.109 274.866 397.738 274.73 398.428 274.73C399.178 274.73 399.83 274.879 400.384 275.178C400.942 275.476 401.373 275.885 401.675 276.405C401.982 276.925 402.135 277.517 402.135 278.182C402.135 278.651 402.063 279.075 401.918 279.454C401.777 279.833 401.573 280.172 401.304 280.47C401.04 280.768 400.721 281.033 400.346 281.263C399.971 281.497 399.67 281.744 399.444 282.004C399.218 282.26 399.054 282.565 398.952 282.918C398.85 283.272 398.794 283.713 398.786 284.241V284.318H397.252ZM398.07 288.102C397.755 288.102 397.484 287.989 397.258 287.763C397.032 287.538 396.919 287.267 396.919 286.952C396.919 286.636 397.032 286.366 397.258 286.14C397.484 285.914 397.755 285.801 398.07 285.801C398.385 285.801 398.656 285.914 398.882 286.14C399.108 286.366 399.221 286.636 399.221 286.952C399.221 287.161 399.167 287.352 399.061 287.527C398.958 287.702 398.82 287.842 398.645 287.949C398.475 288.051 398.283 288.102 398.07 288.102ZM166.865 337V318.091H170.29V334.129H178.619V337H166.865ZM187.63 337.277C186.245 337.277 185.045 336.972 184.029 336.363C183.013 335.754 182.226 334.901 181.665 333.805C181.112 332.71 180.835 331.429 180.835 329.964C180.835 328.5 181.112 327.216 181.665 326.114C182.226 325.013 183.013 324.157 184.029 323.548C185.045 322.938 186.245 322.634 187.63 322.634C189.015 322.634 190.215 322.938 191.231 323.548C192.246 324.157 193.031 325.013 193.585 326.114C194.145 327.216 194.425 328.5 194.425 329.964C194.425 331.429 194.145 332.71 193.585 333.805C193.031 334.901 192.246 335.754 191.231 336.363C190.215 336.972 189.015 337.277 187.63 337.277ZM187.648 334.599C188.399 334.599 189.027 334.393 189.532 333.981C190.037 333.562 190.412 333.002 190.658 332.3C190.911 331.599 191.037 330.817 191.037 329.955C191.037 329.087 190.911 328.303 190.658 327.601C190.412 326.893 190.037 326.33 189.532 325.911C189.027 325.493 188.399 325.283 187.648 325.283C186.879 325.283 186.239 325.493 185.728 325.911C185.223 326.33 184.845 326.893 184.592 327.601C184.346 328.303 184.223 329.087 184.223 329.955C184.223 330.817 184.346 331.599 184.592 332.3C184.845 333.002 185.223 333.562 185.728 333.981C186.239 334.393 186.879 334.599 187.648 334.599ZM203.448 337.277C202.063 337.277 200.863 336.972 199.847 336.363C198.832 335.754 198.044 334.901 197.484 333.805C196.93 332.71 196.653 331.429 196.653 329.964C196.653 328.5 196.93 327.216 197.484 326.114C198.044 325.013 198.832 324.157 199.847 323.548C200.863 322.938 202.063 322.634 203.448 322.634C204.833 322.634 206.034 322.938 207.049 323.548C208.065 324.157 208.85 325.013 209.404 326.114C209.964 327.216 210.244 328.5 210.244 329.964C210.244 331.429 209.964 332.71 209.404 333.805C208.85 334.901 208.065 335.754 207.049 336.363C206.034 336.972 204.833 337.277 203.448 337.277ZM203.467 334.599C204.218 334.599 204.846 334.393 205.35 333.981C205.855 333.562 206.231 333.002 206.477 332.3C206.729 331.599 206.855 330.817 206.855 329.955C206.855 329.087 206.729 328.303 206.477 327.601C206.231 326.893 205.855 326.33 205.35 325.911C204.846 325.493 204.218 325.283 203.467 325.283C202.697 325.283 202.057 325.493 201.546 325.911C201.042 326.33 200.663 326.893 200.411 327.601C200.164 328.303 200.041 329.087 200.041 329.955C200.041 330.817 200.164 331.599 200.411 332.3C200.663 333.002 201.042 333.562 201.546 333.981C202.057 334.393 202.697 334.599 203.467 334.599ZM216.127 332.55L216.118 328.515H216.654L221.75 322.818H225.656L219.387 329.798H218.694L216.127 332.55ZM213.081 337V318.091H216.423V337H213.081ZM221.981 337L217.365 330.546L219.618 328.192L225.979 337H221.981ZM237.675 328.69V337H234.333V322.818H237.527V325.228H237.693C238.02 324.434 238.54 323.803 239.254 323.335C239.974 322.867 240.863 322.634 241.922 322.634C242.901 322.634 243.753 322.843 244.48 323.261C245.212 323.68 245.778 324.286 246.178 325.08C246.585 325.874 246.785 326.838 246.779 327.97V337H243.436V328.487C243.436 327.539 243.19 326.798 242.698 326.262C242.211 325.727 241.537 325.459 240.676 325.459C240.091 325.459 239.571 325.588 239.115 325.847C238.666 326.099 238.312 326.465 238.053 326.945C237.801 327.425 237.675 328.007 237.675 328.69ZM256.362 337.277C254.977 337.277 253.777 336.972 252.762 336.363C251.746 335.754 250.958 334.901 250.398 333.805C249.844 332.71 249.567 331.429 249.567 329.964C249.567 328.5 249.844 327.216 250.398 326.114C250.958 325.013 251.746 324.157 252.762 323.548C253.777 322.938 254.977 322.634 256.362 322.634C257.747 322.634 258.948 322.938 259.963 323.548C260.979 324.157 261.764 325.013 262.318 326.114C262.878 327.216 263.158 328.5 263.158 329.964C263.158 331.429 262.878 332.71 262.318 333.805C261.764 334.901 260.979 335.754 259.963 336.363C258.948 336.972 257.747 337.277 256.362 337.277ZM256.381 334.599C257.132 334.599 257.76 334.393 258.264 333.981C258.769 333.562 259.145 333.002 259.391 332.3C259.643 331.599 259.769 330.817 259.769 329.955C259.769 329.087 259.643 328.303 259.391 327.601C259.145 326.893 258.769 326.33 258.264 325.911C257.76 325.493 257.132 325.283 256.381 325.283C255.611 325.283 254.971 325.493 254.46 325.911C253.956 326.33 253.577 326.893 253.325 327.601C253.079 328.303 252.955 329.087 252.955 329.955C252.955 330.817 253.079 331.599 253.325 332.3C253.577 333.002 253.956 333.562 254.46 333.981C254.971 334.393 255.611 334.599 256.381 334.599ZM279.627 322.818V325.403H271.244V322.818H279.627ZM273.339 337V321.479C273.339 320.525 273.536 319.731 273.93 319.097C274.33 318.463 274.866 317.989 275.537 317.675C276.208 317.362 276.953 317.205 277.771 317.205C278.35 317.205 278.864 317.251 279.313 317.343C279.763 317.435 280.095 317.518 280.31 317.592L279.646 320.178C279.504 320.134 279.326 320.091 279.11 320.048C278.895 319.999 278.655 319.974 278.39 319.974C277.768 319.974 277.328 320.125 277.07 320.427C276.817 320.722 276.691 321.147 276.691 321.701V337H273.339ZM291.284 331.036V322.818H294.626V337H291.385V334.479H291.238C290.917 335.273 290.391 335.923 289.659 336.428C288.932 336.932 288.037 337.185 286.972 337.185C286.042 337.185 285.221 336.978 284.507 336.566C283.799 336.147 283.245 335.541 282.845 334.747C282.445 333.947 282.245 332.981 282.245 331.848V322.818H285.587V331.331C285.587 332.23 285.833 332.944 286.326 333.473C286.818 334.002 287.464 334.267 288.265 334.267C288.757 334.267 289.234 334.147 289.696 333.907C290.157 333.667 290.536 333.31 290.831 332.836C291.133 332.356 291.284 331.756 291.284 331.036ZM298.063 337V322.818H301.304V325.182H301.452C301.71 324.363 302.153 323.732 302.781 323.289C303.415 322.84 304.138 322.615 304.951 322.615C305.135 322.615 305.342 322.624 305.569 322.643C305.803 322.655 305.997 322.677 306.151 322.707V325.782C306.01 325.733 305.785 325.69 305.477 325.653C305.175 325.61 304.883 325.588 304.6 325.588C303.991 325.588 303.443 325.72 302.956 325.985C302.476 326.244 302.098 326.604 301.821 327.065C301.544 327.527 301.405 328.059 301.405 328.663V337H298.063ZM316.215 322.818V325.403H308.062V322.818H316.215ZM310.075 319.42H313.417V332.734C313.417 333.184 313.485 333.528 313.621 333.768C313.762 334.002 313.947 334.162 314.175 334.249C314.402 334.335 314.655 334.378 314.932 334.378C315.141 334.378 315.332 334.362 315.504 334.332C315.683 334.301 315.818 334.273 315.91 334.249L316.474 336.862C316.295 336.923 316.04 336.991 315.707 337.065C315.381 337.138 314.981 337.182 314.507 337.194C313.67 337.219 312.916 337.092 312.245 336.815C311.574 336.532 311.041 336.095 310.648 335.504C310.26 334.913 310.069 334.175 310.075 333.288V319.42ZM322.657 328.69V337H319.315V318.091H322.583V325.228H322.75C323.082 324.428 323.596 323.797 324.292 323.335C324.993 322.867 325.886 322.634 326.969 322.634C327.954 322.634 328.813 322.84 329.545 323.252C330.278 323.665 330.844 324.268 331.244 325.062C331.65 325.856 331.853 326.825 331.853 327.97V337H328.511V328.487C328.511 327.533 328.265 326.791 327.772 326.262C327.286 325.727 326.603 325.459 325.723 325.459C325.132 325.459 324.602 325.588 324.135 325.847C323.673 326.099 323.31 326.465 323.045 326.945C322.787 327.425 322.657 328.007 322.657 328.69ZM341.539 337.277C340.117 337.277 338.889 336.982 337.855 336.391C336.827 335.794 336.036 334.95 335.482 333.861C334.928 332.765 334.651 331.476 334.651 329.992C334.651 328.533 334.928 327.253 335.482 326.151C336.042 325.043 336.824 324.182 337.827 323.566C338.83 322.944 340.009 322.634 341.363 322.634C342.237 322.634 343.062 322.775 343.838 323.058C344.619 323.335 345.309 323.766 345.906 324.351C346.509 324.936 346.983 325.68 347.328 326.585C347.672 327.484 347.845 328.555 347.845 329.798V330.823H336.221V328.57H344.641C344.635 327.93 344.496 327.361 344.225 326.862C343.955 326.357 343.576 325.96 343.09 325.671C342.61 325.382 342.05 325.237 341.409 325.237C340.726 325.237 340.126 325.403 339.609 325.736C339.092 326.062 338.689 326.493 338.4 327.028C338.116 327.558 337.972 328.139 337.966 328.773V330.74C337.966 331.565 338.116 332.273 338.418 332.864C338.72 333.448 339.141 333.898 339.683 334.212C340.225 334.519 340.859 334.673 341.585 334.673C342.071 334.673 342.511 334.606 342.905 334.47C343.299 334.329 343.641 334.122 343.93 333.852C344.219 333.581 344.438 333.245 344.586 332.845L347.706 333.196C347.509 334.021 347.134 334.741 346.58 335.357C346.032 335.966 345.33 336.44 344.475 336.778C343.619 337.111 342.641 337.277 341.539 337.277ZM350.672 337V322.818H353.913V325.182H354.061C354.319 324.363 354.763 323.732 355.39 323.289C356.024 322.84 356.748 322.615 357.56 322.615C357.745 322.615 357.951 322.624 358.179 322.643C358.413 322.655 358.607 322.677 358.76 322.707V325.782C358.619 325.733 358.394 325.69 358.086 325.653C357.785 325.61 357.492 325.588 357.209 325.588C356.6 325.588 356.052 325.72 355.566 325.985C355.086 326.244 354.707 326.604 354.43 327.065C354.153 327.527 354.015 328.059 354.015 328.663V337H350.672ZM374.512 322.818V325.403H366.359V322.818H374.512ZM368.372 319.42H371.714V332.734C371.714 333.184 371.782 333.528 371.917 333.768C372.059 334.002 372.244 334.162 372.471 334.249C372.699 334.335 372.952 334.378 373.229 334.378C373.438 334.378 373.629 334.362 373.801 334.332C373.979 334.301 374.115 334.273 374.207 334.249L374.77 336.862C374.592 336.923 374.336 336.991 374.004 337.065C373.678 337.138 373.278 337.182 372.804 337.194C371.967 337.219 371.213 337.092 370.542 336.815C369.871 336.532 369.338 336.095 368.944 335.504C368.557 334.913 368.366 334.175 368.372 333.288V319.42ZM380.954 328.69V337H377.612V318.091H380.88V325.228H381.047C381.379 324.428 381.893 323.797 382.588 323.335C383.29 322.867 384.183 322.634 385.266 322.634C386.251 322.634 387.109 322.84 387.842 323.252C388.574 323.665 389.141 324.268 389.541 325.062C389.947 325.856 390.15 326.825 390.15 327.97V337H386.808V328.487C386.808 327.533 386.562 326.791 386.069 326.262C385.583 325.727 384.9 325.459 384.02 325.459C383.429 325.459 382.899 325.588 382.431 325.847C381.97 326.099 381.607 326.465 381.342 326.945C381.083 327.425 380.954 328.007 380.954 328.69ZM397.638 337.286C396.739 337.286 395.93 337.126 395.21 336.806C394.496 336.48 393.93 336 393.511 335.366C393.099 334.732 392.892 333.95 392.892 333.021C392.892 332.22 393.04 331.559 393.336 331.036C393.631 330.512 394.034 330.094 394.545 329.78C395.056 329.466 395.632 329.229 396.272 329.069C396.918 328.903 397.586 328.783 398.275 328.709C399.106 328.623 399.78 328.546 400.297 328.478C400.814 328.404 401.19 328.293 401.424 328.146C401.664 327.992 401.784 327.755 401.784 327.435V327.379C401.784 326.684 401.578 326.145 401.165 325.763C400.753 325.382 400.159 325.191 399.383 325.191C398.565 325.191 397.915 325.37 397.435 325.727C396.961 326.084 396.641 326.505 396.475 326.991L393.354 326.548C393.6 325.687 394.007 324.966 394.573 324.388C395.139 323.803 395.832 323.366 396.65 323.077C397.469 322.781 398.374 322.634 399.365 322.634C400.048 322.634 400.728 322.714 401.405 322.874C402.082 323.034 402.701 323.298 403.261 323.668C403.821 324.031 404.27 324.526 404.609 325.154C404.954 325.782 405.126 326.567 405.126 327.509V337H401.913V335.052H401.802C401.599 335.446 401.313 335.815 400.944 336.16C400.58 336.498 400.122 336.772 399.568 336.982C399.02 337.185 398.377 337.286 397.638 337.286ZM398.506 334.83C399.177 334.83 399.759 334.698 400.251 334.433C400.743 334.162 401.122 333.805 401.387 333.362C401.658 332.919 401.793 332.436 401.793 331.913V330.241C401.688 330.328 401.51 330.408 401.257 330.482C401.011 330.555 400.734 330.62 400.426 330.675C400.119 330.731 399.814 330.78 399.512 330.823C399.211 330.866 398.949 330.903 398.728 330.934C398.229 331.002 397.783 331.112 397.389 331.266C396.995 331.42 396.684 331.636 396.456 331.913C396.229 332.183 396.115 332.534 396.115 332.965C396.115 333.581 396.339 334.045 396.789 334.359C397.238 334.673 397.81 334.83 398.506 334.83ZM411.829 328.69V337H408.487V322.818H411.681V325.228H411.848C412.174 324.434 412.694 323.803 413.408 323.335C414.128 322.867 415.018 322.634 416.076 322.634C417.055 322.634 417.908 322.843 418.634 323.261C419.366 323.68 419.933 324.286 420.333 325.08C420.739 325.874 420.939 326.838 420.933 327.97V337H417.591V328.487C417.591 327.539 417.344 326.798 416.852 326.262C416.366 325.727 415.692 325.459 414.83 325.459C414.245 325.459 413.725 325.588 413.27 325.847C412.82 326.099 412.466 326.465 412.208 326.945C411.955 327.425 411.829 328.007 411.829 328.69ZM173.799 361.818V364.403H165.646V361.818H173.799ZM167.659 358.42H171.001V371.734C171.001 372.184 171.069 372.528 171.205 372.768C171.346 373.002 171.531 373.162 171.759 373.249C171.986 373.335 172.239 373.378 172.516 373.378C172.725 373.378 172.916 373.362 173.088 373.332C173.267 373.301 173.402 373.273 173.494 373.249L174.058 375.862C173.879 375.923 173.624 375.991 173.291 376.065C172.965 376.138 172.565 376.182 172.091 376.194C171.254 376.219 170.5 376.092 169.829 375.815C169.158 375.532 168.625 375.095 168.232 374.504C167.844 373.913 167.653 373.175 167.659 372.288V358.42ZM180.241 367.69V376H176.899V357.091H180.167V364.228H180.334C180.666 363.428 181.18 362.797 181.876 362.335C182.577 361.867 183.47 361.634 184.553 361.634C185.538 361.634 186.397 361.84 187.129 362.252C187.862 362.665 188.428 363.268 188.828 364.062C189.234 364.856 189.437 365.825 189.437 366.97V376H186.095V367.487C186.095 366.533 185.849 365.791 185.356 365.262C184.87 364.727 184.187 364.459 183.307 364.459C182.716 364.459 182.186 364.588 181.719 364.847C181.257 365.099 180.894 365.465 180.629 365.945C180.371 366.425 180.241 367.007 180.241 367.69ZM199.123 376.277C197.701 376.277 196.473 375.982 195.439 375.391C194.411 374.794 193.62 373.95 193.066 372.861C192.512 371.765 192.235 370.476 192.235 368.992C192.235 367.533 192.512 366.253 193.066 365.151C193.626 364.043 194.408 363.182 195.411 362.566C196.414 361.944 197.593 361.634 198.947 361.634C199.821 361.634 200.646 361.775 201.422 362.058C202.203 362.335 202.893 362.766 203.49 363.351C204.093 363.936 204.567 364.68 204.912 365.585C205.256 366.484 205.429 367.555 205.429 368.798V369.823H193.805V367.57H202.225C202.219 366.93 202.08 366.361 201.809 365.862C201.539 365.357 201.16 364.96 200.674 364.671C200.194 364.382 199.634 364.237 198.993 364.237C198.31 364.237 197.71 364.403 197.193 364.736C196.676 365.062 196.273 365.493 195.983 366.028C195.7 366.558 195.556 367.139 195.55 367.773V369.74C195.55 370.565 195.7 371.273 196.002 371.864C196.304 372.448 196.725 372.898 197.267 373.212C197.809 373.519 198.443 373.673 199.169 373.673C199.655 373.673 200.095 373.606 200.489 373.47C200.883 373.329 201.225 373.122 201.514 372.852C201.803 372.581 202.022 372.245 202.17 371.845L205.29 372.196C205.093 373.021 204.718 373.741 204.164 374.357C203.616 374.966 202.914 375.44 202.059 375.778C201.203 376.111 200.224 376.277 199.123 376.277ZM217.282 376H213.625L220.282 357.091H224.511L231.177 376H227.521L222.471 360.969H222.323L217.282 376ZM217.402 368.586H227.373V371.337H217.402V368.586ZM233.52 381.318V361.818H236.807V364.163H237.001C237.173 363.819 237.416 363.452 237.73 363.065C238.044 362.671 238.469 362.335 239.004 362.058C239.54 361.775 240.223 361.634 241.054 361.634C242.15 361.634 243.138 361.914 244.018 362.474C244.904 363.028 245.606 363.849 246.123 364.939C246.646 366.022 246.908 367.352 246.908 368.928C246.908 370.485 246.652 371.808 246.142 372.898C245.631 373.987 244.935 374.818 244.055 375.391C243.175 375.963 242.177 376.249 241.063 376.249C240.251 376.249 239.577 376.114 239.041 375.843C238.506 375.572 238.075 375.246 237.749 374.864C237.429 374.477 237.179 374.11 237.001 373.766H236.862V381.318H233.52ZM236.798 368.909C236.798 369.826 236.927 370.629 237.186 371.319C237.45 372.008 237.829 372.547 238.321 372.935C238.82 373.316 239.423 373.507 240.131 373.507C240.869 373.507 241.488 373.31 241.987 372.916C242.485 372.516 242.861 371.971 243.113 371.282C243.372 370.586 243.501 369.795 243.501 368.909C243.501 368.029 243.375 367.247 243.122 366.564C242.87 365.881 242.494 365.345 241.996 364.957C241.497 364.57 240.876 364.376 240.131 364.376C239.417 364.376 238.811 364.563 238.312 364.939C237.813 365.314 237.435 365.841 237.176 366.518C236.924 367.195 236.798 367.992 236.798 368.909ZM249.77 381.318V361.818H253.057V364.163H253.251C253.423 363.819 253.666 363.452 253.98 363.065C254.294 362.671 254.719 362.335 255.254 362.058C255.79 361.775 256.473 361.634 257.304 361.634C258.4 361.634 259.388 361.914 260.268 362.474C261.154 363.028 261.856 363.849 262.373 364.939C262.896 366.022 263.158 367.352 263.158 368.928C263.158 370.485 262.902 371.808 262.392 372.898C261.881 373.987 261.185 374.818 260.305 375.391C259.425 375.963 258.427 376.249 257.313 376.249C256.501 376.249 255.827 376.114 255.291 375.843C254.756 375.572 254.325 375.246 253.999 374.864C253.679 374.477 253.429 374.11 253.251 373.766H253.112V381.318H249.77ZM253.048 368.909C253.048 369.826 253.177 370.629 253.436 371.319C253.7 372.008 254.079 372.547 254.571 372.935C255.07 373.316 255.673 373.507 256.381 373.507C257.119 373.507 257.738 373.31 258.237 372.916C258.735 372.516 259.111 371.971 259.363 371.282C259.622 370.586 259.751 369.795 259.751 368.909C259.751 368.029 259.625 367.247 259.372 366.564C259.12 365.881 258.744 365.345 258.246 364.957C257.747 364.57 257.126 364.376 256.381 364.376C255.667 364.376 255.061 364.563 254.562 364.939C254.063 365.314 253.685 365.841 253.426 366.518C253.174 367.195 253.048 367.992 253.048 368.909ZM270.11 357.091L269.806 370.442H266.833L266.537 357.091H270.11ZM268.319 376.203C267.759 376.203 267.279 376.006 266.879 375.612C266.485 375.218 266.288 374.738 266.288 374.172C266.288 373.618 266.485 373.144 266.879 372.75C267.279 372.356 267.759 372.159 268.319 372.159C268.867 372.159 269.341 372.356 269.741 372.75C270.147 373.144 270.35 373.618 270.35 374.172C270.35 374.547 270.255 374.889 270.064 375.197C269.879 375.504 269.633 375.751 269.325 375.935C269.024 376.114 268.688 376.203 268.319 376.203Z" fill="black"/>
<defs>
<linearGradient id="paint0_linear_44_3" x1="285.635" y1="63.7896" x2="285.635" y2="543.231" gradientUnits="userSpaceOnUse">
<stop stop-color="#F4E951" stop-opacity="0.5"/>
<stop offset="1" stop-color="#F4E951"/>
</linearGradient>
</defs>
</svg>
